<svg width="353" height="377" viewBox="0 0 353 377" fill="none" xmlns="http://www.w3.org/2000/svg">
<path d="M198.354 88.6464C198.158 88.4512 197.842 88.4512 197.646 88.6464L194.464 91.8284C194.269 92.0237 194.269 92.3403 194.464 92.5355C194.66 92.7308 194.976 92.7308 195.172 92.5355L198 89.7071L200.828 92.5355C201.024 92.7308 201.34 92.7308 201.536 92.5355C201.731 92.3403 201.731 92.0237 201.536 91.8284L198.354 88.6464ZM198.5 188L198.5 89L197.5 89L197.5 188L198.5 188Z" fill="white"/>
<rect x="164.494" y="150.5" width="67" height="23" rx="11.5" fill="#121214"/>
<path d="M176.979 167C176.723 167 176.511 166.932 176.343 166.796C176.175 166.66 176.059 166.432 175.995 166.112L174.531 158.6H175.947L177.063 164.996H177.087L178.947 159.044H179.475C179.851 159.044 180.107 159.26 180.243 159.692L181.839 164.984H181.863L182.979 158.6H184.395L182.919 166.112C182.855 166.416 182.743 166.64 182.583 166.784C182.431 166.928 182.219 167 181.947 167H181.371L179.499 160.904H179.475L177.555 167H176.979ZM189.992 164.924H186.656L185.876 167H184.424L187.688 158.6H188.324C188.756 158.6 189.056 158.812 189.224 159.236L192.224 167H190.76L189.992 164.924ZM187.052 163.748H189.596L188.336 160.34H188.324L187.052 163.748ZM194.361 167C194.041 167 193.789 166.908 193.605 166.724C193.421 166.54 193.329 166.296 193.329 165.992V158.6H194.733V165.776H199.293V167H194.361ZM201.55 167C201.23 167 200.978 166.908 200.794 166.724C200.61 166.54 200.518 166.296 200.518 165.992V158.6H201.922V165.776H206.482V167H201.55ZM208.739 167C208.427 167 208.175 166.908 207.983 166.724C207.799 166.532 207.707 166.284 207.707 165.98V158.6H213.863V159.812H209.111V162.092H213.503V163.316H209.111V165.788H213.863V167H208.739ZM217.441 159.812H214.777V158.6H221.509V159.812H218.845V167H217.441V159.812Z" fill="white"/>
<rect x="164.494" y="150.5" width="67" height="23" rx="11.5" stroke="white"/>
<rect x="52.1885" y="0.3125" width="250" height="108" rx="16" fill="white" fill-opacity="0.05"/>
<path d="M84.6481 42.4725C83.6481 42.4725 82.7681 42.2592 82.0081 41.8325C81.2614 41.3925 80.6814 40.7792 80.2681 39.9925C79.8548 39.1925 79.6481 38.2725 79.6481 37.2325V33.3925C79.6481 32.3525 79.8548 31.4392 80.2681 30.6525C80.6948 29.8525 81.2881 29.2392 82.0481 28.8125C82.8214 28.3725 83.7081 28.1525 84.7081 28.1525H86.9081C87.8681 28.1525 88.7148 28.3525 89.4481 28.7525C90.1814 29.1392 90.7481 29.6925 91.1481 30.4125C91.5481 31.1192 91.7481 31.9392 91.7481 32.8725H89.4481C89.4481 32.0725 89.2148 31.4325 88.7481 30.9525C88.2814 30.4592 87.6681 30.2125 86.9081 30.2125H84.7081C83.8948 30.2125 83.2348 30.5125 82.7281 31.1125C82.2348 31.6992 81.9881 32.4858 81.9881 33.4725V37.1525C81.9881 38.1392 82.2281 38.9325 82.7081 39.5325C83.2014 40.1192 83.8481 40.4125 84.6481 40.4125H86.9281C87.7014 40.4125 88.3348 40.1392 88.8281 39.5925C89.3214 39.0458 89.5681 38.3458 89.5681 37.4925V36.8125H85.6881V34.7725H91.8681V37.4925C91.8681 38.4658 91.6614 39.3325 91.2481 40.0925C90.8348 40.8392 90.2548 41.4258 89.5081 41.8525C88.7614 42.2658 87.9014 42.4725 86.9281 42.4725H84.6481ZM102.503 38.8525H96.9432L95.6432 42.3125H93.2232L98.6632 28.3125H99.7232C100.443 28.3125 100.943 28.6658 101.223 29.3725L106.223 42.3125H103.783L102.503 38.8525ZM97.6032 36.8925H101.843L99.7432 31.2125H99.7232L97.6032 36.8925ZM108.582 28.3125H110.702L115.422 36.9525L120.022 28.3125H122.142V42.3125H119.842V32.6525L116.542 38.7725C116.355 39.0925 116.175 39.3258 116.002 39.4725C115.828 39.6058 115.635 39.6725 115.422 39.6725H114.762L110.862 32.6525V42.3125H108.582V28.3125ZM125.871 28.3125H128.211V42.3125H125.871V28.3125ZM131.939 28.3125H134.039L141.119 38.5525V28.3125H143.399V42.3125H141.279L134.219 32.1125V42.3125H131.939V28.3125ZM151.519 42.4725C150.519 42.4725 149.639 42.2592 148.879 41.8325C148.133 41.3925 147.553 40.7792 147.139 39.9925C146.726 39.1925 146.519 38.2725 146.519 37.2325V33.3925C146.519 32.3525 146.726 31.4392 147.139 30.6525C147.566 29.8525 148.159 29.2392 148.919 28.8125C149.693 28.3725 150.579 28.1525 151.579 28.1525H153.779C154.739 28.1525 155.586 28.3525 156.319 28.7525C157.053 29.1392 157.619 29.6925 158.019 30.4125C158.419 31.1192 158.619 31.9392 158.619 32.8725H156.319C156.319 32.0725 156.086 31.4325 155.619 30.9525C155.153 30.4592 154.539 30.2125 153.779 30.2125H151.579C150.766 30.2125 150.106 30.5125 149.599 31.1125C149.106 31.6992 148.859 32.4858 148.859 33.4725V37.1525C148.859 38.1392 149.099 38.9325 149.579 39.5325C150.073 40.1192 150.719 40.4125 151.519 40.4125H153.799C154.573 40.4125 155.206 40.1392 155.699 39.5925C156.193 39.0458 156.439 38.3458 156.439 37.4925V36.8125H152.559V34.7725H158.739V37.4925C158.739 38.4658 158.533 39.3325 158.119 40.0925C157.706 40.8392 157.126 41.4258 156.379 41.8525C155.633 42.2658 154.773 42.4725 153.799 42.4725H151.519ZM172.888 42.4725C171.874 42.4725 170.981 42.2592 170.208 41.8325C169.434 41.3925 168.834 40.7792 168.408 39.9925C167.981 39.1925 167.768 38.2725 167.768 37.2325V33.3925C167.768 32.3525 167.981 31.4392 168.408 30.6525C168.834 29.8525 169.434 29.2392 170.208 28.8125C170.981 28.3725 171.874 28.1525 172.888 28.1525H175.008C176.021 28.1525 176.914 28.3725 177.688 28.8125C178.474 29.2392 179.081 29.8525 179.508 30.6525C179.934 31.4392 180.148 32.3525 180.148 33.3925V37.2325C180.148 38.2725 179.934 39.1925 179.508 39.9925C179.081 40.7792 178.474 41.3925 177.688 41.8325C176.914 42.2592 176.021 42.4725 175.008 42.4725H172.888ZM175.008 40.4125C175.834 40.4125 176.508 40.1125 177.028 39.5125C177.548 38.9125 177.808 38.1258 177.808 37.1525V33.4725C177.808 32.4992 177.548 31.7125 177.028 31.1125C176.521 30.5125 175.848 30.2125 175.008 30.2125H172.908C172.068 30.2125 171.388 30.5125 170.868 31.1125C170.361 31.7125 170.108 32.4992 170.108 33.4725V37.1525C170.108 38.1258 170.361 38.9125 170.868 39.5125C171.388 40.1125 172.068 40.4125 172.908 40.4125H175.008ZM183.264 28.3125H190.444C191.618 28.3125 192.564 28.6458 193.284 29.3125C194.004 29.9658 194.364 30.8325 194.364 31.9125V33.8325C194.364 34.9658 193.984 35.8792 193.224 36.5725C192.478 37.2525 191.491 37.5925 190.264 37.5925H185.604V42.3125H183.264V28.3125ZM190.224 35.5525C190.771 35.5525 191.204 35.3858 191.524 35.0525C191.858 34.7192 192.024 34.2858 192.024 33.7525V31.9725C192.024 31.4792 191.878 31.0858 191.584 30.7925C191.291 30.4992 190.898 30.3525 190.404 30.3525H185.604V35.5525H190.224ZM198.636 42.3125C198.116 42.3125 197.696 42.1592 197.376 41.8525C197.069 41.5325 196.916 41.1192 196.916 40.6125V28.3125H207.176V30.3325H199.256V34.1325H206.576V36.1725H199.256V40.2925H207.176V42.3125H198.636ZM210.099 28.3125H217.319C218.466 28.3125 219.392 28.6258 220.099 29.2525C220.806 29.8792 221.159 30.7058 221.159 31.7325V33.1525C221.159 33.8458 220.946 34.4592 220.519 34.9925C220.106 35.5125 219.526 35.8992 218.779 36.1525V36.1925C219.206 36.4458 219.546 36.7725 219.799 37.1725C220.066 37.5592 220.292 38.0658 220.479 38.6925L221.599 42.3125H219.179L218.099 38.8525C217.926 38.2525 217.659 37.7925 217.299 37.4725C216.939 37.1525 216.519 36.9925 216.039 36.9925H212.439V42.3125H210.099V28.3125ZM216.799 34.9725C217.412 34.9725 217.899 34.8058 218.259 34.4725C218.632 34.1392 218.819 33.7058 218.819 33.1725V31.7925C218.819 31.3658 218.679 31.0192 218.399 30.7525C218.119 30.4858 217.746 30.3525 217.279 30.3525H212.439V34.9725H216.799ZM232.398 38.8525H226.838L225.538 42.3125H223.118L228.558 28.3125H229.618C230.338 28.3125 230.838 28.6658 231.118 29.3725L236.118 42.3125H233.678L232.398 38.8525ZM227.498 36.8925H231.738L229.638 31.2125H229.618L227.498 36.8925ZM239.924 30.3325H235.484V28.3125H246.704V30.3325H242.264V42.3125H239.924V30.3325ZM253.293 42.4725C252.28 42.4725 251.386 42.2592 250.613 41.8325C249.84 41.3925 249.24 40.7792 248.813 39.9925C248.386 39.1925 248.173 38.2725 248.173 37.2325V33.3925C248.173 32.3525 248.386 31.4392 248.813 30.6525C249.24 29.8525 249.84 29.2392 250.613 28.8125C251.386 28.3725 252.28 28.1525 253.293 28.1525H255.413C256.426 28.1525 257.32 28.3725 258.093 28.8125C258.88 29.2392 259.486 29.8525 259.913 30.6525C260.34 31.4392 260.553 32.3525 260.553 33.3925V37.2325C260.553 38.2725 260.34 39.1925 259.913 39.9925C259.486 40.7792 258.88 41.3925 258.093 41.8325C257.32 42.2592 256.426 42.4725 255.413 42.4725H253.293ZM255.413 40.4125C256.24 40.4125 256.913 40.1125 257.433 39.5125C257.953 38.9125 258.213 38.1258 258.213 37.1525V33.4725C258.213 32.4992 257.953 31.7125 257.433 31.1125C256.926 30.5125 256.253 30.2125 255.413 30.2125H253.313C252.473 30.2125 251.793 30.5125 251.273 31.1125C250.766 31.7125 250.513 32.4992 250.513 33.4725V37.1525C250.513 38.1258 250.766 38.9125 251.273 39.5125C251.793 40.1125 252.473 40.4125 253.313 40.4125H255.413ZM263.67 28.3125H270.89C272.037 28.3125 272.963 28.6258 273.67 29.2525C274.377 29.8792 274.73 30.7058 274.73 31.7325V33.1525C274.73 33.8458 274.517 34.4592 274.09 34.9925C273.677 35.5125 273.097 35.8992 272.35 36.1525V36.1925C272.777 36.4458 273.117 36.7725 273.37 37.1725C273.637 37.5592 273.863 38.0658 274.05 38.6925L275.17 42.3125H272.75L271.67 38.8525C271.497 38.2525 271.23 37.7925 270.87 37.4725C270.51 37.1525 270.09 36.9925 269.61 36.9925H266.01V42.3125H263.67V28.3125ZM270.37 34.9725C270.983 34.9725 271.47 34.8058 271.83 34.4725C272.203 34.1392 272.39 33.7058 272.39 33.1725V31.7925C272.39 31.3658 272.25 31.0192 271.97 30.7525C271.69 30.4858 271.317 30.3525 270.85 30.3525H266.01V34.9725H270.37Z" fill="white"/>
<rect x="127.188" y="60.3125" width="100" height="24" rx="12" fill="white"/>
<path d="M138.352 68.9125H139.756V77.3125H138.352V68.9125ZM141.753 68.9125H143.013L147.261 75.0565V68.9125H148.629V77.3125H147.357L143.121 71.1925V77.3125H141.753V68.9125ZM152.565 70.1245H149.901V68.9125H156.633V70.1245H153.969V77.3125H152.565V70.1245ZM158.933 77.3125C158.621 77.3125 158.369 77.2205 158.177 77.0365C157.993 76.8445 157.901 76.5965 157.901 76.2925V68.9125H164.057V70.1245H159.305V72.4045H163.697V73.6285H159.305V76.1005H164.057V77.3125H158.933ZM168.261 77.4085C167.661 77.4085 167.133 77.2805 166.677 77.0245C166.229 76.7605 165.881 76.3925 165.633 75.9205C165.385 75.4405 165.261 74.8885 165.261 74.2645V71.9605C165.261 71.3365 165.385 70.7885 165.633 70.3165C165.889 69.8365 166.245 69.4685 166.701 69.2125C167.165 68.9485 167.697 68.8165 168.297 68.8165H169.617C170.193 68.8165 170.701 68.9365 171.141 69.1765C171.581 69.4085 171.921 69.7405 172.161 70.1725C172.401 70.5965 172.521 71.0885 172.521 71.6485H171.141C171.141 71.1685 171.001 70.7845 170.721 70.4965C170.441 70.2005 170.073 70.0525 169.617 70.0525H168.297C167.809 70.0525 167.413 70.2325 167.109 70.5925C166.813 70.9445 166.665 71.4165 166.665 72.0085V74.2165C166.665 74.8085 166.809 75.2845 167.097 75.6445C167.393 75.9965 167.781 76.1725 168.261 76.1725H169.629C170.093 76.1725 170.473 76.0085 170.769 75.6805C171.065 75.3525 171.213 74.9325 171.213 74.4205V74.0125H168.885V72.7885H172.593V74.4205C172.593 75.0045 172.469 75.5245 172.221 75.9805C171.973 76.4285 171.625 76.7805 171.177 77.0365C170.729 77.2845 170.213 77.4085 169.629 77.4085H168.261ZM174.178 68.9125H178.51C179.198 68.9125 179.754 69.1005 180.178 69.4765C180.602 69.8525 180.814 70.3485 180.814 70.9645V71.8165C180.814 72.2325 180.686 72.6005 180.43 72.9205C180.182 73.2325 179.834 73.4645 179.386 73.6165V73.6405C179.642 73.7925 179.846 73.9885 179.998 74.2285C180.158 74.4605 180.294 74.7645 180.406 75.1405L181.078 77.3125H179.626L178.978 75.2365C178.874 74.8765 178.714 74.6005 178.498 74.4085C178.282 74.2165 178.03 74.1205 177.742 74.1205H175.582V77.3125H174.178V68.9125ZM178.198 72.9085C178.566 72.9085 178.858 72.8085 179.074 72.6085C179.298 72.4085 179.41 72.1485 179.41 71.8285V71.0005C179.41 70.7445 179.326 70.5365 179.158 70.3765C178.99 70.2165 178.766 70.1365 178.486 70.1365H175.582V72.9085H178.198ZM187.318 75.2365H183.982L183.202 77.3125H181.75L185.014 68.9125H185.65C186.082 68.9125 186.382 69.1245 186.55 69.5485L189.55 77.3125H188.086L187.318 75.2365ZM184.378 74.0605H186.922L185.662 70.6525H185.65L184.378 74.0605ZM191.593 70.1245H188.929V68.9125H195.661V70.1245H192.997V77.3125H191.593V70.1245ZM197.05 68.9125H198.454V77.3125H197.05V68.9125ZM203.283 77.4085C202.675 77.4085 202.139 77.2805 201.675 77.0245C201.211 76.7605 200.851 76.3925 200.595 75.9205C200.339 75.4405 200.211 74.8885 200.211 74.2645V71.9605C200.211 71.3365 200.339 70.7885 200.595 70.3165C200.851 69.8365 201.211 69.4685 201.675 69.2125C202.139 68.9485 202.675 68.8165 203.283 68.8165H204.555C205.163 68.8165 205.699 68.9485 206.163 69.2125C206.635 69.4685 206.999 69.8365 207.255 70.3165C207.511 70.7885 207.639 71.3365 207.639 71.9605V74.2645C207.639 74.8885 207.511 75.4405 207.255 75.9205C206.999 76.3925 206.635 76.7605 206.163 77.0245C205.699 77.2805 205.163 77.4085 204.555 77.4085H203.283ZM204.555 76.1725C205.051 76.1725 205.455 75.9925 205.767 75.6325C206.079 75.2725 206.235 74.8005 206.235 74.2165V72.0085C206.235 71.4245 206.079 70.9525 205.767 70.5925C205.463 70.2325 205.059 70.0525 204.555 70.0525H203.295C202.791 70.0525 202.383 70.2325 202.071 70.5925C201.767 70.9525 201.615 71.4245 201.615 72.0085V74.2165C201.615 74.8005 201.767 75.2725 202.071 75.6325C202.383 75.9925 202.791 76.1725 203.295 76.1725H204.555ZM209.269 68.9125H210.529L214.777 75.0565V68.9125H216.145V77.3125H214.873L210.637 71.1925V77.3125H209.269V68.9125Z" fill="#121214"/>
<rect x="52.6885" y="0.8125" width="249" height="107" rx="15.5" stroke="white" stroke-opacity="0.1"/>
<rect x="38" y="188" width="278" height="88" rx="16" fill="white" fill-opacity="0.05"/>
<path d="M70.7655 214.7C71.9121 214.9 72.7921 215.273 73.4055 215.82C74.0321 216.353 74.3455 217.04 74.3455 217.88V219.18C74.3455 219.86 74.1588 220.467 73.7855 221C73.4255 221.52 72.9055 221.927 72.2255 222.22C71.5588 222.513 70.7921 222.66 69.9255 222.66V224.6H67.6255V222.66H67.5655C66.1788 222.66 65.0855 222.26 64.2855 221.46C63.4855 220.66 63.0855 219.567 63.0855 218.18H65.3855C65.3855 218.927 65.5788 219.52 65.9655 219.96C66.3655 220.387 66.9121 220.6 67.6055 220.6H69.8255C70.4788 220.6 71.0055 220.46 71.4055 220.18C71.8055 219.887 72.0055 219.507 72.0055 219.04V218.16C72.0055 217.8 71.8655 217.5 71.5855 217.26C71.3055 217.02 70.9055 216.853 70.3855 216.76L66.7455 216.14C65.6121 215.953 64.7388 215.58 64.1255 215.02C63.5255 214.46 63.2255 213.747 63.2255 212.88V211.78C63.2255 211.1 63.4055 210.5 63.7655 209.98C64.1388 209.46 64.6588 209.06 65.3255 208.78C65.9921 208.487 66.7588 208.34 67.6255 208.34V206.4H69.9255V208.34C70.7388 208.34 71.4588 208.513 72.0855 208.86C72.7255 209.193 73.2188 209.673 73.5655 210.3C73.9121 210.927 74.0855 211.647 74.0855 212.46H71.8055C71.8055 211.847 71.6255 211.353 71.2655 210.98C70.9188 210.593 70.4655 210.4 69.9055 210.4H67.6455C67.0188 210.4 66.5121 210.54 66.1255 210.82C65.7521 211.087 65.5655 211.453 65.5655 211.92V212.64C65.5655 213.013 65.6988 213.327 65.9655 213.58C66.2321 213.82 66.6188 213.98 67.1255 214.06L70.7655 214.7ZM84.0952 214.7C85.2418 214.9 86.1218 215.273 86.7352 215.82C87.3618 216.353 87.6752 217.04 87.6752 217.88V219.18C87.6752 219.86 87.4885 220.467 87.1152 221C86.7552 221.52 86.2352 221.927 85.5552 222.22C84.8885 222.513 84.1218 222.66 83.2552 222.66V224.6H80.9552V222.66H80.8952C79.5085 222.66 78.4152 222.26 77.6152 221.46C76.8152 220.66 76.4152 219.567 76.4152 218.18H78.7152C78.7152 218.927 78.9085 219.52 79.2952 219.96C79.6952 220.387 80.2418 220.6 80.9352 220.6H83.1552C83.8085 220.6 84.3352 220.46 84.7352 220.18C85.1352 219.887 85.3352 219.507 85.3352 219.04V218.16C85.3352 217.8 85.1952 217.5 84.9152 217.26C84.6352 217.02 84.2352 216.853 83.7152 216.76L80.0752 216.14C78.9418 215.953 78.0685 215.58 77.4552 215.02C76.8552 214.46 76.5552 213.747 76.5552 212.88V211.78C76.5552 211.1 76.7352 210.5 77.0952 209.98C77.4685 209.46 77.9885 209.06 78.6552 208.78C79.3218 208.487 80.0885 208.34 80.9552 208.34V206.4H83.2552V208.34C84.0685 208.34 84.7885 208.513 85.4152 208.86C86.0552 209.193 86.5485 209.673 86.8952 210.3C87.2418 210.927 87.4152 211.647 87.4152 212.46H85.1352C85.1352 211.847 84.9552 211.353 84.5952 210.98C84.2485 210.593 83.7952 210.4 83.2352 210.4H80.9752C80.3485 210.4 79.8418 210.54 79.4552 210.82C79.0818 211.087 78.8952 211.453 78.8952 211.92V212.64C78.8952 213.013 79.0285 213.327 79.2952 213.58C79.5618 213.82 79.9485 213.98 80.4552 214.06L84.0952 214.7ZM97.4248 214.7C98.5715 214.9 99.4515 215.273 100.065 215.82C100.692 216.353 101.005 217.04 101.005 217.88V219.18C101.005 219.86 100.818 220.467 100.445 221C100.085 221.52 99.5648 221.927 98.8848 222.22C98.2182 222.513 97.4515 222.66 96.5848 222.66V224.6H94.2848V222.66H94.2248C92.8382 222.66 91.7448 222.26 90.9448 221.46C90.1448 220.66 89.7448 219.567 89.7448 218.18H92.0448C92.0448 218.927 92.2382 219.52 92.6248 219.96C93.0248 220.387 93.5715 220.6 94.2648 220.6H96.4848C97.1382 220.6 97.6648 220.46 98.0648 220.18C98.4648 219.887 98.6648 219.507 98.6648 219.04V218.16C98.6648 217.8 98.5248 217.5 98.2448 217.26C97.9648 217.02 97.5648 216.853 97.0448 216.76L93.4048 216.14C92.2715 215.953 91.3982 215.58 90.7848 215.02C90.1848 214.46 89.8848 213.747 89.8848 212.88V211.78C89.8848 211.1 90.0648 210.5 90.4248 209.98C90.7982 209.46 91.3182 209.06 91.9848 208.78C92.6515 208.487 93.4182 208.34 94.2848 208.34V206.4H96.5848V208.34C97.3982 208.34 98.1182 208.513 98.7448 208.86C99.3848 209.193 99.8782 209.673 100.225 210.3C100.572 210.927 100.745 211.647 100.745 212.46H98.4648C98.4648 211.847 98.2848 211.353 97.9248 210.98C97.5782 210.593 97.1248 210.4 96.5648 210.4H94.3048C93.6782 210.4 93.1715 210.54 92.7848 210.82C92.4115 211.087 92.2248 211.453 92.2248 211.92V212.64C92.2248 213.013 92.3582 213.327 92.6248 213.58C92.8915 213.82 93.2782 213.98 93.7848 214.06L97.4248 214.7Z" fill="#FFC700"/>
<path d="M117.568 219.04H112.008L110.708 222.5H108.288L113.728 208.5H114.788C115.508 208.5 116.008 208.853 116.288 209.56L121.288 222.5H118.848L117.568 219.04ZM112.668 217.08H116.908L114.808 211.4H114.788L112.668 217.08ZM127.797 222.66C126.797 222.66 125.917 222.447 125.157 222.02C124.41 221.58 123.83 220.967 123.417 220.18C123.003 219.38 122.797 218.46 122.797 217.42V213.58C122.797 212.54 123.003 211.627 123.417 210.84C123.843 210.04 124.437 209.427 125.197 209C125.97 208.56 126.857 208.34 127.857 208.34H130.057C131.017 208.34 131.863 208.54 132.597 208.94C133.33 209.327 133.897 209.88 134.297 210.6C134.697 211.307 134.897 212.127 134.897 213.06H132.597C132.597 212.26 132.363 211.62 131.897 211.14C131.43 210.647 130.817 210.4 130.057 210.4H127.857C127.043 210.4 126.383 210.7 125.877 211.3C125.383 211.887 125.137 212.673 125.137 213.66V217.34C125.137 218.327 125.377 219.12 125.857 219.72C126.35 220.307 126.997 220.6 127.797 220.6H130.077C130.85 220.6 131.483 220.327 131.977 219.78C132.47 219.233 132.717 218.533 132.717 217.68V217H128.837V214.96H135.017V217.68C135.017 218.653 134.81 219.52 134.397 220.28C133.983 221.027 133.403 221.613 132.657 222.04C131.91 222.453 131.05 222.66 130.077 222.66H127.797ZM142.659 222.66C141.659 222.66 140.779 222.447 140.019 222.02C139.273 221.58 138.693 220.967 138.279 220.18C137.866 219.38 137.659 218.46 137.659 217.42V213.58C137.659 212.54 137.866 211.627 138.279 210.84C138.706 210.04 139.299 209.427 140.059 209C140.833 208.56 141.719 208.34 142.719 208.34H144.919C145.879 208.34 146.726 208.54 147.459 208.94C148.193 209.327 148.759 209.88 149.159 210.6C149.559 211.307 149.759 212.127 149.759 213.06H147.459C147.459 212.26 147.226 211.62 146.759 211.14C146.293 210.647 145.679 210.4 144.919 210.4H142.719C141.906 210.4 141.246 210.7 140.739 211.3C140.246 211.887 139.999 212.673 139.999 213.66V217.34C139.999 218.327 140.239 219.12 140.719 219.72C141.213 220.307 141.859 220.6 142.659 220.6H144.939C145.713 220.6 146.346 220.327 146.839 219.78C147.333 219.233 147.579 218.533 147.579 217.68V217H143.699V214.96H149.879V217.68C149.879 218.653 149.673 219.52 149.259 220.28C148.846 221.027 148.266 221.613 147.519 222.04C146.773 222.453 145.913 222.66 144.939 222.66H142.659ZM152.922 208.5H160.142C161.288 208.5 162.215 208.813 162.922 209.44C163.628 210.067 163.982 210.893 163.982 211.92V213.34C163.982 214.033 163.768 214.647 163.342 215.18C162.928 215.7 162.348 216.087 161.602 216.34V216.38C162.028 216.633 162.368 216.96 162.622 217.36C162.888 217.747 163.115 218.253 163.302 218.88L164.422 222.5H162.002L160.922 219.04C160.748 218.44 160.482 217.98 160.122 217.66C159.762 217.34 159.342 217.18 158.862 217.18H155.262V222.5H152.922V208.5ZM159.622 215.16C160.235 215.16 160.722 214.993 161.082 214.66C161.455 214.327 161.642 213.893 161.642 213.36V211.98C161.642 211.553 161.502 211.207 161.222 210.94C160.942 210.673 160.568 210.54 160.102 210.54H155.262V215.16H159.622ZM168.821 222.5C168.301 222.5 167.881 222.347 167.561 222.04C167.254 221.72 167.101 221.307 167.101 220.8V208.5H177.361V210.52H169.441V214.32H176.761V216.36H169.441V220.48H177.361V222.5H168.821ZM184.766 222.66C183.766 222.66 182.886 222.447 182.126 222.02C181.38 221.58 180.8 220.967 180.386 220.18C179.973 219.38 179.766 218.46 179.766 217.42V213.58C179.766 212.54 179.973 211.627 180.386 210.84C180.813 210.04 181.406 209.427 182.166 209C182.94 208.56 183.826 208.34 184.826 208.34H187.026C187.986 208.34 188.833 208.54 189.566 208.94C190.3 209.327 190.866 209.88 191.266 210.6C191.666 211.307 191.866 212.127 191.866 213.06H189.566C189.566 212.26 189.333 211.62 188.866 211.14C188.4 210.647 187.786 210.4 187.026 210.4H184.826C184.013 210.4 183.353 210.7 182.846 211.3C182.353 211.887 182.106 212.673 182.106 213.66V217.34C182.106 218.327 182.346 219.12 182.826 219.72C183.32 220.307 183.966 220.6 184.766 220.6H187.046C187.82 220.6 188.453 220.327 188.946 219.78C189.44 219.233 189.686 218.533 189.686 217.68V217H185.806V214.96H191.986V217.68C191.986 218.653 191.78 219.52 191.366 220.28C190.953 221.027 190.373 221.613 189.626 222.04C188.88 222.453 188.02 222.66 187.046 222.66H184.766ZM202.621 219.04H197.061L195.761 222.5H193.341L198.781 208.5H199.841C200.561 208.5 201.061 208.853 201.341 209.56L206.341 222.5H203.901L202.621 219.04ZM197.721 217.08H201.961L199.861 211.4H199.841L197.721 217.08ZM210.148 210.52H205.708V208.5H216.928V210.52H212.488V222.5H210.148V210.52ZM223.517 222.66C222.503 222.66 221.61 222.447 220.837 222.02C220.063 221.58 219.463 220.967 219.037 220.18C218.61 219.38 218.397 218.46 218.397 217.42V213.58C218.397 212.54 218.61 211.627 219.037 210.84C219.463 210.04 220.063 209.427 220.837 209C221.61 208.56 222.503 208.34 223.517 208.34H225.637C226.65 208.34 227.543 208.56 228.317 209C229.103 209.427 229.71 210.04 230.137 210.84C230.563 211.627 230.777 212.54 230.777 213.58V217.42C230.777 218.46 230.563 219.38 230.137 220.18C229.71 220.967 229.103 221.58 228.317 222.02C227.543 222.447 226.65 222.66 225.637 222.66H223.517ZM225.637 220.6C226.463 220.6 227.137 220.3 227.657 219.7C228.177 219.1 228.437 218.313 228.437 217.34V213.66C228.437 212.687 228.177 211.9 227.657 211.3C227.15 210.7 226.477 210.4 225.637 210.4H223.537C222.697 210.4 222.017 210.7 221.497 211.3C220.99 211.9 220.737 212.687 220.737 213.66V217.34C220.737 218.313 220.99 219.1 221.497 219.7C222.017 220.3 222.697 220.6 223.537 220.6H225.637ZM233.894 208.5H241.114C242.26 208.5 243.187 208.813 243.894 209.44C244.6 210.067 244.954 210.893 244.954 211.92V213.34C244.954 214.033 244.74 214.647 244.314 215.18C243.9 215.7 243.32 216.087 242.574 216.34V216.38C243 216.633 243.34 216.96 243.594 217.36C243.86 217.747 244.087 218.253 244.274 218.88L245.394 222.5H242.974L241.894 219.04C241.72 218.44 241.454 217.98 241.094 217.66C240.734 217.34 240.314 217.18 239.834 217.18H236.234V222.5H233.894V208.5ZM240.594 215.16C241.207 215.16 241.694 214.993 242.054 214.66C242.427 214.327 242.614 213.893 242.614 213.36V211.98C242.614 211.553 242.474 211.207 242.194 210.94C241.914 210.673 241.54 210.54 241.074 210.54H236.234V215.16H240.594Z" fill="white"/>
<path d="M260.765 214.7C261.912 214.9 262.792 215.273 263.405 215.82C264.032 216.353 264.345 217.04 264.345 217.88V219.18C264.345 219.86 264.159 220.467 263.785 221C263.425 221.52 262.905 221.927 262.225 222.22C261.559 222.513 260.792 222.66 259.925 222.66V224.6H257.625V222.66H257.565C256.179 222.66 255.085 222.26 254.285 221.46C253.485 220.66 253.085 219.567 253.085 218.18H255.385C255.385 218.927 255.579 219.52 255.965 219.96C256.365 220.387 256.912 220.6 257.605 220.6H259.825C260.479 220.6 261.005 220.46 261.405 220.18C261.805 219.887 262.005 219.507 262.005 219.04V218.16C262.005 217.8 261.865 217.5 261.585 217.26C261.305 217.02 260.905 216.853 260.385 216.76L256.745 216.14C255.612 215.953 254.739 215.58 254.125 215.02C253.525 214.46 253.225 213.747 253.225 212.88V211.78C253.225 211.1 253.405 210.5 253.765 209.98C254.139 209.46 254.659 209.06 255.325 208.78C255.992 208.487 256.759 208.34 257.625 208.34V206.4H259.925V208.34C260.739 208.34 261.459 208.513 262.085 208.86C262.725 209.193 263.219 209.673 263.565 210.3C263.912 210.927 264.085 211.647 264.085 212.46H261.805C261.805 211.847 261.625 211.353 261.265 210.98C260.919 210.593 260.465 210.4 259.905 210.4H257.645C257.019 210.4 256.512 210.54 256.125 210.82C255.752 211.087 255.565 211.453 255.565 211.92V212.64C255.565 213.013 255.699 213.327 255.965 213.58C256.232 213.82 256.619 213.98 257.125 214.06L260.765 214.7ZM274.095 214.7C275.242 214.9 276.122 215.273 276.735 215.82C277.362 216.353 277.675 217.04 277.675 217.88V219.18C277.675 219.86 277.488 220.467 277.115 221C276.755 221.52 276.235 221.927 275.555 222.22C274.888 222.513 274.122 222.66 273.255 222.66V224.6H270.955V222.66H270.895C269.508 222.66 268.415 222.26 267.615 221.46C266.815 220.66 266.415 219.567 266.415 218.18H268.715C268.715 218.927 268.908 219.52 269.295 219.96C269.695 220.387 270.242 220.6 270.935 220.6H273.155C273.808 220.6 274.335 220.46 274.735 220.18C275.135 219.887 275.335 219.507 275.335 219.04V218.16C275.335 217.8 275.195 217.5 274.915 217.26C274.635 217.02 274.235 216.853 273.715 216.76L270.075 216.14C268.942 215.953 268.068 215.58 267.455 215.02C266.855 214.46 266.555 213.747 266.555 212.88V211.78C266.555 211.1 266.735 210.5 267.095 209.98C267.468 209.46 267.988 209.06 268.655 208.78C269.322 208.487 270.088 208.34 270.955 208.34V206.4H273.255V208.34C274.068 208.34 274.788 208.513 275.415 208.86C276.055 209.193 276.548 209.673 276.895 210.3C277.242 210.927 277.415 211.647 277.415 212.46H275.135C275.135 211.847 274.955 211.353 274.595 210.98C274.248 210.593 273.795 210.4 273.235 210.4H270.975C270.348 210.4 269.842 210.54 269.455 210.82C269.082 211.087 268.895 211.453 268.895 211.92V212.64C268.895 213.013 269.028 213.327 269.295 213.58C269.562 213.82 269.948 213.98 270.455 214.06L274.095 214.7ZM287.425 214.7C288.572 214.9 289.452 215.273 290.065 215.82C290.692 216.353 291.005 217.04 291.005 217.88V219.18C291.005 219.86 290.818 220.467 290.445 221C290.085 221.52 289.565 221.927 288.885 222.22C288.218 222.513 287.452 222.66 286.585 222.66V224.6H284.285V222.66H284.225C282.838 222.66 281.745 222.26 280.945 221.46C280.145 220.66 279.745 219.567 279.745 218.18H282.045C282.045 218.927 282.238 219.52 282.625 219.96C283.025 220.387 283.572 220.6 284.265 220.6H286.485C287.138 220.6 287.665 220.46 288.065 220.18C288.465 219.887 288.665 219.507 288.665 219.04V218.16C288.665 217.8 288.525 217.5 288.245 217.26C287.965 217.02 287.565 216.853 287.045 216.76L283.405 216.14C282.272 215.953 281.398 215.58 280.785 215.02C280.185 214.46 279.885 213.747 279.885 212.88V211.78C279.885 211.1 280.065 210.5 280.425 209.98C280.798 209.46 281.318 209.06 281.985 208.78C282.652 208.487 283.418 208.34 284.285 208.34V206.4H286.585V208.34C287.398 208.34 288.118 208.513 288.745 208.86C289.385 209.193 289.878 209.673 290.225 210.3C290.572 210.927 290.745 211.647 290.745 212.46H288.465C288.465 211.847 288.285 211.353 287.925 210.98C287.578 210.593 287.125 210.4 286.565 210.4H284.305C283.678 210.4 283.172 210.54 282.785 210.82C282.412 211.087 282.225 211.453 282.225 211.92V212.64C282.225 213.013 282.358 213.327 282.625 213.58C282.892 213.82 283.278 213.98 283.785 214.06L287.425 214.7Z" fill="#FFC700"/>
<rect x="127" y="235.5" width="100" height="24" rx="12" fill="white"/>
<path d="M138.164 244.1H139.568V252.5H138.164V244.1ZM141.565 244.1H142.825L147.073 250.244V244.1H148.441V252.5H147.169L142.933 246.38V252.5H141.565V244.1ZM152.377 245.312H149.713V244.1H156.445V245.312H153.781V252.5H152.377V245.312ZM158.745 252.5C158.433 252.5 158.181 252.408 157.989 252.224C157.805 252.032 157.713 251.784 157.713 251.48V244.1H163.869V245.312H159.117V247.592H163.509V248.816H159.117V251.288H163.869V252.5H158.745ZM168.072 252.596C167.472 252.596 166.944 252.468 166.488 252.212C166.04 251.948 165.692 251.58 165.444 251.108C165.196 250.628 165.072 250.076 165.072 249.452V247.148C165.072 246.524 165.196 245.976 165.444 245.504C165.7 245.024 166.056 244.656 166.512 244.4C166.976 244.136 167.508 244.004 168.108 244.004H169.428C170.004 244.004 170.512 244.124 170.952 244.364C171.392 244.596 171.732 244.928 171.972 245.36C172.212 245.784 172.332 246.276 172.332 246.836H170.952C170.952 246.356 170.812 245.972 170.532 245.684C170.252 245.388 169.884 245.24 169.428 245.24H168.108C167.62 245.24 167.224 245.42 166.92 245.78C166.624 246.132 166.476 246.604 166.476 247.196V249.404C166.476 249.996 166.62 250.472 166.908 250.832C167.204 251.184 167.592 251.36 168.072 251.36H169.44C169.904 251.36 170.284 251.196 170.58 250.868C170.876 250.54 171.024 250.12 171.024 249.608V249.2H168.696V247.976H172.404V249.608C172.404 250.192 172.28 250.712 172.032 251.168C171.784 251.616 171.436 251.968 170.988 252.224C170.54 252.472 170.024 252.596 169.44 252.596H168.072ZM173.99 244.1H178.322C179.01 244.1 179.566 244.288 179.99 244.664C180.414 245.04 180.626 245.536 180.626 246.152V247.004C180.626 247.42 180.498 247.788 180.242 248.108C179.994 248.42 179.646 248.652 179.198 248.804V248.828C179.454 248.98 179.658 249.176 179.81 249.416C179.97 249.648 180.106 249.952 180.218 250.328L180.89 252.5H179.438L178.79 250.424C178.686 250.064 178.526 249.788 178.31 249.596C178.094 249.404 177.842 249.308 177.554 249.308H175.394V252.5H173.99V244.1ZM178.01 248.096C178.378 248.096 178.67 247.996 178.886 247.796C179.11 247.596 179.222 247.336 179.222 247.016V246.188C179.222 245.932 179.138 245.724 178.97 245.564C178.802 245.404 178.578 245.324 178.298 245.324H175.394V248.096H178.01ZM187.129 250.424H183.793L183.013 252.5H181.561L184.825 244.1H185.461C185.893 244.1 186.193 244.312 186.361 244.736L189.361 252.5H187.897L187.129 250.424ZM184.189 249.248H186.733L185.473 245.84H185.461L184.189 249.248ZM191.405 245.312H188.741V244.1H195.473V245.312H192.809V252.5H191.405V245.312ZM196.861 244.1H198.265V252.5H196.861V244.1ZM203.094 252.596C202.486 252.596 201.95 252.468 201.486 252.212C201.022 251.948 200.662 251.58 200.406 251.108C200.15 250.628 200.022 250.076 200.022 249.452V247.148C200.022 246.524 200.15 245.976 200.406 245.504C200.662 245.024 201.022 244.656 201.486 244.4C201.95 244.136 202.486 244.004 203.094 244.004H204.366C204.974 244.004 205.51 244.136 205.974 244.4C206.446 244.656 206.81 245.024 207.066 245.504C207.322 245.976 207.45 246.524 207.45 247.148V249.452C207.45 250.076 207.322 250.628 207.066 251.108C206.81 251.58 206.446 251.948 205.974 252.212C205.51 252.468 204.974 252.596 204.366 252.596H203.094ZM204.366 251.36C204.862 251.36 205.266 251.18 205.578 250.82C205.89 250.46 206.046 249.988 206.046 249.404V247.196C206.046 246.612 205.89 246.14 205.578 245.78C205.274 245.42 204.87 245.24 204.366 245.24H203.106C202.602 245.24 202.194 245.42 201.882 245.78C201.578 246.14 201.426 246.612 201.426 247.196V249.404C201.426 249.988 201.578 250.46 201.882 250.82C202.194 251.18 202.602 251.36 203.106 251.36H204.366ZM209.08 244.1H210.34L214.588 250.244V244.1H215.956V252.5H214.684L210.448 246.38V252.5H209.08V244.1Z" fill="#121214"/>
<rect x="38.5" y="188.5" width="277" height="87" rx="15.5" stroke="white" stroke-opacity="0.1"/>
<rect x="126.188" y="325" width="101" height="52" rx="16" fill="white" fill-opacity="0.05"/>
<path d="M161.427 353.096C160.827 353.096 160.299 352.968 159.843 352.712C159.395 352.448 159.047 352.08 158.799 351.608C158.551 351.128 158.427 350.576 158.427 349.952V347.648C158.427 347.024 158.551 346.476 158.799 346.004C159.055 345.524 159.411 345.156 159.867 344.9C160.331 344.636 160.863 344.504 161.463 344.504H162.783C163.359 344.504 163.867 344.624 164.307 344.864C164.747 345.096 165.087 345.428 165.327 345.86C165.567 346.284 165.687 346.776 165.687 347.336H164.307C164.307 346.856 164.167 346.472 163.887 346.184C163.607 345.888 163.239 345.74 162.783 345.74H161.463C160.975 345.74 160.579 345.92 160.275 346.28C159.979 346.632 159.831 347.104 159.831 347.696V349.904C159.831 350.496 159.975 350.972 160.263 351.332C160.559 351.684 160.947 351.86 161.427 351.86H162.795C163.259 351.86 163.639 351.696 163.935 351.368C164.231 351.04 164.379 350.62 164.379 350.108V349.7H162.051V348.476H165.759V350.108C165.759 350.692 165.635 351.212 165.387 351.668C165.139 352.116 164.791 352.468 164.343 352.724C163.895 352.972 163.379 353.096 162.795 353.096H161.427ZM171.9 350.924H168.564L167.784 353H166.332L169.596 344.6H170.232C170.664 344.6 170.964 344.812 171.132 345.236L174.132 353H172.668L171.9 350.924ZM168.96 349.748H171.504L170.244 346.34H170.232L168.96 349.748ZM175.307 344.6H176.579L179.411 349.784L182.171 344.6H183.443V353H182.063V347.204L180.083 350.876C179.971 351.068 179.863 351.208 179.759 351.296C179.655 351.376 179.539 351.416 179.411 351.416H179.015L176.675 347.204V353H175.307V344.6ZM186.353 353C186.041 353 185.789 352.908 185.597 352.724C185.413 352.532 185.321 352.284 185.321 351.98V344.6H191.477V345.812H186.725V348.092H191.117V349.316H186.725V351.788H191.477V353H186.353ZM147.186 356.6H151.494C152.198 356.6 152.766 356.8 153.198 357.2C153.63 357.592 153.846 358.112 153.846 358.76V359.912C153.846 360.592 153.618 361.14 153.162 361.556C152.714 361.964 152.122 362.168 151.386 362.168H148.59V365H147.186V356.6ZM151.362 360.944C151.69 360.944 151.95 360.844 152.142 360.644C152.342 360.444 152.442 360.184 152.442 359.864V358.796C152.442 358.5 152.354 358.264 152.178 358.088C152.002 357.912 151.766 357.824 151.47 357.824H148.59V360.944H151.362ZM155.137 356.6H159.469C160.157 356.6 160.713 356.788 161.137 357.164C161.561 357.54 161.773 358.036 161.773 358.652V359.504C161.773 359.92 161.645 360.288 161.389 360.608C161.141 360.92 160.793 361.152 160.345 361.304V361.328C160.601 361.48 160.805 361.676 160.957 361.916C161.117 362.148 161.253 362.452 161.365 362.828L162.037 365H160.585L159.937 362.924C159.833 362.564 159.673 362.288 159.457 362.096C159.241 361.904 158.989 361.808 158.701 361.808H156.541V365H155.137V356.6ZM159.157 360.596C159.525 360.596 159.817 360.496 160.033 360.296C160.257 360.096 160.369 359.836 160.369 359.516V358.688C160.369 358.432 160.285 358.224 160.117 358.064C159.949 357.904 159.725 357.824 159.445 357.824H156.541V360.596H159.157ZM166.189 365.096C165.581 365.096 165.045 364.968 164.581 364.712C164.117 364.448 163.757 364.08 163.501 363.608C163.245 363.128 163.117 362.576 163.117 361.952V359.648C163.117 359.024 163.245 358.476 163.501 358.004C163.757 357.524 164.117 357.156 164.581 356.9C165.045 356.636 165.581 356.504 166.189 356.504H167.461C168.069 356.504 168.605 356.636 169.069 356.9C169.541 357.156 169.905 357.524 170.161 358.004C170.417 358.476 170.545 359.024 170.545 359.648V361.952C170.545 362.576 170.417 363.128 170.161 363.608C169.905 364.08 169.541 364.448 169.069 364.712C168.605 364.968 168.069 365.096 167.461 365.096H166.189ZM167.461 363.86C167.957 363.86 168.361 363.68 168.673 363.32C168.985 362.96 169.141 362.488 169.141 361.904V359.696C169.141 359.112 168.985 358.64 168.673 358.28C168.369 357.92 167.965 357.74 167.461 357.74H166.201C165.697 357.74 165.289 357.92 164.977 358.28C164.673 358.64 164.521 359.112 164.521 359.696V361.904C164.521 362.488 164.673 362.96 164.977 363.32C165.289 363.68 165.697 363.86 166.201 363.86H167.461ZM175.001 365C174.601 365 174.309 364.768 174.125 364.304L171.245 356.6H172.697L175.049 363.248H175.061L177.425 356.6H178.865L175.673 365H175.001ZM180.164 356.6H181.568V365H180.164V356.6ZM184.598 365C184.286 365 184.034 364.908 183.842 364.724C183.658 364.54 183.566 364.296 183.566 363.992V356.6H187.394C188.018 356.6 188.566 356.72 189.038 356.96C189.518 357.192 189.886 357.524 190.142 357.956C190.406 358.388 190.538 358.888 190.538 359.456V361.904C190.538 362.92 190.274 363.692 189.746 364.22C189.226 364.74 188.458 365 187.442 365H184.598ZM187.406 363.764C187.974 363.764 188.402 363.604 188.69 363.284C188.986 362.956 189.134 362.48 189.134 361.856V359.504C189.134 359.008 188.97 358.608 188.642 358.304C188.314 357.992 187.886 357.836 187.358 357.836H184.97V363.764H187.406ZM193.158 365C192.846 365 192.594 364.908 192.402 364.724C192.218 364.532 192.126 364.284 192.126 363.98V356.6H198.282V357.812H193.53V360.092H197.922V361.316H193.53V363.788H198.282V365H193.158ZM199.796 356.6H204.128C204.816 356.6 205.372 356.788 205.796 357.164C206.22 357.54 206.432 358.036 206.432 358.652V359.504C206.432 359.92 206.304 360.288 206.048 360.608C205.8 360.92 205.452 361.152 205.004 361.304V361.328C205.26 361.48 205.464 361.676 205.616 361.916C205.776 362.148 205.912 362.452 206.024 362.828L206.696 365H205.244L204.596 362.924C204.492 362.564 204.332 362.288 204.116 362.096C203.9 361.904 203.648 361.808 203.36 361.808H201.2V365H199.796V356.6ZM203.816 360.596C204.184 360.596 204.476 360.496 204.692 360.296C204.916 360.096 205.028 359.836 205.028 359.516V358.688C205.028 358.432 204.944 358.224 204.776 358.064C204.608 357.904 204.384 357.824 204.104 357.824H201.2V360.596H203.816Z" fill="white"/>
<rect x="126.688" y="325.5" width="100" height="51" rx="15.5" stroke="white" stroke-opacity="0.1"/>
<rect x="251.182" y="325" width="101" height="52" rx="16" fill="white" fill-opacity="0.05"/>
<path d="M286.42 353.096C285.82 353.096 285.292 352.968 284.836 352.712C284.388 352.448 284.04 352.08 283.792 351.608C283.544 351.128 283.42 350.576 283.42 349.952V347.648C283.42 347.024 283.544 346.476 283.792 346.004C284.048 345.524 284.404 345.156 284.86 344.9C285.324 344.636 285.856 344.504 286.456 344.504H287.776C288.352 344.504 288.86 344.624 289.3 344.864C289.74 345.096 290.08 345.428 290.32 345.86C290.56 346.284 290.68 346.776 290.68 347.336H289.3C289.3 346.856 289.16 346.472 288.88 346.184C288.6 345.888 288.232 345.74 287.776 345.74H286.456C285.968 345.74 285.572 345.92 285.268 346.28C284.972 346.632 284.824 347.104 284.824 347.696V349.904C284.824 350.496 284.968 350.972 285.256 351.332C285.552 351.684 285.94 351.86 286.42 351.86H287.788C288.252 351.86 288.632 351.696 288.928 351.368C289.224 351.04 289.372 350.62 289.372 350.108V349.7H287.044V348.476H290.752V350.108C290.752 350.692 290.628 351.212 290.38 351.668C290.132 352.116 289.784 352.468 289.336 352.724C288.888 352.972 288.372 353.096 287.788 353.096H286.42ZM296.893 350.924H293.557L292.777 353H291.325L294.589 344.6H295.225C295.657 344.6 295.957 344.812 296.125 345.236L299.125 353H297.661L296.893 350.924ZM293.953 349.748H296.497L295.237 346.34H295.225L293.953 349.748ZM300.3 344.6H301.572L304.404 349.784L307.164 344.6H308.436V353H307.056V347.204L305.076 350.876C304.964 351.068 304.856 351.208 304.752 351.296C304.648 351.376 304.532 351.416 304.404 351.416H304.008L301.668 347.204V353H300.3V344.6ZM311.346 353C311.034 353 310.782 352.908 310.59 352.724C310.406 352.532 310.314 352.284 310.314 351.98V344.6H316.47V345.812H311.718V348.092H316.11V349.316H311.718V351.788H316.47V353H311.346ZM272.179 356.6H276.487C277.191 356.6 277.759 356.8 278.191 357.2C278.623 357.592 278.839 358.112 278.839 358.76V359.912C278.839 360.592 278.611 361.14 278.155 361.556C277.707 361.964 277.115 362.168 276.379 362.168H273.583V365H272.179V356.6ZM276.355 360.944C276.683 360.944 276.943 360.844 277.135 360.644C277.335 360.444 277.435 360.184 277.435 359.864V358.796C277.435 358.5 277.347 358.264 277.171 358.088C276.995 357.912 276.759 357.824 276.463 357.824H273.583V360.944H276.355ZM280.13 356.6H284.462C285.15 356.6 285.706 356.788 286.13 357.164C286.554 357.54 286.766 358.036 286.766 358.652V359.504C286.766 359.92 286.638 360.288 286.382 360.608C286.134 360.92 285.786 361.152 285.338 361.304V361.328C285.594 361.48 285.798 361.676 285.95 361.916C286.11 362.148 286.246 362.452 286.358 362.828L287.03 365H285.578L284.93 362.924C284.826 362.564 284.666 362.288 284.45 362.096C284.234 361.904 283.982 361.808 283.694 361.808H281.534V365H280.13V356.6ZM284.15 360.596C284.518 360.596 284.81 360.496 285.026 360.296C285.25 360.096 285.362 359.836 285.362 359.516V358.688C285.362 358.432 285.278 358.224 285.11 358.064C284.942 357.904 284.718 357.824 284.438 357.824H281.534V360.596H284.15ZM291.183 365.096C290.575 365.096 290.039 364.968 289.575 364.712C289.111 364.448 288.751 364.08 288.495 363.608C288.239 363.128 288.111 362.576 288.111 361.952V359.648C288.111 359.024 288.239 358.476 288.495 358.004C288.751 357.524 289.111 357.156 289.575 356.9C290.039 356.636 290.575 356.504 291.183 356.504H292.455C293.063 356.504 293.599 356.636 294.063 356.9C294.535 357.156 294.899 357.524 295.155 358.004C295.411 358.476 295.539 359.024 295.539 359.648V361.952C295.539 362.576 295.411 363.128 295.155 363.608C294.899 364.08 294.535 364.448 294.063 364.712C293.599 364.968 293.063 365.096 292.455 365.096H291.183ZM292.455 363.86C292.951 363.86 293.355 363.68 293.667 363.32C293.979 362.96 294.135 362.488 294.135 361.904V359.696C294.135 359.112 293.979 358.64 293.667 358.28C293.363 357.92 292.959 357.74 292.455 357.74H291.195C290.691 357.74 290.283 357.92 289.971 358.28C289.667 358.64 289.515 359.112 289.515 359.696V361.904C289.515 362.488 289.667 362.96 289.971 363.32C290.283 363.68 290.691 363.86 291.195 363.86H292.455ZM299.994 365C299.594 365 299.302 364.768 299.118 364.304L296.238 356.6H297.69L300.042 363.248H300.054L302.418 356.6H303.858L300.666 365H299.994ZM305.158 356.6H306.562V365H305.158V356.6ZM309.591 365C309.279 365 309.027 364.908 308.835 364.724C308.651 364.54 308.559 364.296 308.559 363.992V356.6H312.387C313.011 356.6 313.559 356.72 314.031 356.96C314.511 357.192 314.879 357.524 315.135 357.956C315.399 358.388 315.531 358.888 315.531 359.456V361.904C315.531 362.92 315.267 363.692 314.739 364.22C314.219 364.74 313.451 365 312.435 365H309.591ZM312.399 363.764C312.967 363.764 313.395 363.604 313.683 363.284C313.979 362.956 314.127 362.48 314.127 361.856V359.504C314.127 359.008 313.963 358.608 313.635 358.304C313.307 357.992 312.879 357.836 312.351 357.836H309.963V363.764H312.399ZM318.151 365C317.839 365 317.587 364.908 317.395 364.724C317.211 364.532 317.119 364.284 317.119 363.98V356.6H323.275V357.812H318.523V360.092H322.915V361.316H318.523V363.788H323.275V365H318.151ZM324.789 356.6H329.121C329.809 356.6 330.365 356.788 330.789 357.164C331.213 357.54 331.425 358.036 331.425 358.652V359.504C331.425 359.92 331.297 360.288 331.041 360.608C330.793 360.92 330.445 361.152 329.997 361.304V361.328C330.253 361.48 330.457 361.676 330.609 361.916C330.769 362.148 330.905 362.452 331.017 362.828L331.689 365H330.237L329.589 362.924C329.485 362.564 329.325 362.288 329.109 362.096C328.893 361.904 328.641 361.808 328.353 361.808H326.193V365H324.789V356.6ZM328.809 360.596C329.177 360.596 329.469 360.496 329.685 360.296C329.909 360.096 330.021 359.836 330.021 359.516V358.688C330.021 358.432 329.937 358.224 329.769 358.064C329.601 357.904 329.377 357.824 329.097 357.824H326.193V360.596H328.809Z" fill="white"/>
<rect x="251.682" y="325.5" width="100" height="51" rx="15.5" stroke="white" stroke-opacity="0.1"/>
<rect x="0.994141" y="325" width="101" height="52" rx="16" fill="white" fill-opacity="0.05"/>
<path d="M36.2327 353.096C35.6327 353.096 35.1047 352.968 34.6487 352.712C34.2007 352.448 33.8527 352.08 33.6047 351.608C33.3567 351.128 33.2327 350.576 33.2327 349.952V347.648C33.2327 347.024 33.3567 346.476 33.6047 346.004C33.8607 345.524 34.2167 345.156 34.6727 344.9C35.1367 344.636 35.6687 344.504 36.2687 344.504H37.5887C38.1647 344.504 38.6727 344.624 39.1127 344.864C39.5527 345.096 39.8927 345.428 40.1327 345.86C40.3727 346.284 40.4927 346.776 40.4927 347.336H39.1127C39.1127 346.856 38.9727 346.472 38.6927 346.184C38.4127 345.888 38.0447 345.74 37.5887 345.74H36.2687C35.7807 345.74 35.3847 345.92 35.0807 346.28C34.7847 346.632 34.6367 347.104 34.6367 347.696V349.904C34.6367 350.496 34.7807 350.972 35.0687 351.332C35.3647 351.684 35.7527 351.86 36.2327 351.86H37.6007C38.0647 351.86 38.4447 351.696 38.7407 351.368C39.0367 351.04 39.1847 350.62 39.1847 350.108V349.7H36.8567V348.476H40.5647V350.108C40.5647 350.692 40.4407 351.212 40.1927 351.668C39.9447 352.116 39.5967 352.468 39.1487 352.724C38.7007 352.972 38.1847 353.096 37.6007 353.096H36.2327ZM46.7058 350.924H43.3698L42.5898 353H41.1378L44.4018 344.6H45.0378C45.4698 344.6 45.7698 344.812 45.9378 345.236L48.9378 353H47.4738L46.7058 350.924ZM43.7658 349.748H46.3098L45.0498 346.34H45.0378L43.7658 349.748ZM50.1129 344.6H51.3849L54.2169 349.784L56.9769 344.6H58.2489V353H56.8689V347.204L54.8889 350.876C54.7769 351.068 54.6689 351.208 54.5649 351.296C54.4609 351.376 54.3449 351.416 54.2169 351.416H53.8209L51.4809 347.204V353H50.1129V344.6ZM61.1583 353C60.8463 353 60.5943 352.908 60.4023 352.724C60.2183 352.532 60.1263 352.284 60.1263 351.98V344.6H66.2823V345.812H61.5303V348.092H65.9223V349.316H61.5303V351.788H66.2823V353H61.1583ZM21.9916 356.6H26.2996C27.0036 356.6 27.5716 356.8 28.0036 357.2C28.4356 357.592 28.6516 358.112 28.6516 358.76V359.912C28.6516 360.592 28.4236 361.14 27.9676 361.556C27.5196 361.964 26.9276 362.168 26.1916 362.168H23.3956V365H21.9916V356.6ZM26.1676 360.944C26.4956 360.944 26.7556 360.844 26.9476 360.644C27.1476 360.444 27.2476 360.184 27.2476 359.864V358.796C27.2476 358.5 27.1596 358.264 26.9836 358.088C26.8076 357.912 26.5716 357.824 26.2756 357.824H23.3956V360.944H26.1676ZM29.9426 356.6H34.2746C34.9626 356.6 35.5186 356.788 35.9426 357.164C36.3666 357.54 36.5786 358.036 36.5786 358.652V359.504C36.5786 359.92 36.4506 360.288 36.1946 360.608C35.9466 360.92 35.5986 361.152 35.1506 361.304V361.328C35.4066 361.48 35.6106 361.676 35.7626 361.916C35.9226 362.148 36.0586 362.452 36.1706 362.828L36.8426 365H35.3906L34.7426 362.924C34.6386 362.564 34.4786 362.288 34.2626 362.096C34.0466 361.904 33.7946 361.808 33.5066 361.808H31.3466V365H29.9426V356.6ZM33.9626 360.596C34.3306 360.596 34.6226 360.496 34.8386 360.296C35.0626 360.096 35.1746 359.836 35.1746 359.516V358.688C35.1746 358.432 35.0906 358.224 34.9226 358.064C34.7546 357.904 34.5306 357.824 34.2506 357.824H31.3466V360.596H33.9626ZM40.995 365.096C40.387 365.096 39.851 364.968 39.387 364.712C38.923 364.448 38.563 364.08 38.307 363.608C38.051 363.128 37.923 362.576 37.923 361.952V359.648C37.923 359.024 38.051 358.476 38.307 358.004C38.563 357.524 38.923 357.156 39.387 356.9C39.851 356.636 40.387 356.504 40.995 356.504H42.267C42.875 356.504 43.411 356.636 43.875 356.9C44.347 357.156 44.711 357.524 44.967 358.004C45.223 358.476 45.351 359.024 45.351 359.648V361.952C45.351 362.576 45.223 363.128 44.967 363.608C44.711 364.08 44.347 364.448 43.875 364.712C43.411 364.968 42.875 365.096 42.267 365.096H40.995ZM42.267 363.86C42.763 363.86 43.167 363.68 43.479 363.32C43.791 362.96 43.947 362.488 43.947 361.904V359.696C43.947 359.112 43.791 358.64 43.479 358.28C43.175 357.92 42.771 357.74 42.267 357.74H41.007C40.503 357.74 40.095 357.92 39.783 358.28C39.479 358.64 39.327 359.112 39.327 359.696V361.904C39.327 362.488 39.479 362.96 39.783 363.32C40.095 363.68 40.503 363.86 41.007 363.86H42.267ZM49.8068 365C49.4068 365 49.1148 364.768 48.9308 364.304L46.0508 356.6H47.5028L49.8548 363.248H49.8668L52.2308 356.6H53.6708L50.4788 365H49.8068ZM54.9701 356.6H56.3741V365H54.9701V356.6ZM59.4033 365C59.0913 365 58.8393 364.908 58.6473 364.724C58.4633 364.54 58.3713 364.296 58.3713 363.992V356.6H62.1993C62.8233 356.6 63.3713 356.72 63.8433 356.96C64.3233 357.192 64.6913 357.524 64.9473 357.956C65.2113 358.388 65.3433 358.888 65.3433 359.456V361.904C65.3433 362.92 65.0793 363.692 64.5513 364.22C64.0313 364.74 63.2633 365 62.2473 365H59.4033ZM62.2113 363.764C62.7793 363.764 63.2073 363.604 63.4953 363.284C63.7913 362.956 63.9393 362.48 63.9393 361.856V359.504C63.9393 359.008 63.7753 358.608 63.4473 358.304C63.1193 357.992 62.6913 357.836 62.1633 357.836H59.7753V363.764H62.2113ZM67.9636 365C67.6516 365 67.3996 364.908 67.2076 364.724C67.0236 364.532 66.9316 364.284 66.9316 363.98V356.6H73.0876V357.812H68.3356V360.092H72.7276V361.316H68.3356V363.788H73.0876V365H67.9636ZM74.6013 356.6H78.9333C79.6213 356.6 80.1773 356.788 80.6013 357.164C81.0253 357.54 81.2373 358.036 81.2373 358.652V359.504C81.2373 359.92 81.1093 360.288 80.8533 360.608C80.6053 360.92 80.2573 361.152 79.8093 361.304V361.328C80.0653 361.48 80.2693 361.676 80.4213 361.916C80.5813 362.148 80.7173 362.452 80.8293 362.828L81.5013 365H80.0493L79.4013 362.924C79.2973 362.564 79.1373 362.288 78.9213 362.096C78.7053 361.904 78.4533 361.808 78.1653 361.808H76.0053V365H74.6013V356.6ZM78.6213 360.596C78.9893 360.596 79.2813 360.496 79.4973 360.296C79.7213 360.096 79.8333 359.836 79.8333 359.516V358.688C79.8333 358.432 79.7493 358.224 79.5813 358.064C79.4133 357.904 79.1893 357.824 78.9093 357.824H76.0053V360.596H78.6213Z" fill="white"/>
<rect x="1.49414" y="325.5" width="100" height="51" rx="15.5" stroke="white" stroke-opacity="0.1"/>
<path d="M176 279.5L175.5 279.5L176 279.5ZM51.6464 319.354C51.8417 319.549 52.1583 319.549 52.3536 319.354L55.5355 316.172C55.7308 315.976 55.7308 315.66 55.5355 315.464C55.3403 315.269 55.0237 315.269 54.8284 315.464L52 318.293L49.1716 315.464C48.9763 315.269 48.6597 315.269 48.4645 315.464C48.2692 315.66 48.2692 315.976 48.4645 316.172L51.6464 319.354ZM52 311.5L51.5 311.5L52 311.5ZM175.5 272L175.5 279.5L176.5 279.5L176.5 272L175.5 272ZM52.5 319L52.5 311.5L51.5 311.5L51.5 319L52.5 319ZM68 296L160 296L160 295L68 295L68 296ZM52.5 311.5C52.5 302.94 59.4396 296 68 296L68 295C58.8873 295 51.5 302.387 51.5 311.5L52.5 311.5ZM175.5 279.5C175.5 288.06 168.56 295 160 295L160 296C169.113 296 176.5 288.613 176.5 279.5L175.5 279.5Z" fill="white"/>
<path d="M176 279.325L175.5 279.325L176 279.325ZM302.354 319.354C302.158 319.549 301.842 319.549 301.646 319.354L298.464 316.172C298.269 315.976 298.269 315.66 298.464 315.464C298.66 315.269 298.976 315.269 299.172 315.464L302 318.293L304.828 315.464C305.024 315.269 305.34 315.269 305.536 315.464C305.731 315.66 305.731 315.976 305.536 316.172L302.354 319.354ZM302 311.325L301.5 311.325L302 311.325ZM176.5 259L176.5 279.325L175.5 279.325L175.5 259L176.5 259ZM301.5 319L301.5 311.325L302.5 311.325L302.5 319L301.5 319ZM286 295.825L192 295.825L192 294.825L286 294.825L286 295.825ZM301.5 311.325C301.5 302.765 294.56 295.825 286 295.825L286 294.825C295.113 294.825 302.5 302.212 302.5 311.325L301.5 311.325ZM176.5 279.325C176.5 287.885 183.44 294.825 192 294.825L192 295.825C182.887 295.825 175.5 288.438 175.5 279.325L176.5 279.325Z" fill="white"/>
<path d="M176.354 319.354C176.158 319.549 175.842 319.549 175.646 319.354L172.464 316.172C172.269 315.976 172.269 315.66 172.464 315.464C172.66 315.269 172.976 315.269 173.172 315.464L176 318.293L178.828 315.464C179.024 315.269 179.34 315.269 179.536 315.464C179.731 315.66 179.731 315.976 179.536 316.172L176.354 319.354ZM176.5 259L176.5 319L175.5 319L175.5 259L176.5 259Z" fill="white"/>
<path d="M155.641 181.936C155.836 182.132 156.152 182.132 156.348 181.936L159.53 178.754C159.725 178.559 159.725 178.242 159.53 178.047C159.334 177.852 159.018 177.852 158.823 178.047L155.994 180.876L153.166 178.047C152.97 177.852 152.654 177.852 152.459 178.047C152.263 178.242 152.263 178.559 152.459 178.754L155.641 181.936ZM156.494 181.583L156.494 84L155.494 84L155.494 181.583L156.494 181.583Z" fill="white"/>
<rect x="121.494" y="119.5" width="69" height="23" rx="11.5" fill="#121214"/>
<path d="M133.025 136C132.705 136 132.453 135.908 132.269 135.724C132.085 135.54 131.993 135.296 131.993 134.992V127.6H133.397V134.776H137.957V136H133.025ZM144.055 133.924H140.719L139.939 136H138.487L141.751 127.6H142.387C142.819 127.6 143.119 127.812 143.287 128.236L146.287 136H144.823L144.055 133.924ZM141.115 132.748H143.659L142.399 129.34H142.387L141.115 132.748ZM149.941 136.096C149.381 136.096 148.885 135.976 148.453 135.736C148.021 135.488 147.685 135.144 147.445 134.704C147.213 134.256 147.097 133.74 147.097 133.156V127.6H148.501V133.132C148.501 133.652 148.633 134.072 148.897 134.392C149.161 134.704 149.509 134.86 149.941 134.86H151.225C151.665 134.86 152.017 134.704 152.281 134.392C152.553 134.072 152.689 133.652 152.689 133.132V127.6H154.093V133.156C154.093 133.74 153.973 134.256 153.733 134.704C153.493 135.144 153.157 135.488 152.725 135.736C152.293 135.976 151.793 136.096 151.225 136.096H149.941ZM155.916 127.6H157.176L161.424 133.744V127.6H162.792V136H161.52L157.284 129.88V136H155.916V127.6ZM167.4 136.096C166.808 136.096 166.288 135.968 165.84 135.712C165.392 135.448 165.044 135.08 164.796 134.608C164.548 134.128 164.424 133.576 164.424 132.952V130.648C164.424 130.024 164.548 129.476 164.796 129.004C165.052 128.524 165.408 128.156 165.864 127.9C166.32 127.636 166.848 127.504 167.448 127.504H168.72C169.288 127.504 169.792 127.628 170.232 127.876C170.672 128.116 171.012 128.46 171.252 128.908C171.492 129.348 171.612 129.86 171.612 130.444H170.232C170.232 129.932 170.092 129.52 169.812 129.208C169.532 128.896 169.168 128.74 168.72 128.74H167.448C166.96 128.74 166.568 128.92 166.272 129.28C165.976 129.64 165.828 130.112 165.828 130.696V132.904C165.828 133.496 165.972 133.972 166.26 134.332C166.548 134.684 166.928 134.86 167.4 134.86H168.696C169.16 134.86 169.536 134.684 169.824 134.332C170.112 133.98 170.256 133.524 170.256 132.964H171.636C171.636 133.588 171.512 134.136 171.264 134.608C171.024 135.08 170.68 135.448 170.232 135.712C169.792 135.968 169.28 136.096 168.696 136.096H167.4ZM173.049 127.6H174.453V131.164H178.605V127.6H179.997V136H178.605V132.388H174.453V136H173.049V127.6Z" fill="white"/>
<rect x="121.494" y="119.5" width="69" height="23" rx="11.5" stroke="white"/>
</svg>
