<svg width="416" height="383" viewBox="0 0 416 383" fill="none" xmlns="http://www.w3.org/2000/svg">
<path d="M357.354 88.6464C357.158 88.4512 356.842 88.4512 356.646 88.6464L353.464 91.8284C353.269 92.0237 353.269 92.3403 353.464 92.5355C353.66 92.7308 353.976 92.7308 354.172 92.5355L357 89.7071L359.828 92.5355C360.024 92.7308 360.34 92.7308 360.536 92.5355C360.731 92.3403 360.731 92.0237 360.536 91.8284L357.354 88.6464ZM357.5 327V89H356.5V327H357.5Z" fill="white"/>
<path d="M230.354 88.6464C230.158 88.4512 229.842 88.4512 229.646 88.6464L226.464 91.8284C226.269 92.0237 226.269 92.3403 226.464 92.5355C226.66 92.7308 226.976 92.7308 227.172 92.5355L230 89.7071L232.828 92.5355C233.024 92.7308 233.34 92.7308 233.536 92.5355C233.731 92.3403 233.731 92.0237 233.536 91.8284L230.354 88.6464ZM230.5 327V89H229.5V327H230.5Z" fill="white"/>
<path d="M101.354 88.6464C101.158 88.4512 100.842 88.4512 100.646 88.6464L97.4645 91.8284C97.2692 92.0237 97.2692 92.3403 97.4645 92.5355C97.6597 92.7308 97.9763 92.7308 98.1716 92.5355L101 89.7071L103.828 92.5355C104.024 92.7308 104.34 92.7308 104.536 92.5355C104.731 92.3403 104.731 92.0237 104.536 91.8284L101.354 88.6464ZM101.5 327V89H100.5V327H101.5Z" fill="white"/>
<path d="M314.652 323.354C314.848 323.549 315.164 323.549 315.359 323.354L318.541 320.172C318.737 319.976 318.737 319.66 318.541 319.464C318.346 319.269 318.03 319.269 317.834 319.464L315.006 322.293L312.177 319.464C311.982 319.269 311.666 319.269 311.47 319.464C311.275 319.66 311.275 319.976 311.47 320.172L314.652 323.354ZM315.506 323L315.506 81L314.506 81L314.506 323L315.506 323Z" fill="white"/>
<path d="M187.646 323.354C187.842 323.549 188.158 323.549 188.354 323.354L191.536 320.172C191.731 319.976 191.731 319.66 191.536 319.464C191.34 319.269 191.024 319.269 190.828 319.464L188 322.293L185.172 319.464C184.976 319.269 184.66 319.269 184.464 319.464C184.269 319.66 184.269 319.976 184.464 320.172L187.646 323.354ZM188.5 323L188.5 81L187.5 81L187.5 323L188.5 323Z" fill="white"/>
<path d="M58.6523 323.354C58.8476 323.549 59.1642 323.549 59.3594 323.354L62.5414 320.172C62.7367 319.976 62.7367 319.66 62.5414 319.464C62.3461 319.269 62.0295 319.269 61.8343 319.464L59.0059 322.293L56.1774 319.464C55.9822 319.269 55.6656 319.269 55.4703 319.464C55.2751 319.66 55.2751 319.976 55.4703 320.172L58.6523 323.354ZM59.5059 323L59.5059 81L58.5059 81L58.5059 323L59.5059 323Z" fill="white"/>
<rect x="323.5" y="236.5" width="67" height="23" rx="11.5" fill="#121214"/>
<rect x="323.5" y="236.5" width="67" height="23" rx="11.5" fill="white" fill-opacity="0.05"/>
<path d="M335.985 253C335.729 253 335.517 252.932 335.349 252.796C335.181 252.66 335.065 252.432 335.001 252.112L333.537 244.6H334.953L336.069 250.996H336.093L337.953 245.044H338.481C338.857 245.044 339.113 245.26 339.249 245.692L340.845 250.984H340.869L341.985 244.6H343.401L341.925 252.112C341.861 252.416 341.749 252.64 341.589 252.784C341.437 252.928 341.225 253 340.953 253H340.377L338.505 246.904H338.481L336.561 253H335.985ZM348.998 250.924H345.662L344.882 253H343.43L346.694 244.6H347.33C347.762 244.6 348.062 244.812 348.23 245.236L351.23 253H349.766L348.998 250.924ZM346.058 249.748H348.602L347.342 246.34H347.33L346.058 249.748ZM353.367 253C353.047 253 352.795 252.908 352.611 252.724C352.427 252.54 352.335 252.296 352.335 251.992V244.6H353.739V251.776H358.299V253H353.367ZM360.556 253C360.236 253 359.984 252.908 359.8 252.724C359.616 252.54 359.524 252.296 359.524 251.992V244.6H360.928V251.776H365.488V253H360.556ZM367.745 253C367.433 253 367.181 252.908 366.989 252.724C366.805 252.532 366.713 252.284 366.713 251.98V244.6H372.869V245.812H368.117V248.092H372.509V249.316H368.117V251.788H372.869V253H367.745ZM376.447 245.812H373.783V244.6H380.515V245.812H377.851V253H376.447V245.812Z" fill="white"/>
<rect x="323.5" y="236.5" width="67" height="23" rx="11.5" stroke="white"/>
<rect x="196.494" y="236.5" width="67" height="23" rx="11.5" fill="#121214"/>
<rect x="196.494" y="236.5" width="67" height="23" rx="11.5" fill="white" fill-opacity="0.05"/>
<path d="M208.979 253C208.723 253 208.511 252.932 208.343 252.796C208.175 252.66 208.059 252.432 207.995 252.112L206.531 244.6H207.947L209.063 250.996H209.087L210.947 245.044H211.475C211.851 245.044 212.107 245.26 212.243 245.692L213.839 250.984H213.863L214.979 244.6H216.395L214.919 252.112C214.855 252.416 214.743 252.64 214.583 252.784C214.431 252.928 214.219 253 213.947 253H213.371L211.499 246.904H211.475L209.555 253H208.979ZM221.992 250.924H218.656L217.876 253H216.424L219.688 244.6H220.324C220.756 244.6 221.056 244.812 221.224 245.236L224.224 253H222.76L221.992 250.924ZM219.052 249.748H221.596L220.336 246.34H220.324L219.052 249.748ZM226.361 253C226.041 253 225.789 252.908 225.605 252.724C225.421 252.54 225.329 252.296 225.329 251.992V244.6H226.733V251.776H231.293V253H226.361ZM233.55 253C233.23 253 232.978 252.908 232.794 252.724C232.61 252.54 232.518 252.296 232.518 251.992V244.6H233.922V251.776H238.482V253H233.55ZM240.739 253C240.427 253 240.175 252.908 239.983 252.724C239.799 252.532 239.707 252.284 239.707 251.98V244.6H245.863V245.812H241.111V248.092H245.503V249.316H241.111V251.788H245.863V253H240.739ZM249.441 245.812H246.777V244.6H253.509V245.812H250.845V253H249.441V245.812Z" fill="white"/>
<rect x="196.494" y="236.5" width="67" height="23" rx="11.5" stroke="white"/>
<rect x="67.5" y="236.5" width="67" height="23" rx="11.5" fill="#121214"/>
<rect x="67.5" y="236.5" width="67" height="23" rx="11.5" fill="white" fill-opacity="0.05"/>
<path d="M79.985 253C79.729 253 79.517 252.932 79.349 252.796C79.181 252.66 79.065 252.432 79.001 252.112L77.537 244.6H78.953L80.069 250.996H80.093L81.953 245.044H82.481C82.857 245.044 83.113 245.26 83.249 245.692L84.845 250.984H84.869L85.985 244.6H87.401L85.925 252.112C85.861 252.416 85.749 252.64 85.589 252.784C85.437 252.928 85.225 253 84.953 253H84.377L82.505 246.904H82.481L80.561 253H79.985ZM92.9979 250.924H89.6619L88.8819 253H87.4299L90.6939 244.6H91.3299C91.7619 244.6 92.0619 244.812 92.2299 245.236L95.2299 253H93.7659L92.9979 250.924ZM90.0579 249.748H92.6019L91.3419 246.34H91.3299L90.0579 249.748ZM97.3667 253C97.0467 253 96.7947 252.908 96.6107 252.724C96.4267 252.54 96.3347 252.296 96.3347 251.992V244.6H97.7387V251.776H102.299V253H97.3667ZM104.556 253C104.236 253 103.984 252.908 103.8 252.724C103.616 252.54 103.524 252.296 103.524 251.992V244.6H104.928V251.776H109.488V253H104.556ZM111.745 253C111.433 253 111.181 252.908 110.989 252.724C110.805 252.532 110.713 252.284 110.713 251.98V244.6H116.869V245.812H112.117V248.092H116.509V249.316H112.117V251.788H116.869V253H111.745ZM120.447 245.812H117.783V244.6H124.515V245.812H121.851V253H120.447V245.812Z" fill="white"/>
<rect x="67.5" y="236.5" width="67" height="23" rx="11.5" stroke="white"/>
<rect x="280.5" y="163.5" width="69" height="23" rx="11.5" fill="#121214"/>
<rect x="280.5" y="163.5" width="69" height="23" rx="11.5" fill="white" fill-opacity="0.05"/>
<path d="M292.031 180C291.711 180 291.459 179.908 291.275 179.724C291.091 179.54 290.999 179.296 290.999 178.992V171.6H292.403V178.776H296.963V180H292.031ZM303.06 177.924H299.724L298.944 180H297.492L300.756 171.6H301.392C301.824 171.6 302.124 171.812 302.292 172.236L305.292 180H303.828L303.06 177.924ZM300.12 176.748H302.664L301.404 173.34H301.392L300.12 176.748ZM308.947 180.096C308.387 180.096 307.891 179.976 307.459 179.736C307.027 179.488 306.691 179.144 306.451 178.704C306.219 178.256 306.103 177.74 306.103 177.156V171.6H307.507V177.132C307.507 177.652 307.639 178.072 307.903 178.392C308.167 178.704 308.515 178.86 308.947 178.86H310.231C310.671 178.86 311.023 178.704 311.287 178.392C311.559 178.072 311.695 177.652 311.695 177.132V171.6H313.099V177.156C313.099 177.74 312.979 178.256 312.739 178.704C312.499 179.144 312.163 179.488 311.731 179.736C311.299 179.976 310.799 180.096 310.231 180.096H308.947ZM314.922 171.6H316.182L320.43 177.744V171.6H321.798V180H320.526L316.29 173.88V180H314.922V171.6ZM326.406 180.096C325.814 180.096 325.294 179.968 324.846 179.712C324.398 179.448 324.05 179.08 323.802 178.608C323.554 178.128 323.43 177.576 323.43 176.952V174.648C323.43 174.024 323.554 173.476 323.802 173.004C324.058 172.524 324.414 172.156 324.87 171.9C325.326 171.636 325.854 171.504 326.454 171.504H327.726C328.294 171.504 328.798 171.628 329.238 171.876C329.678 172.116 330.018 172.46 330.258 172.908C330.498 173.348 330.618 173.86 330.618 174.444H329.238C329.238 173.932 329.098 173.52 328.818 173.208C328.538 172.896 328.174 172.74 327.726 172.74H326.454C325.966 172.74 325.574 172.92 325.278 173.28C324.982 173.64 324.834 174.112 324.834 174.696V176.904C324.834 177.496 324.978 177.972 325.266 178.332C325.554 178.684 325.934 178.86 326.406 178.86H327.702C328.166 178.86 328.542 178.684 328.83 178.332C329.118 177.98 329.262 177.524 329.262 176.964H330.642C330.642 177.588 330.518 178.136 330.27 178.608C330.03 179.08 329.686 179.448 329.238 179.712C328.798 179.968 328.286 180.096 327.702 180.096H326.406ZM332.055 171.6H333.459V175.164H337.611V171.6H339.003V180H337.611V176.388H333.459V180H332.055V171.6Z" fill="white"/>
<rect x="280.5" y="163.5" width="69" height="23" rx="11.5" stroke="white"/>
<rect x="153.494" y="163.5" width="69" height="23" rx="11.5" fill="#121214"/>
<rect x="153.494" y="163.5" width="69" height="23" rx="11.5" fill="white" fill-opacity="0.05"/>
<path d="M165.025 180C164.705 180 164.453 179.908 164.269 179.724C164.085 179.54 163.993 179.296 163.993 178.992V171.6H165.397V178.776H169.957V180H165.025ZM176.055 177.924H172.719L171.939 180H170.487L173.751 171.6H174.387C174.819 171.6 175.119 171.812 175.287 172.236L178.287 180H176.823L176.055 177.924ZM173.115 176.748H175.659L174.399 173.34H174.387L173.115 176.748ZM181.941 180.096C181.381 180.096 180.885 179.976 180.453 179.736C180.021 179.488 179.685 179.144 179.445 178.704C179.213 178.256 179.097 177.74 179.097 177.156V171.6H180.501V177.132C180.501 177.652 180.633 178.072 180.897 178.392C181.161 178.704 181.509 178.86 181.941 178.86H183.225C183.665 178.86 184.017 178.704 184.281 178.392C184.553 178.072 184.689 177.652 184.689 177.132V171.6H186.093V177.156C186.093 177.74 185.973 178.256 185.733 178.704C185.493 179.144 185.157 179.488 184.725 179.736C184.293 179.976 183.793 180.096 183.225 180.096H181.941ZM187.916 171.6H189.176L193.424 177.744V171.6H194.792V180H193.52L189.284 173.88V180H187.916V171.6ZM199.4 180.096C198.808 180.096 198.288 179.968 197.84 179.712C197.392 179.448 197.044 179.08 196.796 178.608C196.548 178.128 196.424 177.576 196.424 176.952V174.648C196.424 174.024 196.548 173.476 196.796 173.004C197.052 172.524 197.408 172.156 197.864 171.9C198.32 171.636 198.848 171.504 199.448 171.504H200.72C201.288 171.504 201.792 171.628 202.232 171.876C202.672 172.116 203.012 172.46 203.252 172.908C203.492 173.348 203.612 173.86 203.612 174.444H202.232C202.232 173.932 202.092 173.52 201.812 173.208C201.532 172.896 201.168 172.74 200.72 172.74H199.448C198.96 172.74 198.568 172.92 198.272 173.28C197.976 173.64 197.828 174.112 197.828 174.696V176.904C197.828 177.496 197.972 177.972 198.26 178.332C198.548 178.684 198.928 178.86 199.4 178.86H200.696C201.16 178.86 201.536 178.684 201.824 178.332C202.112 177.98 202.256 177.524 202.256 176.964H203.636C203.636 177.588 203.512 178.136 203.264 178.608C203.024 179.08 202.68 179.448 202.232 179.712C201.792 179.968 201.28 180.096 200.696 180.096H199.4ZM205.049 171.6H206.453V175.164H210.605V171.6H211.997V180H210.605V176.388H206.453V180H205.049V171.6Z" fill="white"/>
<rect x="153.494" y="163.5" width="69" height="23" rx="11.5" stroke="white"/>
<rect x="24.5" y="163.5" width="69" height="23" rx="11.5" fill="#121214"/>
<rect x="24.5" y="163.5" width="69" height="23" rx="11.5" fill="white" fill-opacity="0.05"/>
<path d="M36.0312 180C35.7112 180 35.4592 179.908 35.2752 179.724C35.0912 179.54 34.9992 179.296 34.9992 178.992V171.6H36.4032V178.776H40.9632V180H36.0312ZM47.0604 177.924H43.7244L42.9444 180H41.4924L44.7564 171.6H45.3924C45.8244 171.6 46.1244 171.812 46.2924 172.236L49.2924 180H47.8284L47.0604 177.924ZM44.1204 176.748H46.6644L45.4044 173.34H45.3924L44.1204 176.748ZM52.9471 180.096C52.3871 180.096 51.8911 179.976 51.4591 179.736C51.0271 179.488 50.6911 179.144 50.4511 178.704C50.2191 178.256 50.1031 177.74 50.1031 177.156V171.6H51.5071V177.132C51.5071 177.652 51.6391 178.072 51.9031 178.392C52.1671 178.704 52.5151 178.86 52.9471 178.86H54.2311C54.6711 178.86 55.0231 178.704 55.2871 178.392C55.5591 178.072 55.6951 177.652 55.6951 177.132V171.6H57.0991V177.156C57.0991 177.74 56.9791 178.256 56.7391 178.704C56.4991 179.144 56.1631 179.488 55.7311 179.736C55.2991 179.976 54.7991 180.096 54.2311 180.096H52.9471ZM58.9223 171.6H60.1823L64.4303 177.744V171.6H65.7983V180H64.5263L60.2903 173.88V180H58.9223V171.6ZM70.4061 180.096C69.8141 180.096 69.2941 179.968 68.8461 179.712C68.3981 179.448 68.0501 179.08 67.8021 178.608C67.5541 178.128 67.4301 177.576 67.4301 176.952V174.648C67.4301 174.024 67.5541 173.476 67.8021 173.004C68.0581 172.524 68.4141 172.156 68.8701 171.9C69.3261 171.636 69.8541 171.504 70.4541 171.504H71.7261C72.2941 171.504 72.7981 171.628 73.2381 171.876C73.6781 172.116 74.0181 172.46 74.2581 172.908C74.4981 173.348 74.6181 173.86 74.6181 174.444H73.2381C73.2381 173.932 73.0981 173.52 72.8181 173.208C72.5381 172.896 72.1741 172.74 71.7261 172.74H70.4541C69.9661 172.74 69.5741 172.92 69.2781 173.28C68.9821 173.64 68.8341 174.112 68.8341 174.696V176.904C68.8341 177.496 68.9781 177.972 69.2661 178.332C69.5541 178.684 69.9341 178.86 70.4061 178.86H71.7021C72.1661 178.86 72.5421 178.684 72.8301 178.332C73.1181 177.98 73.2621 177.524 73.2621 176.964H74.6421C74.6421 177.588 74.5181 178.136 74.2701 178.608C74.0301 179.08 73.6861 179.448 73.2381 179.712C72.7981 179.968 72.2861 180.096 71.7021 180.096H70.4061ZM76.0547 171.6H77.4587V175.164H81.6107V171.6H83.0027V180H81.6107V176.388H77.4587V180H76.0547V171.6Z" fill="white"/>
<rect x="24.5" y="163.5" width="69" height="23" rx="11.5" stroke="white"/>
<rect width="416" height="108" rx="16" fill="white" fill-opacity="0.05"/>
<path d="M115.46 42.16C114.46 42.16 113.58 41.9467 112.82 41.52C112.073 41.08 111.493 40.4667 111.08 39.68C110.666 38.88 110.46 37.96 110.46 36.92V33.08C110.46 32.04 110.666 31.1267 111.08 30.34C111.506 29.54 112.1 28.9267 112.86 28.5C113.633 28.06 114.52 27.84 115.52 27.84H117.72C118.68 27.84 119.526 28.04 120.26 28.44C120.993 28.8267 121.56 29.38 121.96 30.1C122.36 30.8067 122.56 31.6267 122.56 32.56H120.26C120.26 31.76 120.026 31.12 119.56 30.64C119.093 30.1467 118.48 29.9 117.72 29.9H115.52C114.706 29.9 114.046 30.2 113.54 30.8C113.046 31.3867 112.8 32.1733 112.8 33.16V36.84C112.8 37.8267 113.04 38.62 113.52 39.22C114.013 39.8067 114.66 40.1 115.46 40.1H117.74C118.513 40.1 119.146 39.8267 119.64 39.28C120.133 38.7333 120.38 38.0333 120.38 37.18V36.5H116.5V34.46H122.68V37.18C122.68 38.1533 122.473 39.02 122.06 39.78C121.646 40.5267 121.066 41.1133 120.32 41.54C119.573 41.9533 118.713 42.16 117.74 42.16H115.46ZM133.315 38.54H127.755L126.455 42H124.035L129.475 28H130.535C131.255 28 131.755 28.3533 132.035 29.06L137.035 42H134.595L133.315 38.54ZM128.415 36.58H132.655L130.555 30.9H130.535L128.415 36.58ZM139.393 28H141.513L146.233 36.64L150.833 28H152.953V42H150.653V32.34L147.353 38.46C147.167 38.78 146.987 39.0133 146.813 39.16C146.64 39.2933 146.447 39.36 146.233 39.36H145.573L141.673 32.34V42H139.393V28ZM156.682 28H159.022V42H156.682V28ZM162.751 28H164.851L171.931 38.24V28H174.211V42H172.091L165.031 31.8V42H162.751V28ZM182.331 42.16C181.331 42.16 180.451 41.9467 179.691 41.52C178.944 41.08 178.364 40.4667 177.951 39.68C177.537 38.88 177.331 37.96 177.331 36.92V33.08C177.331 32.04 177.537 31.1267 177.951 30.34C178.377 29.54 178.971 28.9267 179.731 28.5C180.504 28.06 181.391 27.84 182.391 27.84H184.591C185.551 27.84 186.397 28.04 187.131 28.44C187.864 28.8267 188.431 29.38 188.831 30.1C189.231 30.8067 189.431 31.6267 189.431 32.56H187.131C187.131 31.76 186.897 31.12 186.431 30.64C185.964 30.1467 185.351 29.9 184.591 29.9H182.391C181.577 29.9 180.917 30.2 180.411 30.8C179.917 31.3867 179.671 32.1733 179.671 33.16V36.84C179.671 37.8267 179.911 38.62 180.391 39.22C180.884 39.8067 181.531 40.1 182.331 40.1H184.611C185.384 40.1 186.017 39.8267 186.511 39.28C187.004 38.7333 187.251 38.0333 187.251 37.18V36.5H183.371V34.46H189.551V37.18C189.551 38.1533 189.344 39.02 188.931 39.78C188.517 40.5267 187.937 41.1133 187.191 41.54C186.444 41.9533 185.584 42.16 184.611 42.16H182.331ZM203.699 42.16C202.686 42.16 201.792 41.9467 201.019 41.52C200.246 41.08 199.646 40.4667 199.219 39.68C198.792 38.88 198.579 37.96 198.579 36.92V33.08C198.579 32.04 198.792 31.1267 199.219 30.34C199.646 29.54 200.246 28.9267 201.019 28.5C201.792 28.06 202.686 27.84 203.699 27.84H205.819C206.832 27.84 207.726 28.06 208.499 28.5C209.286 28.9267 209.892 29.54 210.319 30.34C210.746 31.1267 210.959 32.04 210.959 33.08V36.92C210.959 37.96 210.746 38.88 210.319 39.68C209.892 40.4667 209.286 41.08 208.499 41.52C207.726 41.9467 206.832 42.16 205.819 42.16H203.699ZM205.819 40.1C206.646 40.1 207.319 39.8 207.839 39.2C208.359 38.6 208.619 37.8133 208.619 36.84V33.16C208.619 32.1867 208.359 31.4 207.839 30.8C207.332 30.2 206.659 29.9 205.819 29.9H203.719C202.879 29.9 202.199 30.2 201.679 30.8C201.172 31.4 200.919 32.1867 200.919 33.16V36.84C200.919 37.8133 201.172 38.6 201.679 39.2C202.199 39.8 202.879 40.1 203.719 40.1H205.819ZM214.076 28H221.256C222.429 28 223.376 28.3333 224.096 29C224.816 29.6533 225.176 30.52 225.176 31.6V33.52C225.176 34.6533 224.796 35.5667 224.036 36.26C223.289 36.94 222.303 37.28 221.076 37.28H216.416V42H214.076V28ZM221.036 35.24C221.583 35.24 222.016 35.0733 222.336 34.74C222.669 34.4067 222.836 33.9733 222.836 33.44V31.66C222.836 31.1667 222.689 30.7733 222.396 30.48C222.103 30.1867 221.709 30.04 221.216 30.04H216.416V35.24H221.036ZM229.448 42C228.928 42 228.508 41.8467 228.188 41.54C227.881 41.22 227.728 40.8067 227.728 40.3V28H237.988V30.02H230.068V33.82H237.388V35.86H230.068V39.98H237.988V42H229.448ZM240.91 28H248.13C249.277 28 250.204 28.3133 250.91 28.94C251.617 29.5667 251.97 30.3933 251.97 31.42V32.84C251.97 33.5333 251.757 34.1467 251.33 34.68C250.917 35.2 250.337 35.5867 249.59 35.84V35.88C250.017 36.1333 250.357 36.46 250.61 36.86C250.877 37.2467 251.104 37.7533 251.29 38.38L252.41 42H249.99L248.91 38.54C248.737 37.94 248.47 37.48 248.11 37.16C247.75 36.84 247.33 36.68 246.85 36.68H243.25V42H240.91V28ZM247.61 34.66C248.224 34.66 248.71 34.4933 249.07 34.16C249.444 33.8267 249.63 33.3933 249.63 32.86V31.48C249.63 31.0533 249.49 30.7067 249.21 30.44C248.93 30.1733 248.557 30.04 248.09 30.04H243.25V34.66H247.61ZM263.209 38.54H257.649L256.349 42H253.929L259.369 28H260.429C261.149 28 261.649 28.3533 261.929 29.06L266.929 42H264.489L263.209 38.54ZM258.309 36.58H262.549L260.449 30.9H260.429L258.309 36.58ZM270.736 30.02H266.296V28H277.516V30.02H273.076V42H270.736V30.02ZM284.105 42.16C283.091 42.16 282.198 41.9467 281.425 41.52C280.651 41.08 280.051 40.4667 279.625 39.68C279.198 38.88 278.985 37.96 278.985 36.92V33.08C278.985 32.04 279.198 31.1267 279.625 30.34C280.051 29.54 280.651 28.9267 281.425 28.5C282.198 28.06 283.091 27.84 284.105 27.84H286.225C287.238 27.84 288.131 28.06 288.905 28.5C289.691 28.9267 290.298 29.54 290.725 30.34C291.151 31.1267 291.365 32.04 291.365 33.08V36.92C291.365 37.96 291.151 38.88 290.725 39.68C290.298 40.4667 289.691 41.08 288.905 41.52C288.131 41.9467 287.238 42.16 286.225 42.16H284.105ZM286.225 40.1C287.051 40.1 287.725 39.8 288.245 39.2C288.765 38.6 289.025 37.8133 289.025 36.84V33.16C289.025 32.1867 288.765 31.4 288.245 30.8C287.738 30.2 287.065 29.9 286.225 29.9H284.125C283.285 29.9 282.605 30.2 282.085 30.8C281.578 31.4 281.325 32.1867 281.325 33.16V36.84C281.325 37.8133 281.578 38.6 282.085 39.2C282.605 39.8 283.285 40.1 284.125 40.1H286.225ZM294.481 28H301.701C302.848 28 303.775 28.3133 304.481 28.94C305.188 29.5667 305.541 30.3933 305.541 31.42V32.84C305.541 33.5333 305.328 34.1467 304.901 34.68C304.488 35.2 303.908 35.5867 303.161 35.84V35.88C303.588 36.1333 303.928 36.46 304.181 36.86C304.448 37.2467 304.675 37.7533 304.861 38.38L305.981 42H303.561L302.481 38.54C302.308 37.94 302.041 37.48 301.681 37.16C301.321 36.84 300.901 36.68 300.421 36.68H296.821V42H294.481V28ZM301.181 34.66C301.795 34.66 302.281 34.4933 302.641 34.16C303.015 33.8267 303.201 33.3933 303.201 32.86V31.48C303.201 31.0533 303.061 30.7067 302.781 30.44C302.501 30.1733 302.128 30.04 301.661 30.04H296.821V34.66H301.181Z" fill="white"/>
<rect x="24" y="60" width="112" height="24" rx="12" fill="white"/>
<path d="M41.1637 68.6H42.5677V77H41.1637V68.6ZM44.565 68.6H45.825L50.073 74.744V68.6H51.441V77H50.169L45.933 70.88V77H44.565V68.6ZM55.3768 69.812H52.7128V68.6H59.4448V69.812H56.7808V77H55.3768V69.812ZM61.745 77C61.433 77 61.181 76.908 60.989 76.724C60.805 76.532 60.713 76.284 60.713 75.98V68.6H66.869V69.812H62.117V72.092H66.509V73.316H62.117V75.788H66.869V77H61.745ZM71.0723 77.096C70.4723 77.096 69.9443 76.968 69.4883 76.712C69.0403 76.448 68.6923 76.08 68.4443 75.608C68.1963 75.128 68.0723 74.576 68.0723 73.952V71.648C68.0723 71.024 68.1963 70.476 68.4443 70.004C68.7003 69.524 69.0563 69.156 69.5123 68.9C69.9763 68.636 70.5083 68.504 71.1083 68.504H72.4283C73.0043 68.504 73.5123 68.624 73.9523 68.864C74.3923 69.096 74.7323 69.428 74.9723 69.86C75.2123 70.284 75.3323 70.776 75.3323 71.336H73.9523C73.9523 70.856 73.8123 70.472 73.5323 70.184C73.2523 69.888 72.8843 69.74 72.4283 69.74H71.1083C70.6203 69.74 70.2243 69.92 69.9203 70.28C69.6243 70.632 69.4763 71.104 69.4763 71.696V73.904C69.4763 74.496 69.6203 74.972 69.9083 75.332C70.2043 75.684 70.5923 75.86 71.0723 75.86H72.4403C72.9043 75.86 73.2843 75.696 73.5803 75.368C73.8763 75.04 74.0243 74.62 74.0243 74.108V73.7H71.6963V72.476H75.4043V74.108C75.4043 74.692 75.2803 75.212 75.0323 75.668C74.7843 76.116 74.4363 76.468 73.9883 76.724C73.5403 76.972 73.0243 77.096 72.4403 77.096H71.0723ZM76.9898 68.6H81.3218C82.0098 68.6 82.5658 68.788 82.9898 69.164C83.4138 69.54 83.6258 70.036 83.6258 70.652V71.504C83.6258 71.92 83.4978 72.288 83.2418 72.608C82.9938 72.92 82.6458 73.152 82.1978 73.304V73.328C82.4538 73.48 82.6578 73.676 82.8098 73.916C82.9698 74.148 83.1058 74.452 83.2178 74.828L83.8898 77H82.4378L81.7898 74.924C81.6858 74.564 81.5258 74.288 81.3098 74.096C81.0938 73.904 80.8418 73.808 80.5538 73.808H78.3938V77H76.9898V68.6ZM81.0098 72.596C81.3778 72.596 81.6698 72.496 81.8858 72.296C82.1098 72.096 82.2218 71.836 82.2218 71.516V70.688C82.2218 70.432 82.1378 70.224 81.9698 70.064C81.8018 69.904 81.5778 69.824 81.2978 69.824H78.3938V72.596H81.0098ZM90.1292 74.924H86.7932L86.0132 77H84.5612L87.8252 68.6H88.4612C88.8932 68.6 89.1932 68.812 89.3612 69.236L92.3612 77H90.8972L90.1292 74.924ZM87.1892 73.748H89.7332L88.4732 70.34H88.4612L87.1892 73.748ZM94.4049 69.812H91.7409V68.6H98.4729V69.812H95.8089V77H94.4049V69.812ZM99.8611 68.6H101.265V77H99.8611V68.6ZM106.094 77.096C105.486 77.096 104.95 76.968 104.486 76.712C104.022 76.448 103.662 76.08 103.406 75.608C103.15 75.128 103.022 74.576 103.022 73.952V71.648C103.022 71.024 103.15 70.476 103.406 70.004C103.662 69.524 104.022 69.156 104.486 68.9C104.95 68.636 105.486 68.504 106.094 68.504H107.366C107.974 68.504 108.51 68.636 108.974 68.9C109.446 69.156 109.81 69.524 110.066 70.004C110.322 70.476 110.45 71.024 110.45 71.648V73.952C110.45 74.576 110.322 75.128 110.066 75.608C109.81 76.08 109.446 76.448 108.974 76.712C108.51 76.968 107.974 77.096 107.366 77.096H106.094ZM107.366 75.86C107.862 75.86 108.266 75.68 108.578 75.32C108.89 74.96 109.046 74.488 109.046 73.904V71.696C109.046 71.112 108.89 70.64 108.578 70.28C108.274 69.92 107.87 69.74 107.366 69.74H106.106C105.602 69.74 105.194 69.92 104.882 70.28C104.578 70.64 104.426 71.112 104.426 71.696V73.904C104.426 74.488 104.578 74.96 104.882 75.32C105.194 75.68 105.602 75.86 106.106 75.86H107.366ZM112.08 68.6H113.34L117.588 74.744V68.6H118.956V77H117.684L113.448 70.88V77H112.08V68.6Z" fill="#121214"/>
<rect x="152" y="60" width="112" height="24" rx="12" fill="white"/>
<path d="M169.164 68.6H170.568V77H169.164V68.6ZM172.565 68.6H173.825L178.073 74.744V68.6H179.441V77H178.169L173.933 70.88V77H172.565V68.6ZM183.377 69.812H180.713V68.6H187.445V69.812H184.781V77H183.377V69.812ZM189.745 77C189.433 77 189.181 76.908 188.989 76.724C188.805 76.532 188.713 76.284 188.713 75.98V68.6H194.869V69.812H190.117V72.092H194.509V73.316H190.117V75.788H194.869V77H189.745ZM199.072 77.096C198.472 77.096 197.944 76.968 197.488 76.712C197.04 76.448 196.692 76.08 196.444 75.608C196.196 75.128 196.072 74.576 196.072 73.952V71.648C196.072 71.024 196.196 70.476 196.444 70.004C196.7 69.524 197.056 69.156 197.512 68.9C197.976 68.636 198.508 68.504 199.108 68.504H200.428C201.004 68.504 201.512 68.624 201.952 68.864C202.392 69.096 202.732 69.428 202.972 69.86C203.212 70.284 203.332 70.776 203.332 71.336H201.952C201.952 70.856 201.812 70.472 201.532 70.184C201.252 69.888 200.884 69.74 200.428 69.74H199.108C198.62 69.74 198.224 69.92 197.92 70.28C197.624 70.632 197.476 71.104 197.476 71.696V73.904C197.476 74.496 197.62 74.972 197.908 75.332C198.204 75.684 198.592 75.86 199.072 75.86H200.44C200.904 75.86 201.284 75.696 201.58 75.368C201.876 75.04 202.024 74.62 202.024 74.108V73.7H199.696V72.476H203.404V74.108C203.404 74.692 203.28 75.212 203.032 75.668C202.784 76.116 202.436 76.468 201.988 76.724C201.54 76.972 201.024 77.096 200.44 77.096H199.072ZM204.99 68.6H209.322C210.01 68.6 210.566 68.788 210.99 69.164C211.414 69.54 211.626 70.036 211.626 70.652V71.504C211.626 71.92 211.498 72.288 211.242 72.608C210.994 72.92 210.646 73.152 210.198 73.304V73.328C210.454 73.48 210.658 73.676 210.81 73.916C210.97 74.148 211.106 74.452 211.218 74.828L211.89 77H210.438L209.79 74.924C209.686 74.564 209.526 74.288 209.31 74.096C209.094 73.904 208.842 73.808 208.554 73.808H206.394V77H204.99V68.6ZM209.01 72.596C209.378 72.596 209.67 72.496 209.886 72.296C210.11 72.096 210.222 71.836 210.222 71.516V70.688C210.222 70.432 210.138 70.224 209.97 70.064C209.802 69.904 209.578 69.824 209.298 69.824H206.394V72.596H209.01ZM218.129 74.924H214.793L214.013 77H212.561L215.825 68.6H216.461C216.893 68.6 217.193 68.812 217.361 69.236L220.361 77H218.897L218.129 74.924ZM215.189 73.748H217.733L216.473 70.34H216.461L215.189 73.748ZM222.405 69.812H219.741V68.6H226.473V69.812H223.809V77H222.405V69.812ZM227.861 68.6H229.265V77H227.861V68.6ZM234.094 77.096C233.486 77.096 232.95 76.968 232.486 76.712C232.022 76.448 231.662 76.08 231.406 75.608C231.15 75.128 231.022 74.576 231.022 73.952V71.648C231.022 71.024 231.15 70.476 231.406 70.004C231.662 69.524 232.022 69.156 232.486 68.9C232.95 68.636 233.486 68.504 234.094 68.504H235.366C235.974 68.504 236.51 68.636 236.974 68.9C237.446 69.156 237.81 69.524 238.066 70.004C238.322 70.476 238.45 71.024 238.45 71.648V73.952C238.45 74.576 238.322 75.128 238.066 75.608C237.81 76.08 237.446 76.448 236.974 76.712C236.51 76.968 235.974 77.096 235.366 77.096H234.094ZM235.366 75.86C235.862 75.86 236.266 75.68 236.578 75.32C236.89 74.96 237.046 74.488 237.046 73.904V71.696C237.046 71.112 236.89 70.64 236.578 70.28C236.274 69.92 235.87 69.74 235.366 69.74H234.106C233.602 69.74 233.194 69.92 232.882 70.28C232.578 70.64 232.426 71.112 232.426 71.696V73.904C232.426 74.488 232.578 74.96 232.882 75.32C233.194 75.68 233.602 75.86 234.106 75.86H235.366ZM240.08 68.6H241.34L245.588 74.744V68.6H246.956V77H245.684L241.448 70.88V77H240.08V68.6Z" fill="#121214"/>
<rect x="280" y="60" width="112" height="24" rx="12" fill="white"/>
<path d="M297.164 68.6H298.568V77H297.164V68.6ZM300.565 68.6H301.825L306.073 74.744V68.6H307.441V77H306.169L301.933 70.88V77H300.565V68.6ZM311.377 69.812H308.713V68.6H315.445V69.812H312.781V77H311.377V69.812ZM317.745 77C317.433 77 317.181 76.908 316.989 76.724C316.805 76.532 316.713 76.284 316.713 75.98V68.6H322.869V69.812H318.117V72.092H322.509V73.316H318.117V75.788H322.869V77H317.745ZM327.072 77.096C326.472 77.096 325.944 76.968 325.488 76.712C325.04 76.448 324.692 76.08 324.444 75.608C324.196 75.128 324.072 74.576 324.072 73.952V71.648C324.072 71.024 324.196 70.476 324.444 70.004C324.7 69.524 325.056 69.156 325.512 68.9C325.976 68.636 326.508 68.504 327.108 68.504H328.428C329.004 68.504 329.512 68.624 329.952 68.864C330.392 69.096 330.732 69.428 330.972 69.86C331.212 70.284 331.332 70.776 331.332 71.336H329.952C329.952 70.856 329.812 70.472 329.532 70.184C329.252 69.888 328.884 69.74 328.428 69.74H327.108C326.62 69.74 326.224 69.92 325.92 70.28C325.624 70.632 325.476 71.104 325.476 71.696V73.904C325.476 74.496 325.62 74.972 325.908 75.332C326.204 75.684 326.592 75.86 327.072 75.86H328.44C328.904 75.86 329.284 75.696 329.58 75.368C329.876 75.04 330.024 74.62 330.024 74.108V73.7H327.696V72.476H331.404V74.108C331.404 74.692 331.28 75.212 331.032 75.668C330.784 76.116 330.436 76.468 329.988 76.724C329.54 76.972 329.024 77.096 328.44 77.096H327.072ZM332.99 68.6H337.322C338.01 68.6 338.566 68.788 338.99 69.164C339.414 69.54 339.626 70.036 339.626 70.652V71.504C339.626 71.92 339.498 72.288 339.242 72.608C338.994 72.92 338.646 73.152 338.198 73.304V73.328C338.454 73.48 338.658 73.676 338.81 73.916C338.97 74.148 339.106 74.452 339.218 74.828L339.89 77H338.438L337.79 74.924C337.686 74.564 337.526 74.288 337.31 74.096C337.094 73.904 336.842 73.808 336.554 73.808H334.394V77H332.99V68.6ZM337.01 72.596C337.378 72.596 337.67 72.496 337.886 72.296C338.11 72.096 338.222 71.836 338.222 71.516V70.688C338.222 70.432 338.138 70.224 337.97 70.064C337.802 69.904 337.578 69.824 337.298 69.824H334.394V72.596H337.01ZM346.129 74.924H342.793L342.013 77H340.561L343.825 68.6H344.461C344.893 68.6 345.193 68.812 345.361 69.236L348.361 77H346.897L346.129 74.924ZM343.189 73.748H345.733L344.473 70.34H344.461L343.189 73.748ZM350.405 69.812H347.741V68.6H354.473V69.812H351.809V77H350.405V69.812ZM355.861 68.6H357.265V77H355.861V68.6ZM362.094 77.096C361.486 77.096 360.95 76.968 360.486 76.712C360.022 76.448 359.662 76.08 359.406 75.608C359.15 75.128 359.022 74.576 359.022 73.952V71.648C359.022 71.024 359.15 70.476 359.406 70.004C359.662 69.524 360.022 69.156 360.486 68.9C360.95 68.636 361.486 68.504 362.094 68.504H363.366C363.974 68.504 364.51 68.636 364.974 68.9C365.446 69.156 365.81 69.524 366.066 70.004C366.322 70.476 366.45 71.024 366.45 71.648V73.952C366.45 74.576 366.322 75.128 366.066 75.608C365.81 76.08 365.446 76.448 364.974 76.712C364.51 76.968 363.974 77.096 363.366 77.096H362.094ZM363.366 75.86C363.862 75.86 364.266 75.68 364.578 75.32C364.89 74.96 365.046 74.488 365.046 73.904V71.696C365.046 71.112 364.89 70.64 364.578 70.28C364.274 69.92 363.87 69.74 363.366 69.74H362.106C361.602 69.74 361.194 69.92 360.882 70.28C360.578 70.64 360.426 71.112 360.426 71.696V73.904C360.426 74.488 360.578 74.96 360.882 75.32C361.194 75.68 361.602 75.86 362.106 75.86H363.366ZM368.08 68.6H369.34L373.588 74.744V68.6H374.956V77H373.684L369.448 70.88V77H368.08V68.6Z" fill="#121214"/>
<rect x="0.5" y="0.5" width="415" height="107" rx="15.5" stroke="white" stroke-opacity="0.1"/>
<rect x="285" y="327" width="101" height="56" rx="16" fill="white" fill-opacity="0.05"/>
<path d="M320.239 354.096C319.639 354.096 319.111 353.968 318.655 353.712C318.207 353.448 317.859 353.08 317.611 352.608C317.363 352.128 317.239 351.576 317.239 350.952V348.648C317.239 348.024 317.363 347.476 317.611 347.004C317.867 346.524 318.223 346.156 318.679 345.9C319.143 345.636 319.675 345.504 320.275 345.504H321.595C322.171 345.504 322.679 345.624 323.119 345.864C323.559 346.096 323.899 346.428 324.139 346.86C324.379 347.284 324.499 347.776 324.499 348.336H323.119C323.119 347.856 322.979 347.472 322.699 347.184C322.419 346.888 322.051 346.74 321.595 346.74H320.275C319.787 346.74 319.391 346.92 319.087 347.28C318.791 347.632 318.643 348.104 318.643 348.696V350.904C318.643 351.496 318.787 351.972 319.075 352.332C319.371 352.684 319.759 352.86 320.239 352.86H321.607C322.071 352.86 322.451 352.696 322.747 352.368C323.043 352.04 323.191 351.62 323.191 351.108V350.7H320.863V349.476H324.571V351.108C324.571 351.692 324.447 352.212 324.199 352.668C323.951 353.116 323.603 353.468 323.155 353.724C322.707 353.972 322.191 354.096 321.607 354.096H320.239ZM330.712 351.924H327.376L326.596 354H325.144L328.408 345.6H329.044C329.476 345.6 329.776 345.812 329.944 346.236L332.944 354H331.48L330.712 351.924ZM327.772 350.748H330.316L329.056 347.34H329.044L327.772 350.748ZM334.119 345.6H335.391L338.223 350.784L340.983 345.6H342.255V354H340.875V348.204L338.895 351.876C338.783 352.068 338.675 352.208 338.571 352.296C338.467 352.376 338.351 352.416 338.223 352.416H337.827L335.487 348.204V354H334.119V345.6ZM345.164 354C344.852 354 344.6 353.908 344.408 353.724C344.224 353.532 344.132 353.284 344.132 352.98V345.6H350.288V346.812H345.536V349.092H349.928V350.316H345.536V352.788H350.288V354H345.164ZM305.997 357.6H310.305C311.009 357.6 311.577 357.8 312.009 358.2C312.441 358.592 312.657 359.112 312.657 359.76V360.912C312.657 361.592 312.429 362.14 311.973 362.556C311.525 362.964 310.933 363.168 310.197 363.168H307.401V366H305.997V357.6ZM310.173 361.944C310.501 361.944 310.761 361.844 310.953 361.644C311.153 361.444 311.253 361.184 311.253 360.864V359.796C311.253 359.5 311.165 359.264 310.989 359.088C310.813 358.912 310.577 358.824 310.281 358.824H307.401V361.944H310.173ZM313.948 357.6H318.28C318.968 357.6 319.524 357.788 319.948 358.164C320.372 358.54 320.584 359.036 320.584 359.652V360.504C320.584 360.92 320.456 361.288 320.2 361.608C319.952 361.92 319.604 362.152 319.156 362.304V362.328C319.412 362.48 319.616 362.676 319.768 362.916C319.928 363.148 320.064 363.452 320.176 363.828L320.848 366H319.396L318.748 363.924C318.644 363.564 318.484 363.288 318.268 363.096C318.052 362.904 317.8 362.808 317.512 362.808H315.352V366H313.948V357.6ZM317.968 361.596C318.336 361.596 318.628 361.496 318.844 361.296C319.068 361.096 319.18 360.836 319.18 360.516V359.688C319.18 359.432 319.096 359.224 318.928 359.064C318.76 358.904 318.536 358.824 318.256 358.824H315.352V361.596H317.968ZM325.001 366.096C324.393 366.096 323.857 365.968 323.393 365.712C322.929 365.448 322.569 365.08 322.313 364.608C322.057 364.128 321.929 363.576 321.929 362.952V360.648C321.929 360.024 322.057 359.476 322.313 359.004C322.569 358.524 322.929 358.156 323.393 357.9C323.857 357.636 324.393 357.504 325.001 357.504H326.273C326.881 357.504 327.417 357.636 327.881 357.9C328.353 358.156 328.717 358.524 328.973 359.004C329.229 359.476 329.357 360.024 329.357 360.648V362.952C329.357 363.576 329.229 364.128 328.973 364.608C328.717 365.08 328.353 365.448 327.881 365.712C327.417 365.968 326.881 366.096 326.273 366.096H325.001ZM326.273 364.86C326.769 364.86 327.173 364.68 327.485 364.32C327.797 363.96 327.953 363.488 327.953 362.904V360.696C327.953 360.112 327.797 359.64 327.485 359.28C327.181 358.92 326.777 358.74 326.273 358.74H325.013C324.509 358.74 324.101 358.92 323.789 359.28C323.485 359.64 323.333 360.112 323.333 360.696V362.904C323.333 363.488 323.485 363.96 323.789 364.32C324.101 364.68 324.509 364.86 325.013 364.86H326.273ZM333.813 366C333.413 366 333.121 365.768 332.937 365.304L330.057 357.6H331.509L333.861 364.248H333.873L336.237 357.6H337.677L334.485 366H333.813ZM338.976 357.6H340.38V366H338.976V357.6ZM343.409 366C343.097 366 342.845 365.908 342.653 365.724C342.469 365.54 342.377 365.296 342.377 364.992V357.6H346.205C346.829 357.6 347.377 357.72 347.849 357.96C348.329 358.192 348.697 358.524 348.953 358.956C349.217 359.388 349.349 359.888 349.349 360.456V362.904C349.349 363.92 349.085 364.692 348.557 365.22C348.037 365.74 347.269 366 346.253 366H343.409ZM346.217 364.764C346.785 364.764 347.213 364.604 347.501 364.284C347.797 363.956 347.945 363.48 347.945 362.856V360.504C347.945 360.008 347.781 359.608 347.453 359.304C347.125 358.992 346.697 358.836 346.169 358.836H343.781V364.764H346.217ZM351.969 366C351.657 366 351.405 365.908 351.213 365.724C351.029 365.532 350.937 365.284 350.937 364.98V357.6H357.093V358.812H352.341V361.092H356.733V362.316H352.341V364.788H357.093V366H351.969ZM358.607 357.6H362.939C363.627 357.6 364.183 357.788 364.607 358.164C365.031 358.54 365.243 359.036 365.243 359.652V360.504C365.243 360.92 365.115 361.288 364.859 361.608C364.611 361.92 364.263 362.152 363.815 362.304V362.328C364.071 362.48 364.275 362.676 364.427 362.916C364.587 363.148 364.723 363.452 364.835 363.828L365.507 366H364.055L363.407 363.924C363.303 363.564 363.143 363.288 362.927 363.096C362.711 362.904 362.459 362.808 362.171 362.808H360.011V366H358.607V357.6ZM362.627 361.596C362.995 361.596 363.287 361.496 363.503 361.296C363.727 361.096 363.839 360.836 363.839 360.516V359.688C363.839 359.432 363.755 359.224 363.587 359.064C363.419 358.904 363.195 358.824 362.915 358.824H360.011V361.596H362.627Z" fill="white"/>
<rect x="285.5" y="327.5" width="100" height="55" rx="15.5" stroke="white" stroke-opacity="0.1"/>
<rect x="157.994" y="327" width="101" height="56" rx="16" fill="white" fill-opacity="0.05"/>
<path d="M193.233 354.096C192.633 354.096 192.105 353.968 191.649 353.712C191.201 353.448 190.853 353.08 190.605 352.608C190.357 352.128 190.233 351.576 190.233 350.952V348.648C190.233 348.024 190.357 347.476 190.605 347.004C190.861 346.524 191.217 346.156 191.673 345.9C192.137 345.636 192.669 345.504 193.269 345.504H194.589C195.165 345.504 195.673 345.624 196.113 345.864C196.553 346.096 196.893 346.428 197.133 346.86C197.373 347.284 197.493 347.776 197.493 348.336H196.113C196.113 347.856 195.973 347.472 195.693 347.184C195.413 346.888 195.045 346.74 194.589 346.74H193.269C192.781 346.74 192.385 346.92 192.081 347.28C191.785 347.632 191.637 348.104 191.637 348.696V350.904C191.637 351.496 191.781 351.972 192.069 352.332C192.365 352.684 192.753 352.86 193.233 352.86H194.601C195.065 352.86 195.445 352.696 195.741 352.368C196.037 352.04 196.185 351.62 196.185 351.108V350.7H193.857V349.476H197.565V351.108C197.565 351.692 197.441 352.212 197.193 352.668C196.945 353.116 196.597 353.468 196.149 353.724C195.701 353.972 195.185 354.096 194.601 354.096H193.233ZM203.706 351.924H200.37L199.59 354H198.138L201.402 345.6H202.038C202.47 345.6 202.77 345.812 202.938 346.236L205.938 354H204.474L203.706 351.924ZM200.766 350.748H203.31L202.05 347.34H202.038L200.766 350.748ZM207.113 345.6H208.385L211.217 350.784L213.977 345.6H215.249V354H213.869V348.204L211.889 351.876C211.777 352.068 211.669 352.208 211.565 352.296C211.461 352.376 211.345 352.416 211.217 352.416H210.821L208.481 348.204V354H207.113V345.6ZM218.158 354C217.846 354 217.594 353.908 217.402 353.724C217.218 353.532 217.126 353.284 217.126 352.98V345.6H223.282V346.812H218.53V349.092H222.922V350.316H218.53V352.788H223.282V354H218.158ZM178.992 357.6H183.3C184.004 357.6 184.572 357.8 185.004 358.2C185.436 358.592 185.652 359.112 185.652 359.76V360.912C185.652 361.592 185.424 362.14 184.968 362.556C184.52 362.964 183.928 363.168 183.192 363.168H180.396V366H178.992V357.6ZM183.168 361.944C183.496 361.944 183.756 361.844 183.948 361.644C184.148 361.444 184.248 361.184 184.248 360.864V359.796C184.248 359.5 184.16 359.264 183.984 359.088C183.808 358.912 183.572 358.824 183.276 358.824H180.396V361.944H183.168ZM186.943 357.6H191.275C191.963 357.6 192.519 357.788 192.943 358.164C193.367 358.54 193.579 359.036 193.579 359.652V360.504C193.579 360.92 193.451 361.288 193.195 361.608C192.947 361.92 192.599 362.152 192.151 362.304V362.328C192.407 362.48 192.611 362.676 192.763 362.916C192.923 363.148 193.059 363.452 193.171 363.828L193.843 366H192.391L191.743 363.924C191.639 363.564 191.479 363.288 191.263 363.096C191.047 362.904 190.795 362.808 190.507 362.808H188.347V366H186.943V357.6ZM190.963 361.596C191.331 361.596 191.623 361.496 191.839 361.296C192.063 361.096 192.175 360.836 192.175 360.516V359.688C192.175 359.432 192.091 359.224 191.923 359.064C191.755 358.904 191.531 358.824 191.251 358.824H188.347V361.596H190.963ZM197.995 366.096C197.387 366.096 196.851 365.968 196.387 365.712C195.923 365.448 195.563 365.08 195.307 364.608C195.051 364.128 194.923 363.576 194.923 362.952V360.648C194.923 360.024 195.051 359.476 195.307 359.004C195.563 358.524 195.923 358.156 196.387 357.9C196.851 357.636 197.387 357.504 197.995 357.504H199.267C199.875 357.504 200.411 357.636 200.875 357.9C201.347 358.156 201.711 358.524 201.967 359.004C202.223 359.476 202.351 360.024 202.351 360.648V362.952C202.351 363.576 202.223 364.128 201.967 364.608C201.711 365.08 201.347 365.448 200.875 365.712C200.411 365.968 199.875 366.096 199.267 366.096H197.995ZM199.267 364.86C199.763 364.86 200.167 364.68 200.479 364.32C200.791 363.96 200.947 363.488 200.947 362.904V360.696C200.947 360.112 200.791 359.64 200.479 359.28C200.175 358.92 199.771 358.74 199.267 358.74H198.007C197.503 358.74 197.095 358.92 196.783 359.28C196.479 359.64 196.327 360.112 196.327 360.696V362.904C196.327 363.488 196.479 363.96 196.783 364.32C197.095 364.68 197.503 364.86 198.007 364.86H199.267ZM206.807 366C206.407 366 206.115 365.768 205.931 365.304L203.051 357.6H204.503L206.855 364.248H206.867L209.231 357.6H210.671L207.479 366H206.807ZM211.97 357.6H213.374V366H211.97V357.6ZM216.403 366C216.091 366 215.839 365.908 215.647 365.724C215.463 365.54 215.371 365.296 215.371 364.992V357.6H219.199C219.823 357.6 220.371 357.72 220.843 357.96C221.323 358.192 221.691 358.524 221.947 358.956C222.211 359.388 222.343 359.888 222.343 360.456V362.904C222.343 363.92 222.079 364.692 221.551 365.22C221.031 365.74 220.263 366 219.247 366H216.403ZM219.211 364.764C219.779 364.764 220.207 364.604 220.495 364.284C220.791 363.956 220.939 363.48 220.939 362.856V360.504C220.939 360.008 220.775 359.608 220.447 359.304C220.119 358.992 219.691 358.836 219.163 358.836H216.775V364.764H219.211ZM224.964 366C224.652 366 224.4 365.908 224.208 365.724C224.024 365.532 223.932 365.284 223.932 364.98V357.6H230.088V358.812H225.336V361.092H229.728V362.316H225.336V364.788H230.088V366H224.964ZM231.601 357.6H235.933C236.621 357.6 237.177 357.788 237.601 358.164C238.025 358.54 238.237 359.036 238.237 359.652V360.504C238.237 360.92 238.109 361.288 237.853 361.608C237.605 361.92 237.257 362.152 236.809 362.304V362.328C237.065 362.48 237.269 362.676 237.421 362.916C237.581 363.148 237.717 363.452 237.829 363.828L238.501 366H237.049L236.401 363.924C236.297 363.564 236.137 363.288 235.921 363.096C235.705 362.904 235.453 362.808 235.165 362.808H233.005V366H231.601V357.6ZM235.621 361.596C235.989 361.596 236.281 361.496 236.497 361.296C236.721 361.096 236.833 360.836 236.833 360.516V359.688C236.833 359.432 236.749 359.224 236.581 359.064C236.413 358.904 236.189 358.824 235.909 358.824H233.005V361.596H235.621Z" fill="white"/>
<rect x="158.494" y="327.5" width="100" height="55" rx="15.5" stroke="white" stroke-opacity="0.1"/>
<rect x="29" y="327" width="101" height="56" rx="16" fill="white" fill-opacity="0.05"/>
<path d="M64.2386 354.096C63.6386 354.096 63.1106 353.968 62.6546 353.712C62.2066 353.448 61.8586 353.08 61.6106 352.608C61.3626 352.128 61.2386 351.576 61.2386 350.952V348.648C61.2386 348.024 61.3626 347.476 61.6106 347.004C61.8666 346.524 62.2226 346.156 62.6786 345.9C63.1426 345.636 63.6746 345.504 64.2746 345.504H65.5946C66.1706 345.504 66.6786 345.624 67.1186 345.864C67.5586 346.096 67.8986 346.428 68.1386 346.86C68.3786 347.284 68.4986 347.776 68.4986 348.336H67.1186C67.1186 347.856 66.9786 347.472 66.6986 347.184C66.4186 346.888 66.0506 346.74 65.5946 346.74H64.2746C63.7866 346.74 63.3906 346.92 63.0866 347.28C62.7906 347.632 62.6426 348.104 62.6426 348.696V350.904C62.6426 351.496 62.7866 351.972 63.0746 352.332C63.3706 352.684 63.7586 352.86 64.2386 352.86H65.6066C66.0706 352.86 66.4506 352.696 66.7466 352.368C67.0426 352.04 67.1906 351.62 67.1906 351.108V350.7H64.8626V349.476H68.5706V351.108C68.5706 351.692 68.4466 352.212 68.1986 352.668C67.9506 353.116 67.6026 353.468 67.1546 353.724C66.7066 353.972 66.1906 354.096 65.6066 354.096H64.2386ZM74.7117 351.924H71.3757L70.5957 354H69.1437L72.4077 345.6H73.0437C73.4757 345.6 73.7757 345.812 73.9437 346.236L76.9437 354H75.4797L74.7117 351.924ZM71.7717 350.748H74.3157L73.0557 347.34H73.0437L71.7717 350.748ZM78.1187 345.6H79.3907L82.2227 350.784L84.9827 345.6H86.2547V354H84.8747V348.204L82.8947 351.876C82.7827 352.068 82.6747 352.208 82.5707 352.296C82.4667 352.376 82.3507 352.416 82.2227 352.416H81.8267L79.4867 348.204V354H78.1187V345.6ZM89.1642 354C88.8522 354 88.6002 353.908 88.4082 353.724C88.2242 353.532 88.1322 353.284 88.1322 352.98V345.6H94.2882V346.812H89.5362V349.092H93.9282V350.316H89.5362V352.788H94.2882V354H89.1642ZM49.9975 357.6H54.3055C55.0095 357.6 55.5775 357.8 56.0095 358.2C56.4415 358.592 56.6575 359.112 56.6575 359.76V360.912C56.6575 361.592 56.4295 362.14 55.9735 362.556C55.5255 362.964 54.9335 363.168 54.1975 363.168H51.4015V366H49.9975V357.6ZM54.1735 361.944C54.5015 361.944 54.7615 361.844 54.9535 361.644C55.1535 361.444 55.2535 361.184 55.2535 360.864V359.796C55.2535 359.5 55.1655 359.264 54.9895 359.088C54.8135 358.912 54.5775 358.824 54.2815 358.824H51.4015V361.944H54.1735ZM57.9484 357.6H62.2804C62.9684 357.6 63.5244 357.788 63.9484 358.164C64.3724 358.54 64.5844 359.036 64.5844 359.652V360.504C64.5844 360.92 64.4564 361.288 64.2004 361.608C63.9524 361.92 63.6044 362.152 63.1564 362.304V362.328C63.4124 362.48 63.6164 362.676 63.7684 362.916C63.9284 363.148 64.0644 363.452 64.1764 363.828L64.8484 366H63.3964L62.7484 363.924C62.6444 363.564 62.4844 363.288 62.2684 363.096C62.0524 362.904 61.8004 362.808 61.5124 362.808H59.3524V366H57.9484V357.6ZM61.9684 361.596C62.3364 361.596 62.6284 361.496 62.8444 361.296C63.0684 361.096 63.1804 360.836 63.1804 360.516V359.688C63.1804 359.432 63.0964 359.224 62.9284 359.064C62.7604 358.904 62.5364 358.824 62.2564 358.824H59.3524V361.596H61.9684ZM69.0009 366.096C68.3929 366.096 67.8569 365.968 67.3929 365.712C66.9289 365.448 66.5689 365.08 66.3129 364.608C66.0569 364.128 65.9289 363.576 65.9289 362.952V360.648C65.9289 360.024 66.0569 359.476 66.3129 359.004C66.5689 358.524 66.9289 358.156 67.3929 357.9C67.8569 357.636 68.3929 357.504 69.0009 357.504H70.2729C70.8809 357.504 71.4169 357.636 71.8809 357.9C72.3529 358.156 72.7169 358.524 72.9729 359.004C73.2289 359.476 73.3569 360.024 73.3569 360.648V362.952C73.3569 363.576 73.2289 364.128 72.9729 364.608C72.7169 365.08 72.3529 365.448 71.8809 365.712C71.4169 365.968 70.8809 366.096 70.2729 366.096H69.0009ZM70.2729 364.86C70.7689 364.86 71.1729 364.68 71.4849 364.32C71.7969 363.96 71.9529 363.488 71.9529 362.904V360.696C71.9529 360.112 71.7969 359.64 71.4849 359.28C71.1809 358.92 70.7769 358.74 70.2729 358.74H69.0129C68.5089 358.74 68.1009 358.92 67.7889 359.28C67.4849 359.64 67.3329 360.112 67.3329 360.696V362.904C67.3329 363.488 67.4849 363.96 67.7889 364.32C68.1009 364.68 68.5089 364.86 69.0129 364.86H70.2729ZM77.8126 366C77.4126 366 77.1206 365.768 76.9366 365.304L74.0566 357.6H75.5086L77.8606 364.248H77.8726L80.2366 357.6H81.6766L78.4846 366H77.8126ZM82.9759 357.6H84.3799V366H82.9759V357.6ZM87.4092 366C87.0972 366 86.8452 365.908 86.6532 365.724C86.4692 365.54 86.3772 365.296 86.3772 364.992V357.6H90.2052C90.8292 357.6 91.3772 357.72 91.8492 357.96C92.3292 358.192 92.6972 358.524 92.9532 358.956C93.2172 359.388 93.3492 359.888 93.3492 360.456V362.904C93.3492 363.92 93.0852 364.692 92.5572 365.22C92.0372 365.74 91.2692 366 90.2532 366H87.4092ZM90.2172 364.764C90.7852 364.764 91.2132 364.604 91.5012 364.284C91.7972 363.956 91.9452 363.48 91.9452 362.856V360.504C91.9452 360.008 91.7812 359.608 91.4532 359.304C91.1252 358.992 90.6972 358.836 90.1692 358.836H87.7812V364.764H90.2172ZM95.9695 366C95.6575 366 95.4055 365.908 95.2135 365.724C95.0295 365.532 94.9375 365.284 94.9375 364.98V357.6H101.093V358.812H96.3415V361.092H100.733V362.316H96.3415V364.788H101.093V366H95.9695ZM102.607 357.6H106.939C107.627 357.6 108.183 357.788 108.607 358.164C109.031 358.54 109.243 359.036 109.243 359.652V360.504C109.243 360.92 109.115 361.288 108.859 361.608C108.611 361.92 108.263 362.152 107.815 362.304V362.328C108.071 362.48 108.275 362.676 108.427 362.916C108.587 363.148 108.723 363.452 108.835 363.828L109.507 366H108.055L107.407 363.924C107.303 363.564 107.143 363.288 106.927 363.096C106.711 362.904 106.459 362.808 106.171 362.808H104.011V366H102.607V357.6ZM106.627 361.596C106.995 361.596 107.287 361.496 107.503 361.296C107.727 361.096 107.839 360.836 107.839 360.516V359.688C107.839 359.432 107.755 359.224 107.587 359.064C107.419 358.904 107.195 358.824 106.915 358.824H104.011V361.596H106.627Z" fill="white"/>
<rect x="29.5" y="327.5" width="100" height="55" rx="15.5" stroke="white" stroke-opacity="0.1"/>
</svg>
