<svg width="409" height="394" viewBox="0 0 409 394" fill="none" xmlns="http://www.w3.org/2000/svg">
<rect x="51" y="0.187012" width="249" height="108.625" rx="16" fill="white" fill-opacity="0.05"/>
<path d="M82.9596 42.347C81.9596 42.347 81.0796 42.1337 80.3196 41.707C79.5729 41.267 78.9929 40.6537 78.5796 39.867C78.1663 39.067 77.9596 38.147 77.9596 37.107V33.267C77.9596 32.227 78.1663 31.3137 78.5796 30.527C79.0063 29.727 79.5996 29.1137 80.3596 28.687C81.1329 28.247 82.0196 28.027 83.0196 28.027H85.2196C86.1796 28.027 87.0263 28.227 87.7596 28.627C88.4929 29.0137 89.0596 29.567 89.4596 30.287C89.8596 30.9937 90.0596 31.8137 90.0596 32.747H87.7596C87.7596 31.947 87.5263 31.307 87.0596 30.827C86.5929 30.3337 85.9796 30.087 85.2196 30.087H83.0196C82.2063 30.087 81.5463 30.387 81.0396 30.987C80.5463 31.5737 80.2996 32.3603 80.2996 33.347V37.027C80.2996 38.0137 80.5396 38.807 81.0196 39.407C81.5129 39.9937 82.1596 40.287 82.9596 40.287H85.2396C86.0129 40.287 86.6463 40.0137 87.1396 39.467C87.6329 38.9203 87.8796 38.2203 87.8796 37.367V36.687H83.9996V34.647H90.1796V37.367C90.1796 38.3403 89.9729 39.207 89.5596 39.967C89.1463 40.7137 88.5663 41.3003 87.8196 41.727C87.0729 42.1403 86.2129 42.347 85.2396 42.347H82.9596ZM100.815 38.727H95.2548L93.9548 42.187H91.5348L96.9748 28.187H98.0348C98.7548 28.187 99.2548 28.5403 99.5348 29.247L104.535 42.187H102.095L100.815 38.727ZM95.9148 36.767H100.155L98.0548 31.087H98.0348L95.9148 36.767ZM106.893 28.187H109.013L113.733 36.827L118.333 28.187H120.453V42.187H118.153V32.527L114.853 38.647C114.667 38.967 114.487 39.2003 114.313 39.347C114.14 39.4803 113.947 39.547 113.733 39.547H113.073L109.173 32.527V42.187H106.893V28.187ZM124.182 28.187H126.522V42.187H124.182V28.187ZM130.251 28.187H132.351L139.431 38.427V28.187H141.711V42.187H139.591L132.531 31.987V42.187H130.251V28.187ZM149.831 42.347C148.831 42.347 147.951 42.1337 147.191 41.707C146.444 41.267 145.864 40.6537 145.451 39.867C145.037 39.067 144.831 38.147 144.831 37.107V33.267C144.831 32.227 145.037 31.3137 145.451 30.527C145.877 29.727 146.471 29.1137 147.231 28.687C148.004 28.247 148.891 28.027 149.891 28.027H152.091C153.051 28.027 153.897 28.227 154.631 28.627C155.364 29.0137 155.931 29.567 156.331 30.287C156.731 30.9937 156.931 31.8137 156.931 32.747H154.631C154.631 31.947 154.397 31.307 153.931 30.827C153.464 30.3337 152.851 30.087 152.091 30.087H149.891C149.077 30.087 148.417 30.387 147.911 30.987C147.417 31.5737 147.171 32.3603 147.171 33.347V37.027C147.171 38.0137 147.411 38.807 147.891 39.407C148.384 39.9937 149.031 40.287 149.831 40.287H152.111C152.884 40.287 153.517 40.0137 154.011 39.467C154.504 38.9203 154.751 38.2203 154.751 37.367V36.687H150.871V34.647H157.051V37.367C157.051 38.3403 156.844 39.207 156.431 39.967C156.017 40.7137 155.437 41.3003 154.691 41.727C153.944 42.1403 153.084 42.347 152.111 42.347H149.831ZM171.199 42.347C170.186 42.347 169.292 42.1337 168.519 41.707C167.746 41.267 167.146 40.6537 166.719 39.867C166.292 39.067 166.079 38.147 166.079 37.107V33.267C166.079 32.227 166.292 31.3137 166.719 30.527C167.146 29.727 167.746 29.1137 168.519 28.687C169.292 28.247 170.186 28.027 171.199 28.027H173.319C174.332 28.027 175.226 28.247 175.999 28.687C176.786 29.1137 177.392 29.727 177.819 30.527C178.246 31.3137 178.459 32.227 178.459 33.267V37.107C178.459 38.147 178.246 39.067 177.819 39.867C177.392 40.6537 176.786 41.267 175.999 41.707C175.226 42.1337 174.332 42.347 173.319 42.347H171.199ZM173.319 40.287C174.146 40.287 174.819 39.987 175.339 39.387C175.859 38.787 176.119 38.0003 176.119 37.027V33.347C176.119 32.3737 175.859 31.587 175.339 30.987C174.832 30.387 174.159 30.087 173.319 30.087H171.219C170.379 30.087 169.699 30.387 169.179 30.987C168.672 31.587 168.419 32.3737 168.419 33.347V37.027C168.419 38.0003 168.672 38.787 169.179 39.387C169.699 39.987 170.379 40.287 171.219 40.287H173.319ZM181.576 28.187H188.756C189.929 28.187 190.876 28.5203 191.596 29.187C192.316 29.8403 192.676 30.707 192.676 31.787V33.707C192.676 34.8403 192.296 35.7537 191.536 36.447C190.789 37.127 189.803 37.467 188.576 37.467H183.916V42.187H181.576V28.187ZM188.536 35.427C189.083 35.427 189.516 35.2603 189.836 34.927C190.169 34.5937 190.336 34.1603 190.336 33.627V31.847C190.336 31.3537 190.189 30.9603 189.896 30.667C189.603 30.3737 189.209 30.227 188.716 30.227H183.916V35.427H188.536ZM196.948 42.187C196.428 42.187 196.008 42.0337 195.688 41.727C195.381 41.407 195.228 40.9937 195.228 40.487V28.187H205.488V30.207H197.568V34.007H204.888V36.047H197.568V40.167H205.488V42.187H196.948ZM208.41 28.187H215.63C216.777 28.187 217.704 28.5003 218.41 29.127C219.117 29.7537 219.47 30.5803 219.47 31.607V33.027C219.47 33.7203 219.257 34.3337 218.83 34.867C218.417 35.387 217.837 35.7737 217.09 36.027V36.067C217.517 36.3203 217.857 36.647 218.11 37.047C218.377 37.4337 218.604 37.9403 218.79 38.567L219.91 42.187H217.49L216.41 38.727C216.237 38.127 215.97 37.667 215.61 37.347C215.25 37.027 214.83 36.867 214.35 36.867H210.75V42.187H208.41V28.187ZM215.11 34.847C215.724 34.847 216.21 34.6803 216.57 34.347C216.944 34.0137 217.13 33.5803 217.13 33.047V31.667C217.13 31.2403 216.99 30.8937 216.71 30.627C216.43 30.3603 216.057 30.227 215.59 30.227H210.75V34.847H215.11ZM230.709 38.727H225.149L223.849 42.187H221.429L226.869 28.187H227.929C228.649 28.187 229.149 28.5403 229.429 29.247L234.429 42.187H231.989L230.709 38.727ZM225.809 36.767H230.049L227.949 31.087H227.929L225.809 36.767ZM238.236 30.207H233.796V28.187H245.016V30.207H240.576V42.187H238.236V30.207ZM251.605 42.347C250.591 42.347 249.698 42.1337 248.925 41.707C248.151 41.267 247.551 40.6537 247.125 39.867C246.698 39.067 246.485 38.147 246.485 37.107V33.267C246.485 32.227 246.698 31.3137 247.125 30.527C247.551 29.727 248.151 29.1137 248.925 28.687C249.698 28.247 250.591 28.027 251.605 28.027H253.725C254.738 28.027 255.631 28.247 256.405 28.687C257.191 29.1137 257.798 29.727 258.225 30.527C258.651 31.3137 258.865 32.227 258.865 33.267V37.107C258.865 38.147 258.651 39.067 258.225 39.867C257.798 40.6537 257.191 41.267 256.405 41.707C255.631 42.1337 254.738 42.347 253.725 42.347H251.605ZM253.725 40.287C254.551 40.287 255.225 39.987 255.745 39.387C256.265 38.787 256.525 38.0003 256.525 37.027V33.347C256.525 32.3737 256.265 31.587 255.745 30.987C255.238 30.387 254.565 30.087 253.725 30.087H251.625C250.785 30.087 250.105 30.387 249.585 30.987C249.078 31.587 248.825 32.3737 248.825 33.347V37.027C248.825 38.0003 249.078 38.787 249.585 39.387C250.105 39.987 250.785 40.287 251.625 40.287H253.725ZM261.981 28.187H269.201C270.348 28.187 271.275 28.5003 271.981 29.127C272.688 29.7537 273.041 30.5803 273.041 31.607V33.027C273.041 33.7203 272.828 34.3337 272.401 34.867C271.988 35.387 271.408 35.7737 270.661 36.027V36.067C271.088 36.3203 271.428 36.647 271.681 37.047C271.948 37.4337 272.175 37.9403 272.361 38.567L273.481 42.187H271.061L269.981 38.727C269.808 38.127 269.541 37.667 269.181 37.347C268.821 37.027 268.401 36.867 267.921 36.867H264.321V42.187H261.981V28.187ZM268.681 34.847C269.295 34.847 269.781 34.6803 270.141 34.347C270.515 34.0137 270.701 33.5803 270.701 33.047V31.667C270.701 31.2403 270.561 30.8937 270.281 30.627C270.001 30.3603 269.628 30.227 269.161 30.227H264.321V34.847H268.681Z" fill="white"/>
<rect x="128.187" y="60.187" width="94.6253" height="24.6253" rx="12.3126" fill="#4DDD89"/>
<path d="M142.28 77.4998C141.88 77.4998 141.588 77.2678 141.404 76.8038L138.524 69.0998H139.976L142.328 75.7478H142.34L144.704 69.0998H146.144L142.952 77.4998H142.28ZM151.094 75.4238H147.758L146.978 77.4998H145.526L148.79 69.0998H149.426C149.858 69.0998 150.158 69.3118 150.326 69.7358L153.326 77.4998H151.862L151.094 75.4238ZM148.154 74.2478H150.698L149.438 70.8398H149.426L148.154 74.2478ZM155.462 77.4998C155.142 77.4998 154.89 77.4078 154.706 77.2238C154.522 77.0398 154.43 76.7958 154.43 76.4918V69.0998H155.834V76.2758H160.394V77.4998H155.462ZM166.84 77.4998L163.912 73.8038L163.024 74.7518V77.4998H161.62V69.0998H163.024V72.9758L166.6 69.0998H168.328L164.86 72.7958L168.544 77.4998H166.84ZM171.969 74.2478L168.861 69.0998H170.385L172.665 72.9638L174.945 69.0998H176.469L173.361 74.2478V77.4998H171.969V74.2478ZM177.568 69.0998H181.9C182.588 69.0998 183.144 69.2878 183.568 69.6638C183.992 70.0398 184.204 70.5358 184.204 71.1518V72.0038C184.204 72.4198 184.076 72.7878 183.82 73.1078C183.572 73.4198 183.224 73.6518 182.776 73.8038V73.8278C183.032 73.9798 183.236 74.1758 183.388 74.4158C183.548 74.6478 183.684 74.9518 183.796 75.3278L184.468 77.4998H183.016L182.368 75.4238C182.264 75.0638 182.104 74.7878 181.888 74.5958C181.672 74.4038 181.42 74.3078 181.132 74.3078H178.972V77.4998H177.568V69.0998ZM181.588 73.0958C181.956 73.0958 182.248 72.9958 182.464 72.7958C182.688 72.5958 182.8 72.3358 182.8 72.0158V71.1878C182.8 70.9318 182.716 70.7238 182.548 70.5638C182.38 70.4038 182.156 70.3238 181.876 70.3238H178.972V73.0958H181.588ZM185.956 69.0998H187.36V77.4998H185.956V69.0998ZM190.389 77.4998C190.077 77.4998 189.825 77.4078 189.633 77.2238C189.449 77.0318 189.357 76.7838 189.357 76.4798V69.0998H195.513V70.3118H190.761V72.5918H195.153V73.8158H190.761V76.2878H195.513V77.4998H190.389Z" fill="#121214"/>
<path fill-rule="evenodd" clip-rule="evenodd" d="M212.813 68.5674L207.637 70.7114C204.648 71.9497 202.691 74.9247 202.691 78.2306V78.8122H200.187V78.2306C200.187 73.8782 202.764 69.9614 206.699 68.331L211.875 66.187L212.813 68.5674Z" fill="#121214"/>
<path fill-rule="evenodd" clip-rule="evenodd" d="M212.797 72.1527L208.908 73.7011C207.101 74.4206 205.911 76.2042 205.911 78.1919V78.8123H203.407V78.1919C203.407 75.145 205.232 72.4109 208.002 71.3079L211.89 69.7596L212.797 72.1527Z" fill="#121214"/>
<path fill-rule="evenodd" clip-rule="evenodd" d="M212.762 75.7422L210.102 76.7084C209.52 76.9199 209.131 77.4844 209.131 78.1176V78.8121H206.627V78.1176C206.627 76.397 207.684 74.8631 209.266 74.2885L211.926 73.3222L212.762 75.7422Z" fill="#121214"/>
<rect x="51.5" y="0.687012" width="248" height="107.625" rx="15.5" stroke="white" stroke-opacity="0.1"/>
<path d="M300 375.91L300 377C300 385.836 307.163 393 316 393L351 393C359.836 393 367 385.836 367 377L367 172.898" stroke="white"/>
<path d="M318 393L192 393C183.163 393 176 385.837 176 377L176 375.5" stroke="white"/>
<path d="M318 393L67 393C58.1635 393 51 385.837 51 377L51 376" stroke="white"/>
<path d="M229.646 73.3536C229.451 73.1583 229.451 72.8417 229.646 72.6465L232.828 69.4645C233.024 69.2692 233.34 69.2692 233.536 69.4645C233.731 69.6597 233.731 69.9763 233.536 70.1716L230.707 73L233.536 75.8284C233.731 76.0237 233.731 76.3403 233.536 76.5355C233.34 76.7308 233.024 76.7308 232.828 76.5355L229.646 73.3536ZM351 73L351 72.5L351 73ZM230 72.5L351 72.5L351 73.5L230 73.5L230 72.5ZM366.5 154L366.5 89L367.5 89L367.5 154L366.5 154ZM351 72.5C360.113 72.5 367.5 79.8873 367.5 89L366.5 89C366.5 80.4396 359.56 73.5 351 73.5L351 72.5Z" fill="url(#paint0_linear_718_1711)"/>
<rect x="125.8" y="320" width="101" height="56" rx="16" fill="white" fill-opacity="0.05"/>
<path d="M161.038 347.096C160.438 347.096 159.91 346.968 159.454 346.712C159.006 346.448 158.658 346.08 158.41 345.608C158.162 345.128 158.038 344.576 158.038 343.952V341.648C158.038 341.024 158.162 340.476 158.41 340.004C158.666 339.524 159.022 339.156 159.478 338.9C159.942 338.636 160.474 338.504 161.074 338.504H162.394C162.97 338.504 163.478 338.624 163.918 338.864C164.358 339.096 164.698 339.428 164.938 339.86C165.178 340.284 165.298 340.776 165.298 341.336H163.918C163.918 340.856 163.778 340.472 163.498 340.184C163.218 339.888 162.85 339.74 162.394 339.74H161.074C160.586 339.74 160.19 339.92 159.886 340.28C159.59 340.632 159.442 341.104 159.442 341.696V343.904C159.442 344.496 159.586 344.972 159.874 345.332C160.17 345.684 160.558 345.86 161.038 345.86H162.406C162.87 345.86 163.25 345.696 163.546 345.368C163.842 345.04 163.99 344.62 163.99 344.108V343.7H161.662V342.476H165.37V344.108C165.37 344.692 165.246 345.212 164.998 345.668C164.75 346.116 164.402 346.468 163.954 346.724C163.506 346.972 162.99 347.096 162.406 347.096H161.038ZM171.511 344.924H168.175L167.395 347H165.943L169.207 338.6H169.843C170.275 338.6 170.575 338.812 170.743 339.236L173.743 347H172.279L171.511 344.924ZM168.571 343.748H171.115L169.855 340.34H169.843L168.571 343.748ZM174.919 338.6H176.191L179.023 343.784L181.783 338.6H183.055V347H181.675V341.204L179.695 344.876C179.583 345.068 179.475 345.208 179.371 345.296C179.267 345.376 179.151 345.416 179.023 345.416H178.627L176.287 341.204V347H174.919V338.6ZM185.964 347C185.652 347 185.4 346.908 185.208 346.724C185.024 346.532 184.932 346.284 184.932 345.98V338.6H191.088V339.812H186.336V342.092H190.728V343.316H186.336V345.788H191.088V347H185.964ZM146.797 350.6H151.105C151.809 350.6 152.377 350.8 152.809 351.2C153.241 351.592 153.457 352.112 153.457 352.76V353.912C153.457 354.592 153.229 355.14 152.773 355.556C152.325 355.964 151.733 356.168 150.997 356.168H148.201V359H146.797V350.6ZM150.973 354.944C151.301 354.944 151.561 354.844 151.753 354.644C151.953 354.444 152.053 354.184 152.053 353.864V352.796C152.053 352.5 151.965 352.264 151.789 352.088C151.613 351.912 151.377 351.824 151.081 351.824H148.201V354.944H150.973ZM154.748 350.6H159.08C159.768 350.6 160.324 350.788 160.748 351.164C161.172 351.54 161.384 352.036 161.384 352.652V353.504C161.384 353.92 161.256 354.288 161 354.608C160.752 354.92 160.404 355.152 159.956 355.304V355.328C160.212 355.48 160.416 355.676 160.568 355.916C160.728 356.148 160.864 356.452 160.976 356.828L161.648 359H160.196L159.548 356.924C159.444 356.564 159.284 356.288 159.068 356.096C158.852 355.904 158.6 355.808 158.312 355.808H156.152V359H154.748V350.6ZM158.768 354.596C159.136 354.596 159.428 354.496 159.644 354.296C159.868 354.096 159.98 353.836 159.98 353.516V352.688C159.98 352.432 159.896 352.224 159.728 352.064C159.56 351.904 159.336 351.824 159.056 351.824H156.152V354.596H158.768ZM165.801 359.096C165.193 359.096 164.657 358.968 164.193 358.712C163.729 358.448 163.369 358.08 163.113 357.608C162.857 357.128 162.729 356.576 162.729 355.952V353.648C162.729 353.024 162.857 352.476 163.113 352.004C163.369 351.524 163.729 351.156 164.193 350.9C164.657 350.636 165.193 350.504 165.801 350.504H167.073C167.681 350.504 168.217 350.636 168.681 350.9C169.153 351.156 169.517 351.524 169.773 352.004C170.029 352.476 170.157 353.024 170.157 353.648V355.952C170.157 356.576 170.029 357.128 169.773 357.608C169.517 358.08 169.153 358.448 168.681 358.712C168.217 358.968 167.681 359.096 167.073 359.096H165.801ZM167.073 357.86C167.569 357.86 167.973 357.68 168.285 357.32C168.597 356.96 168.753 356.488 168.753 355.904V353.696C168.753 353.112 168.597 352.64 168.285 352.28C167.981 351.92 167.577 351.74 167.073 351.74H165.813C165.309 351.74 164.901 351.92 164.589 352.28C164.285 352.64 164.133 353.112 164.133 353.696V355.904C164.133 356.488 164.285 356.96 164.589 357.32C164.901 357.68 165.309 357.86 165.813 357.86H167.073ZM174.612 359C174.212 359 173.92 358.768 173.736 358.304L170.856 350.6H172.308L174.66 357.248H174.672L177.036 350.6H178.476L175.284 359H174.612ZM179.776 350.6H181.18V359H179.776V350.6ZM184.209 359C183.897 359 183.645 358.908 183.453 358.724C183.269 358.54 183.177 358.296 183.177 357.992V350.6H187.005C187.629 350.6 188.177 350.72 188.649 350.96C189.129 351.192 189.497 351.524 189.753 351.956C190.017 352.388 190.149 352.888 190.149 353.456V355.904C190.149 356.92 189.885 357.692 189.357 358.22C188.837 358.74 188.069 359 187.053 359H184.209ZM187.017 357.764C187.585 357.764 188.013 357.604 188.301 357.284C188.597 356.956 188.745 356.48 188.745 355.856V353.504C188.745 353.008 188.581 352.608 188.253 352.304C187.925 351.992 187.497 351.836 186.969 351.836H184.581V357.764H187.017ZM192.769 359C192.457 359 192.205 358.908 192.013 358.724C191.829 358.532 191.737 358.284 191.737 357.98V350.6H197.893V351.812H193.141V354.092H197.533V355.316H193.141V357.788H197.893V359H192.769ZM199.407 350.6H203.739C204.427 350.6 204.983 350.788 205.407 351.164C205.831 351.54 206.043 352.036 206.043 352.652V353.504C206.043 353.92 205.915 354.288 205.659 354.608C205.411 354.92 205.063 355.152 204.615 355.304V355.328C204.871 355.48 205.075 355.676 205.227 355.916C205.387 356.148 205.523 356.452 205.635 356.828L206.307 359H204.855L204.207 356.924C204.103 356.564 203.943 356.288 203.727 356.096C203.511 355.904 203.259 355.808 202.971 355.808H200.811V359H199.407V350.6ZM203.427 354.596C203.795 354.596 204.087 354.496 204.303 354.296C204.527 354.096 204.639 353.836 204.639 353.516V352.688C204.639 352.432 204.555 352.224 204.387 352.064C204.219 351.904 203.995 351.824 203.715 351.824H200.811V354.596H203.427Z" fill="white"/>
<rect x="126.3" y="320.5" width="100" height="55" rx="15.5" stroke="white" stroke-opacity="0.1"/>
<rect x="250.8" y="320" width="101" height="56" rx="16" fill="white" fill-opacity="0.05"/>
<path d="M286.038 347.096C285.438 347.096 284.91 346.968 284.454 346.712C284.006 346.448 283.658 346.08 283.41 345.608C283.162 345.128 283.038 344.576 283.038 343.952V341.648C283.038 341.024 283.162 340.476 283.41 340.004C283.666 339.524 284.022 339.156 284.478 338.9C284.942 338.636 285.474 338.504 286.074 338.504H287.394C287.97 338.504 288.478 338.624 288.918 338.864C289.358 339.096 289.698 339.428 289.938 339.86C290.178 340.284 290.298 340.776 290.298 341.336H288.918C288.918 340.856 288.778 340.472 288.498 340.184C288.218 339.888 287.85 339.74 287.394 339.74H286.074C285.586 339.74 285.19 339.92 284.886 340.28C284.59 340.632 284.442 341.104 284.442 341.696V343.904C284.442 344.496 284.586 344.972 284.874 345.332C285.17 345.684 285.558 345.86 286.038 345.86H287.406C287.87 345.86 288.25 345.696 288.546 345.368C288.842 345.04 288.99 344.62 288.99 344.108V343.7H286.662V342.476H290.37V344.108C290.37 344.692 290.246 345.212 289.998 345.668C289.75 346.116 289.402 346.468 288.954 346.724C288.506 346.972 287.99 347.096 287.406 347.096H286.038ZM296.511 344.924H293.175L292.395 347H290.943L294.207 338.6H294.843C295.275 338.6 295.575 338.812 295.743 339.236L298.743 347H297.279L296.511 344.924ZM293.571 343.748H296.115L294.855 340.34H294.843L293.571 343.748ZM299.919 338.6H301.191L304.023 343.784L306.783 338.6H308.055V347H306.675V341.204L304.695 344.876C304.583 345.068 304.475 345.208 304.371 345.296C304.267 345.376 304.151 345.416 304.023 345.416H303.627L301.287 341.204V347H299.919V338.6ZM310.964 347C310.652 347 310.4 346.908 310.208 346.724C310.024 346.532 309.932 346.284 309.932 345.98V338.6H316.088V339.812H311.336V342.092H315.728V343.316H311.336V345.788H316.088V347H310.964ZM271.797 350.6H276.105C276.809 350.6 277.377 350.8 277.809 351.2C278.241 351.592 278.457 352.112 278.457 352.76V353.912C278.457 354.592 278.229 355.14 277.773 355.556C277.325 355.964 276.733 356.168 275.997 356.168H273.201V359H271.797V350.6ZM275.973 354.944C276.301 354.944 276.561 354.844 276.753 354.644C276.953 354.444 277.053 354.184 277.053 353.864V352.796C277.053 352.5 276.965 352.264 276.789 352.088C276.613 351.912 276.377 351.824 276.081 351.824H273.201V354.944H275.973ZM279.748 350.6H284.08C284.768 350.6 285.324 350.788 285.748 351.164C286.172 351.54 286.384 352.036 286.384 352.652V353.504C286.384 353.92 286.256 354.288 286 354.608C285.752 354.92 285.404 355.152 284.956 355.304V355.328C285.212 355.48 285.416 355.676 285.568 355.916C285.728 356.148 285.864 356.452 285.976 356.828L286.648 359H285.196L284.548 356.924C284.444 356.564 284.284 356.288 284.068 356.096C283.852 355.904 283.6 355.808 283.312 355.808H281.152V359H279.748V350.6ZM283.768 354.596C284.136 354.596 284.428 354.496 284.644 354.296C284.868 354.096 284.98 353.836 284.98 353.516V352.688C284.98 352.432 284.896 352.224 284.728 352.064C284.56 351.904 284.336 351.824 284.056 351.824H281.152V354.596H283.768ZM290.801 359.096C290.193 359.096 289.657 358.968 289.193 358.712C288.729 358.448 288.369 358.08 288.113 357.608C287.857 357.128 287.729 356.576 287.729 355.952V353.648C287.729 353.024 287.857 352.476 288.113 352.004C288.369 351.524 288.729 351.156 289.193 350.9C289.657 350.636 290.193 350.504 290.801 350.504H292.073C292.681 350.504 293.217 350.636 293.681 350.9C294.153 351.156 294.517 351.524 294.773 352.004C295.029 352.476 295.157 353.024 295.157 353.648V355.952C295.157 356.576 295.029 357.128 294.773 357.608C294.517 358.08 294.153 358.448 293.681 358.712C293.217 358.968 292.681 359.096 292.073 359.096H290.801ZM292.073 357.86C292.569 357.86 292.973 357.68 293.285 357.32C293.597 356.96 293.753 356.488 293.753 355.904V353.696C293.753 353.112 293.597 352.64 293.285 352.28C292.981 351.92 292.577 351.74 292.073 351.74H290.813C290.309 351.74 289.901 351.92 289.589 352.28C289.285 352.64 289.133 353.112 289.133 353.696V355.904C289.133 356.488 289.285 356.96 289.589 357.32C289.901 357.68 290.309 357.86 290.813 357.86H292.073ZM299.612 359C299.212 359 298.92 358.768 298.736 358.304L295.856 350.6H297.308L299.66 357.248H299.672L302.036 350.6H303.476L300.284 359H299.612ZM304.776 350.6H306.18V359H304.776V350.6ZM309.209 359C308.897 359 308.645 358.908 308.453 358.724C308.269 358.54 308.177 358.296 308.177 357.992V350.6H312.005C312.629 350.6 313.177 350.72 313.649 350.96C314.129 351.192 314.497 351.524 314.753 351.956C315.017 352.388 315.149 352.888 315.149 353.456V355.904C315.149 356.92 314.885 357.692 314.357 358.22C313.837 358.74 313.069 359 312.053 359H309.209ZM312.017 357.764C312.585 357.764 313.013 357.604 313.301 357.284C313.597 356.956 313.745 356.48 313.745 355.856V353.504C313.745 353.008 313.581 352.608 313.253 352.304C312.925 351.992 312.497 351.836 311.969 351.836H309.581V357.764H312.017ZM317.769 359C317.457 359 317.205 358.908 317.013 358.724C316.829 358.532 316.737 358.284 316.737 357.98V350.6H322.893V351.812H318.141V354.092H322.533V355.316H318.141V357.788H322.893V359H317.769ZM324.407 350.6H328.739C329.427 350.6 329.983 350.788 330.407 351.164C330.831 351.54 331.043 352.036 331.043 352.652V353.504C331.043 353.92 330.915 354.288 330.659 354.608C330.411 354.92 330.063 355.152 329.615 355.304V355.328C329.871 355.48 330.075 355.676 330.227 355.916C330.387 356.148 330.523 356.452 330.635 356.828L331.307 359H329.855L329.207 356.924C329.103 356.564 328.943 356.288 328.727 356.096C328.511 355.904 328.259 355.808 327.971 355.808H325.811V359H324.407V350.6ZM328.427 354.596C328.795 354.596 329.087 354.496 329.303 354.296C329.527 354.096 329.639 353.836 329.639 353.516V352.688C329.639 352.432 329.555 352.224 329.387 352.064C329.219 351.904 328.995 351.824 328.715 351.824H325.811V354.596H328.427Z" fill="white"/>
<rect x="251.3" y="320.5" width="100" height="55" rx="15.5" stroke="white" stroke-opacity="0.1"/>
<rect x="0.799805" y="320" width="101" height="56" rx="16" fill="white" fill-opacity="0.05"/>
<path d="M36.0384 347.096C35.4384 347.096 34.9104 346.968 34.4544 346.712C34.0064 346.448 33.6584 346.08 33.4104 345.608C33.1624 345.128 33.0384 344.576 33.0384 343.952V341.648C33.0384 341.024 33.1624 340.476 33.4104 340.004C33.6664 339.524 34.0224 339.156 34.4784 338.9C34.9424 338.636 35.4744 338.504 36.0744 338.504H37.3944C37.9704 338.504 38.4784 338.624 38.9184 338.864C39.3584 339.096 39.6984 339.428 39.9384 339.86C40.1784 340.284 40.2984 340.776 40.2984 341.336H38.9184C38.9184 340.856 38.7784 340.472 38.4984 340.184C38.2184 339.888 37.8504 339.74 37.3944 339.74H36.0744C35.5864 339.74 35.1904 339.92 34.8864 340.28C34.5904 340.632 34.4424 341.104 34.4424 341.696V343.904C34.4424 344.496 34.5864 344.972 34.8744 345.332C35.1704 345.684 35.5584 345.86 36.0384 345.86H37.4064C37.8704 345.86 38.2504 345.696 38.5464 345.368C38.8424 345.04 38.9904 344.62 38.9904 344.108V343.7H36.6624V342.476H40.3704V344.108C40.3704 344.692 40.2464 345.212 39.9984 345.668C39.7504 346.116 39.4024 346.468 38.9544 346.724C38.5064 346.972 37.9904 347.096 37.4064 347.096H36.0384ZM46.5115 344.924H43.1755L42.3955 347H40.9435L44.2075 338.6H44.8435C45.2755 338.6 45.5755 338.812 45.7435 339.236L48.7435 347H47.2795L46.5115 344.924ZM43.5715 343.748H46.1155L44.8555 340.34H44.8435L43.5715 343.748ZM49.9185 338.6H51.1905L54.0225 343.784L56.7825 338.6H58.0545V347H56.6745V341.204L54.6945 344.876C54.5825 345.068 54.4745 345.208 54.3705 345.296C54.2665 345.376 54.1505 345.416 54.0225 345.416H53.6265L51.2865 341.204V347H49.9185V338.6ZM60.964 347C60.652 347 60.4 346.908 60.208 346.724C60.024 346.532 59.932 346.284 59.932 345.98V338.6H66.088V339.812H61.336V342.092H65.728V343.316H61.336V345.788H66.088V347H60.964ZM21.7973 350.6H26.1053C26.8093 350.6 27.3773 350.8 27.8093 351.2C28.2413 351.592 28.4573 352.112 28.4573 352.76V353.912C28.4573 354.592 28.2293 355.14 27.7733 355.556C27.3253 355.964 26.7333 356.168 25.9973 356.168H23.2013V359H21.7973V350.6ZM25.9733 354.944C26.3013 354.944 26.5613 354.844 26.7533 354.644C26.9533 354.444 27.0533 354.184 27.0533 353.864V352.796C27.0533 352.5 26.9653 352.264 26.7893 352.088C26.6133 351.912 26.3773 351.824 26.0813 351.824H23.2013V354.944H25.9733ZM29.7482 350.6H34.0802C34.7682 350.6 35.3242 350.788 35.7482 351.164C36.1722 351.54 36.3842 352.036 36.3842 352.652V353.504C36.3842 353.92 36.2562 354.288 36.0002 354.608C35.7522 354.92 35.4042 355.152 34.9562 355.304V355.328C35.2122 355.48 35.4162 355.676 35.5682 355.916C35.7282 356.148 35.8642 356.452 35.9762 356.828L36.6482 359H35.1962L34.5482 356.924C34.4442 356.564 34.2842 356.288 34.0682 356.096C33.8522 355.904 33.6002 355.808 33.3122 355.808H31.1522V359H29.7482V350.6ZM33.7682 354.596C34.1362 354.596 34.4282 354.496 34.6442 354.296C34.8682 354.096 34.9802 353.836 34.9802 353.516V352.688C34.9802 352.432 34.8962 352.224 34.7282 352.064C34.5602 351.904 34.3362 351.824 34.0562 351.824H31.1522V354.596H33.7682ZM40.8007 359.096C40.1927 359.096 39.6567 358.968 39.1927 358.712C38.7287 358.448 38.3687 358.08 38.1127 357.608C37.8567 357.128 37.7287 356.576 37.7287 355.952V353.648C37.7287 353.024 37.8567 352.476 38.1127 352.004C38.3687 351.524 38.7287 351.156 39.1927 350.9C39.6567 350.636 40.1927 350.504 40.8007 350.504H42.0727C42.6807 350.504 43.2167 350.636 43.6807 350.9C44.1527 351.156 44.5167 351.524 44.7727 352.004C45.0287 352.476 45.1567 353.024 45.1567 353.648V355.952C45.1567 356.576 45.0287 357.128 44.7727 357.608C44.5167 358.08 44.1527 358.448 43.6807 358.712C43.2167 358.968 42.6807 359.096 42.0727 359.096H40.8007ZM42.0727 357.86C42.5687 357.86 42.9727 357.68 43.2847 357.32C43.5967 356.96 43.7527 356.488 43.7527 355.904V353.696C43.7527 353.112 43.5967 352.64 43.2847 352.28C42.9807 351.92 42.5767 351.74 42.0727 351.74H40.8127C40.3087 351.74 39.9007 351.92 39.5887 352.28C39.2847 352.64 39.1327 353.112 39.1327 353.696V355.904C39.1327 356.488 39.2847 356.96 39.5887 357.32C39.9007 357.68 40.3087 357.86 40.8127 357.86H42.0727ZM49.6124 359C49.2124 359 48.9204 358.768 48.7364 358.304L45.8564 350.6H47.3084L49.6604 357.248H49.6724L52.0364 350.6H53.4764L50.2844 359H49.6124ZM54.7757 350.6H56.1797V359H54.7757V350.6ZM59.209 359C58.897 359 58.645 358.908 58.453 358.724C58.269 358.54 58.177 358.296 58.177 357.992V350.6H62.005C62.629 350.6 63.177 350.72 63.649 350.96C64.129 351.192 64.497 351.524 64.753 351.956C65.017 352.388 65.149 352.888 65.149 353.456V355.904C65.149 356.92 64.885 357.692 64.357 358.22C63.837 358.74 63.069 359 62.053 359H59.209ZM62.017 357.764C62.585 357.764 63.013 357.604 63.301 357.284C63.597 356.956 63.745 356.48 63.745 355.856V353.504C63.745 353.008 63.581 352.608 63.253 352.304C62.925 351.992 62.497 351.836 61.969 351.836H59.581V357.764H62.017ZM67.7693 359C67.4573 359 67.2053 358.908 67.0133 358.724C66.8293 358.532 66.7373 358.284 66.7373 357.98V350.6H72.8933V351.812H68.1413V354.092H72.5333V355.316H68.1413V357.788H72.8933V359H67.7693ZM74.407 350.6H78.739C79.427 350.6 79.983 350.788 80.407 351.164C80.831 351.54 81.043 352.036 81.043 352.652V353.504C81.043 353.92 80.915 354.288 80.659 354.608C80.411 354.92 80.063 355.152 79.615 355.304V355.328C79.871 355.48 80.075 355.676 80.227 355.916C80.387 356.148 80.523 356.452 80.635 356.828L81.307 359H79.855L79.207 356.924C79.103 356.564 78.943 356.288 78.727 356.096C78.511 355.904 78.259 355.808 77.971 355.808H75.811V359H74.407V350.6ZM78.427 354.596C78.795 354.596 79.087 354.496 79.303 354.296C79.527 354.096 79.639 353.836 79.639 353.516V352.688C79.639 352.432 79.555 352.224 79.387 352.064C79.219 351.904 78.995 351.824 78.715 351.824H75.811V354.596H78.427Z" fill="white"/>
<rect x="1.2998" y="320.5" width="100" height="55" rx="15.5" stroke="white" stroke-opacity="0.1"/>
<path d="M175.646 314.354C175.842 314.549 176.158 314.549 176.354 314.354L179.536 311.172C179.731 310.976 179.731 310.66 179.536 310.464C179.34 310.269 179.024 310.269 178.828 310.464L176 313.293L173.172 310.464C172.976 310.269 172.66 310.269 172.464 310.464C172.269 310.66 172.269 310.976 172.464 311.172L175.646 314.354ZM175.5 84.9998L175.5 314L176.5 314L176.5 84.9998L175.5 84.9998Z" fill="url(#paint1_linear_718_1711)"/>
<path d="M176 138L176.5 138L176 138ZM51 170L50.5 170L51 170ZM51.3536 314.354C51.1583 314.549 50.8418 314.549 50.6465 314.354L47.4645 311.172C47.2693 310.976 47.2693 310.66 47.4645 310.464C47.6598 310.269 47.9764 310.269 48.1716 310.464L51.0001 313.293L53.8285 310.464C54.0237 310.269 54.3403 310.269 54.5356 310.464C54.7308 310.66 54.7308 310.976 54.5356 311.172L51.3536 314.354ZM175.5 138L175.5 73L176.5 73L176.5 138L175.5 138ZM160 154.5L67 154.5L67 153.5L160 153.5L160 154.5ZM51.5 170L51.5001 314L50.5001 314L50.5 170L51.5 170ZM67 154.5C58.4396 154.5 51.5 161.44 51.5 170L50.5 170C50.5 160.887 57.8873 153.5 67 153.5L67 154.5ZM176.5 138C176.5 147.113 169.113 154.5 160 154.5L160 153.5C168.56 153.5 175.5 146.56 175.5 138L176.5 138Z" fill="url(#paint2_linear_718_1711)"/>
<path d="M301 170L300.5 170L301 170ZM300.646 314.354C300.842 314.549 301.158 314.549 301.354 314.354L304.536 311.172C304.731 310.977 304.731 310.66 304.536 310.465C304.34 310.27 304.024 310.27 303.828 310.465L301 313.293L298.172 310.465C297.976 310.27 297.66 310.27 297.464 310.465C297.269 310.66 297.269 310.977 297.464 311.172L300.646 314.354ZM192 154.5L285 154.5L285 153.5L192 153.5L192 154.5ZM300.5 170L300.5 314L301.5 314L301.5 170L300.5 170ZM176.5 138L176.5 85L175.5 85L175.5 138L176.5 138ZM285 154.5C293.56 154.5 300.5 161.44 300.5 170L301.5 170C301.5 160.888 294.113 153.5 285 153.5L285 154.5ZM192 153.5C183.44 153.5 176.5 146.561 176.5 138L175.5 138C175.5 147.113 182.887 154.5 192 154.5L192 153.5Z" fill="url(#paint3_linear_718_1711)"/>
<rect x="140.994" y="215.5" width="69" height="23" rx="11.5" fill="#121214"/>
<path d="M152.525 232C152.205 232 151.953 231.908 151.769 231.724C151.585 231.54 151.493 231.296 151.493 230.992V223.6H152.897V230.776H157.457V232H152.525ZM163.555 229.924H160.219L159.439 232H157.987L161.251 223.6H161.887C162.319 223.6 162.619 223.812 162.787 224.236L165.787 232H164.323L163.555 229.924ZM160.615 228.748H163.159L161.899 225.34H161.887L160.615 228.748ZM169.441 232.096C168.881 232.096 168.385 231.976 167.953 231.736C167.521 231.488 167.185 231.144 166.945 230.704C166.713 230.256 166.597 229.74 166.597 229.156V223.6H168.001V229.132C168.001 229.652 168.133 230.072 168.397 230.392C168.661 230.704 169.009 230.86 169.441 230.86H170.725C171.165 230.86 171.517 230.704 171.781 230.392C172.053 230.072 172.189 229.652 172.189 229.132V223.6H173.593V229.156C173.593 229.74 173.473 230.256 173.233 230.704C172.993 231.144 172.657 231.488 172.225 231.736C171.793 231.976 171.293 232.096 170.725 232.096H169.441ZM175.416 223.6H176.676L180.924 229.744V223.6H182.292V232H181.02L176.784 225.88V232H175.416V223.6ZM186.9 232.096C186.308 232.096 185.788 231.968 185.34 231.712C184.892 231.448 184.544 231.08 184.296 230.608C184.048 230.128 183.924 229.576 183.924 228.952V226.648C183.924 226.024 184.048 225.476 184.296 225.004C184.552 224.524 184.908 224.156 185.364 223.9C185.82 223.636 186.348 223.504 186.948 223.504H188.22C188.788 223.504 189.292 223.628 189.732 223.876C190.172 224.116 190.512 224.46 190.752 224.908C190.992 225.348 191.112 225.86 191.112 226.444H189.732C189.732 225.932 189.592 225.52 189.312 225.208C189.032 224.896 188.668 224.74 188.22 224.74H186.948C186.46 224.74 186.068 224.92 185.772 225.28C185.476 225.64 185.328 226.112 185.328 226.696V228.904C185.328 229.496 185.472 229.972 185.76 230.332C186.048 230.684 186.428 230.86 186.9 230.86H188.196C188.66 230.86 189.036 230.684 189.324 230.332C189.612 229.98 189.756 229.524 189.756 228.964H191.136C191.136 229.588 191.012 230.136 190.764 230.608C190.524 231.08 190.18 231.448 189.732 231.712C189.292 231.968 188.78 232.096 188.196 232.096H186.9ZM192.549 223.6H193.953V227.164H198.105V223.6H199.497V232H198.105V228.388H193.953V232H192.549V223.6Z" fill="white"/>
<rect x="140.994" y="215.5" width="69" height="23" rx="11.5" stroke="white"/>
<rect x="266.5" y="215.5" width="69" height="23" rx="11.5" fill="#121214"/>
<path d="M278.031 232C277.711 232 277.459 231.908 277.275 231.724C277.091 231.54 276.999 231.296 276.999 230.992V223.6H278.403V230.776H282.963V232H278.031ZM289.06 229.924H285.724L284.944 232H283.492L286.756 223.6H287.392C287.824 223.6 288.124 223.812 288.292 224.236L291.292 232H289.828L289.06 229.924ZM286.12 228.748H288.664L287.404 225.34H287.392L286.12 228.748ZM294.947 232.096C294.387 232.096 293.891 231.976 293.459 231.736C293.027 231.488 292.691 231.144 292.451 230.704C292.219 230.256 292.103 229.74 292.103 229.156V223.6H293.507V229.132C293.507 229.652 293.639 230.072 293.903 230.392C294.167 230.704 294.515 230.86 294.947 230.86H296.231C296.671 230.86 297.023 230.704 297.287 230.392C297.559 230.072 297.695 229.652 297.695 229.132V223.6H299.099V229.156C299.099 229.74 298.979 230.256 298.739 230.704C298.499 231.144 298.163 231.488 297.731 231.736C297.299 231.976 296.799 232.096 296.231 232.096H294.947ZM300.922 223.6H302.182L306.43 229.744V223.6H307.798V232H306.526L302.29 225.88V232H300.922V223.6ZM312.406 232.096C311.814 232.096 311.294 231.968 310.846 231.712C310.398 231.448 310.05 231.08 309.802 230.608C309.554 230.128 309.43 229.576 309.43 228.952V226.648C309.43 226.024 309.554 225.476 309.802 225.004C310.058 224.524 310.414 224.156 310.87 223.9C311.326 223.636 311.854 223.504 312.454 223.504H313.726C314.294 223.504 314.798 223.628 315.238 223.876C315.678 224.116 316.018 224.46 316.258 224.908C316.498 225.348 316.618 225.86 316.618 226.444H315.238C315.238 225.932 315.098 225.52 314.818 225.208C314.538 224.896 314.174 224.74 313.726 224.74H312.454C311.966 224.74 311.574 224.92 311.278 225.28C310.982 225.64 310.834 226.112 310.834 226.696V228.904C310.834 229.496 310.978 229.972 311.266 230.332C311.554 230.684 311.934 230.86 312.406 230.86H313.702C314.166 230.86 314.542 230.684 314.83 230.332C315.118 229.98 315.262 229.524 315.262 228.964H316.642C316.642 229.588 316.518 230.136 316.27 230.608C316.03 231.08 315.686 231.448 315.238 231.712C314.798 231.968 314.286 232.096 313.702 232.096H312.406ZM318.055 223.6H319.459V227.164H323.611V223.6H325.003V232H323.611V228.388H319.459V232H318.055V223.6Z" fill="white"/>
<rect x="266.5" y="215.5" width="69" height="23" rx="11.5" stroke="white"/>
<rect x="16.5" y="215.5" width="69" height="23" rx="11.5" fill="#121214"/>
<path d="M28.0312 232C27.7112 232 27.4592 231.908 27.2752 231.724C27.0912 231.54 26.9992 231.296 26.9992 230.992V223.6H28.4032V230.776H32.9632V232H28.0312ZM39.0604 229.924H35.7244L34.9444 232H33.4924L36.7564 223.6H37.3924C37.8244 223.6 38.1244 223.812 38.2924 224.236L41.2924 232H39.8284L39.0604 229.924ZM36.1204 228.748H38.6644L37.4044 225.34H37.3924L36.1204 228.748ZM44.9471 232.096C44.3871 232.096 43.8911 231.976 43.4591 231.736C43.0271 231.488 42.6911 231.144 42.4511 230.704C42.2191 230.256 42.1031 229.74 42.1031 229.156V223.6H43.5071V229.132C43.5071 229.652 43.6391 230.072 43.9031 230.392C44.1671 230.704 44.5151 230.86 44.9471 230.86H46.2311C46.6711 230.86 47.0231 230.704 47.2871 230.392C47.5591 230.072 47.6951 229.652 47.6951 229.132V223.6H49.0991V229.156C49.0991 229.74 48.9791 230.256 48.7391 230.704C48.4991 231.144 48.1631 231.488 47.7311 231.736C47.2991 231.976 46.7991 232.096 46.2311 232.096H44.9471ZM50.9223 223.6H52.1823L56.4303 229.744V223.6H57.7983V232H56.5263L52.2903 225.88V232H50.9223V223.6ZM62.4061 232.096C61.8141 232.096 61.2941 231.968 60.8461 231.712C60.3981 231.448 60.0501 231.08 59.8021 230.608C59.5541 230.128 59.4301 229.576 59.4301 228.952V226.648C59.4301 226.024 59.5541 225.476 59.8021 225.004C60.0581 224.524 60.4141 224.156 60.8701 223.9C61.3261 223.636 61.8541 223.504 62.4541 223.504H63.7261C64.2941 223.504 64.7981 223.628 65.2381 223.876C65.6781 224.116 66.0181 224.46 66.2581 224.908C66.4981 225.348 66.6181 225.86 66.6181 226.444H65.2381C65.2381 225.932 65.0981 225.52 64.8181 225.208C64.5381 224.896 64.1741 224.74 63.7261 224.74H62.4541C61.9661 224.74 61.5741 224.92 61.2781 225.28C60.9821 225.64 60.8341 226.112 60.8341 226.696V228.904C60.8341 229.496 60.9781 229.972 61.2661 230.332C61.5541 230.684 61.9341 230.86 62.4061 230.86H63.7021C64.1661 230.86 64.5421 230.684 64.8301 230.332C65.1181 229.98 65.2621 229.524 65.2621 228.964H66.6421C66.6421 229.588 66.5181 230.136 66.2701 230.608C66.0301 231.08 65.6861 231.448 65.2381 231.712C64.7981 231.968 64.2861 232.096 63.7021 232.096H62.4061ZM68.0547 223.6H69.4587V227.164H73.6107V223.6H75.0027V232H73.6107V228.388H69.4587V232H68.0547V223.6Z" fill="white"/>
<rect x="16.5" y="215.5" width="69" height="23" rx="11.5" stroke="white"/>
<rect x="341.501" y="149.398" width="67" height="23" rx="11.5" fill="#121214"/>
<path d="M353.986 165.898C353.73 165.898 353.518 165.83 353.35 165.694C353.182 165.558 353.066 165.33 353.002 165.01L351.538 157.498H352.954L354.07 163.894H354.094L355.954 157.942H356.482C356.858 157.942 357.114 158.158 357.25 158.59L358.846 163.882H358.87L359.986 157.498H361.402L359.926 165.01C359.862 165.314 359.75 165.538 359.59 165.682C359.438 165.826 359.226 165.898 358.954 165.898H358.378L356.506 159.802H356.482L354.562 165.898H353.986ZM366.999 163.822H363.663L362.883 165.898H361.431L364.695 157.498H365.331C365.763 157.498 366.063 157.71 366.231 158.134L369.231 165.898H367.767L366.999 163.822ZM364.059 162.646H366.603L365.343 159.238H365.331L364.059 162.646ZM371.368 165.898C371.048 165.898 370.796 165.806 370.612 165.622C370.428 165.438 370.336 165.194 370.336 164.89V157.498H371.74V164.674H376.3V165.898H371.368ZM378.557 165.898C378.237 165.898 377.985 165.806 377.801 165.622C377.617 165.438 377.525 165.194 377.525 164.89V157.498H378.929V164.674H383.489V165.898H378.557ZM385.746 165.898C385.434 165.898 385.182 165.806 384.99 165.622C384.806 165.43 384.714 165.182 384.714 164.878V157.498H390.87V158.71H386.118V160.99H390.51V162.214H386.118V164.686H390.87V165.898H385.746ZM394.448 158.71H391.784V157.498H398.516V158.71H395.852V165.898H394.448V158.71Z" fill="white"/>
<rect x="341.501" y="149.398" width="67" height="23" rx="11.5" stroke="white"/>
<rect x="337.5" y="144.449" width="67" height="23" rx="11.5" fill="#121214"/>
<path d="M349.986 160.949C349.73 160.949 349.518 160.881 349.35 160.745C349.182 160.609 349.066 160.381 349.002 160.061L347.538 152.549H348.954L350.07 158.945H350.094L351.954 152.993H352.482C352.858 152.993 353.114 153.209 353.25 153.641L354.846 158.933H354.87L355.986 152.549H357.402L355.926 160.061C355.862 160.365 355.75 160.589 355.59 160.733C355.438 160.877 355.226 160.949 354.954 160.949H354.378L352.506 154.853H352.482L350.562 160.949H349.986ZM362.998 158.873H359.662L358.882 160.949H357.43L360.694 152.549H361.33C361.762 152.549 362.062 152.761 362.23 153.185L365.23 160.949H363.766L362.998 158.873ZM360.058 157.697H362.602L361.342 154.289H361.33L360.058 157.697ZM367.367 160.949C367.047 160.949 366.795 160.857 366.611 160.673C366.427 160.489 366.335 160.245 366.335 159.941V152.549H367.739V159.725H372.299V160.949H367.367ZM374.556 160.949C374.236 160.949 373.984 160.857 373.8 160.673C373.616 160.489 373.524 160.245 373.524 159.941V152.549H374.928V159.725H379.488V160.949H374.556ZM381.746 160.949C381.434 160.949 381.182 160.857 380.99 160.673C380.806 160.481 380.714 160.233 380.714 159.929V152.549H386.87V153.761H382.118V156.041H386.51V157.265H382.118V159.737H386.87V160.949H381.746ZM390.447 153.761H387.783V152.549H394.515V153.761H391.851V160.949H390.447V153.761Z" fill="white"/>
<rect x="337.5" y="144.449" width="67" height="23" rx="11.5" stroke="white"/>
<rect x="333.5" y="139.5" width="67" height="23" rx="11.5" fill="#121214"/>
<path d="M345.985 156C345.729 156 345.517 155.932 345.349 155.796C345.181 155.66 345.065 155.432 345.001 155.112L343.537 147.6H344.953L346.069 153.996H346.093L347.953 148.044H348.481C348.857 148.044 349.113 148.26 349.249 148.692L350.845 153.984H350.869L351.985 147.6H353.401L351.925 155.112C351.861 155.416 351.749 155.64 351.589 155.784C351.437 155.928 351.225 156 350.953 156H350.377L348.505 149.904H348.481L346.561 156H345.985ZM358.998 153.924H355.662L354.882 156H353.43L356.694 147.6H357.33C357.762 147.6 358.062 147.812 358.23 148.236L361.23 156H359.766L358.998 153.924ZM356.058 152.748H358.602L357.342 149.34H357.33L356.058 152.748ZM363.367 156C363.047 156 362.795 155.908 362.611 155.724C362.427 155.54 362.335 155.296 362.335 154.992V147.6H363.739V154.776H368.299V156H363.367ZM370.556 156C370.236 156 369.984 155.908 369.8 155.724C369.616 155.54 369.524 155.296 369.524 154.992V147.6H370.928V154.776H375.488V156H370.556ZM377.745 156C377.433 156 377.181 155.908 376.989 155.724C376.805 155.532 376.713 155.284 376.713 154.98V147.6H382.869V148.812H378.117V151.092H382.509V152.316H378.117V154.788H382.869V156H377.745ZM386.447 148.812H383.783V147.6H390.515V148.812H387.851V156H386.447V148.812Z" fill="white"/>
<rect x="333.5" y="139.5" width="67" height="23" rx="11.5" stroke="white"/>
<defs>
<linearGradient id="paint0_linear_718_1711" x1="335.345" y1="81" x2="363.538" y2="134.33" gradientUnits="userSpaceOnUse">
<stop stop-color="#4DDD89"/>
<stop offset="1" stop-color="white"/>
</linearGradient>
<linearGradient id="paint1_linear_718_1711" x1="176" y1="155.5" x2="176" y2="212" gradientUnits="userSpaceOnUse">
<stop stop-color="#4DDD89"/>
<stop offset="1" stop-color="white"/>
</linearGradient>
<linearGradient id="paint2_linear_718_1711" x1="152.5" y1="170" x2="125.452" y2="241.978" gradientUnits="userSpaceOnUse">
<stop stop-color="#4DDD89"/>
<stop offset="1" stop-color="white"/>
</linearGradient>
<linearGradient id="paint3_linear_718_1711" x1="225.5" y1="186" x2="267.793" y2="238.735" gradientUnits="userSpaceOnUse">
<stop stop-color="#4DDD89"/>
<stop offset="1" stop-color="white"/>
</linearGradient>
</defs>
</svg>
