<svg width="77" height="74" viewBox="0 0 77 74" fill="none" xmlns="http://www.w3.org/2000/svg">
  <path fill-rule="evenodd" clip-rule="evenodd"
    d="M76.0723 13.8231L45.1381 26.2735C27.2713 33.4646 15.5744 50.7405 15.5744 69.9381V73.3153H0.609863V69.9381C0.609863 44.6631 16.0097 21.9181 39.5327 12.4505L70.4668 0L76.0723 13.8231Z"
    fill="#4DDD89" />
  <path fill-rule="evenodd" clip-rule="evenodd"
    d="M75.9774 34.6435L52.7356 43.635C41.9354 47.8132 34.8198 58.1707 34.8198 69.7132V73.3159H19.8553V69.7132C19.8553 52.0196 30.7629 36.1424 47.3186 29.7376L70.5604 20.7461L75.9774 34.6435Z"
    fill="#4DDD89" />
  <path fill-rule="evenodd" clip-rule="evenodd"
    d="M75.7683 55.4875L59.8709 61.0985C56.3917 62.3265 54.0664 65.6049 54.0664 69.2821V73.3151H39.1019V69.2821C39.1019 59.2904 45.4201 50.3825 54.8736 47.0458L70.771 41.4348L75.7683 55.4875Z"
    fill="#4DDD89" />
</svg>