<svg width="268" height="75" viewBox="0 0 268 75" fill="none" xmlns="http://www.w3.org/2000/svg">
  <path
    d="M221.431 3.9015C220.558 3.03224 219.453 2.5976 218.115 2.5976C216.777 2.5976 215.672 3.03224 214.799 3.9015C213.927 4.77076 213.49 5.87183 213.49 7.2047C213.49 8.53757 213.927 9.63864 214.799 10.5079C215.672 11.3772 216.777 11.8118 218.115 11.8118C219.453 11.8118 220.558 11.3772 221.431 10.5079C222.303 9.63864 222.739 8.53757 222.739 7.2047C222.739 5.87183 222.303 4.77076 221.431 3.9015Z"
    fill="#4DDD89" />
  <path d="M214.442 16.3873H221.787V61.3159H214.442V16.3873Z" fill="#4DDD89" />
  <path
    d="M253.708 5.49008H259.112V6.71173H257.091V11.5757H255.729V6.71173H253.708V5.49008ZM259.816 5.49008H261.678L263.676 9.92423L265.652 5.49008H267.514V11.5757H266.242V6.98321L264.199 11.5757H263.086L261.088 6.98321V11.5757H259.816V5.49008Z"
    fill="#4DDD89" />
  <path d="M89.9892 0.193176H97.3562V61.3159H89.9892V0.193176Z" fill="#4DDD89" />
  <path fill-rule="evenodd" clip-rule="evenodd"
    d="M185.862 31.7332C185.862 23.275 191.533 16.4182 200.023 16.4182H209.227V23.1574H200.023C195.277 23.1574 192.98 27.1916 192.98 31.7332V61.316H185.862V31.7332Z"
    fill="#4DDD89" />
  <path
    d="M105.304 61.3161V1.62589H112.458V33.6011L117.049 33.6011C119.774 33.5693 122.239 31.8356 123.373 29.3615L129.309 16.4056H137.134L129.848 32.3064C129.587 32.8774 129.29 33.4251 128.961 33.9475C133.049 35.0431 136.505 37.9318 138.254 41.9137L146.717 61.1705H138.946L131.734 44.7578C130.612 42.2049 128.079 40.2807 125.282 40.2807L117.089 40.2807C117.048 40.2811 117.007 40.2812 116.966 40.2812H112.458V61.3161H105.304Z"
    fill="#4DDD89" />
  <path
    d="M163.418 51.7208L149.109 16.4051H141.578L159.63 61.1389L157.919 65.402C157.166 67.2539 155.362 68.4659 153.356 68.4659L146.638 68.4659V74.9999L153.036 75C157.942 75 162.357 72.5929 164.197 68.0629L185.175 16.4056H177.814L163.418 51.7208Z"
    fill="#4DDD89" />
  <path fill-rule="evenodd" clip-rule="evenodd"
    d="M243.544 61.9526C238.591 61.9526 234.368 60.5078 231.362 57.6296C228.355 54.6927 227.095 50.8218 227.095 46.0053L227.095 33.1741C227.095 28.1226 228.598 24.0697 231.605 21.0154C234.612 17.9023 238.591 16.3457 243.544 16.3457L251.408 16.3457C256.124 16.3457 259.927 17.8435 262.816 20.8392C265.705 23.8348 267.15 27.7996 267.15 32.7336V41.0988L234.055 41.093L234.055 45.1628C234.055 48.2171 234.969 50.7135 236.796 52.6518C238.683 54.5314 241.13 55.4712 244.137 55.4712L250.253 55.4712C253.2 55.4712 255.588 54.6783 257.416 53.0924C258.353 52.2489 259.05 51.2663 259.507 50.1446L260.505 47.5728L267.064 50.3573L265.925 53.1783C265.188 54.9981 264.064 56.6012 262.551 57.9878C259.603 60.631 255.712 61.9526 250.877 61.9526L243.544 61.9526ZM260.158 33.3397V34.792L234.055 34.792V33.7802C234.055 30.4321 234.969 27.7302 236.796 25.6744C238.683 23.6186 241.13 22.5906 244.137 22.5906L250.783 22.5907C253.613 22.5907 255.883 23.5892 257.593 25.5863C259.303 27.5246 260.158 30.1091 260.158 33.3397Z"
    fill="#4DDD89" />
  <path fill-rule="evenodd" clip-rule="evenodd"
    d="M58.8644 61.9525C54.4381 61.9525 50.891 60.8048 48.223 58.5093C45.6157 56.2138 44.3121 52.9531 44.3121 49.087V46.8077C44.3121 43.002 45.6764 39.9514 48.4049 37.656C51.1335 35.3605 54.7413 34.2127 59.2282 34.2127H64.6745C66.6754 34.2127 68.737 34.5148 70.8592 35.1188C72.605 35.6158 74.1457 36.2558 75.4811 37.0389V31.2799C75.4811 28.7428 74.6929 26.6889 73.1164 25.1183C71.5399 23.4873 69.448 22.6718 66.8407 22.6718H62.1815C59.5742 22.6718 57.4823 23.2759 55.9058 24.484C55.0172 25.165 54.3791 25.9707 53.9913 26.9012C53.6911 27.6215 52.8225 29.7503 52.8225 29.7503L46.4619 27.1136C46.4619 27.1136 47.1037 25.565 47.6442 24.2238C48.3315 22.5183 49.4559 21.04 51.0172 19.7889C53.8064 17.4934 57.4748 16.3456 62.0224 16.3456H67.2992C71.7862 16.3456 75.3939 17.6746 78.1225 20.3325C80.9117 22.9301 82.3063 26.3733 82.3063 30.6622V50.5102C82.3063 50.576 82.3082 50.6406 82.3125 50.7063C82.3497 51.2804 82.5565 54.2649 82.9455 56.2088C83.3529 58.2443 85.0225 61.323 85.0225 61.323H77.5509L77.3428 60.9795C76.5004 59.589 75.9601 58.038 75.7568 56.4266C74.7047 57.4388 72.6765 59.0789 70.9502 60.0497C68.4815 61.438 66.3723 61.9525 63.9469 61.9525H58.8644ZM71.7688 52.8187C69.5253 54.5705 66.9786 55.4464 64.1288 55.4464H58.8591C56.4337 55.4464 54.4934 54.8121 53.0381 53.5436C51.5829 52.275 50.8553 50.5836 50.8553 48.4693V47.4254C50.8553 45.3715 51.6132 43.7103 53.1291 42.4417C54.7056 41.1732 56.7368 40.5389 59.2229 40.5389H64.6745C66.918 40.5389 69.1008 40.9013 71.223 41.6262C72.9439 42.1501 74.3633 42.8241 75.4811 43.6483V45.9532C75.4811 47.3981 75.2171 48.861 74.3935 50.0504C73.6713 51.0935 72.7963 52.0163 71.7688 52.8187Z"
    fill="#4DDD89" />
  <path
    d="M22.896 52.5845L8.03351 16.403H0.0722656L18.6579 61.3158L27.136 61.3159L45.7217 16.4031H37.7605L22.897 52.5865L22.896 52.5845Z"
    fill="#4DDD89" />
</svg>