<svg version="1.1" viewBox="0.0 0.0 960.0 720.0" fill="none" stroke="none" stroke-linecap="square" stroke-miterlimit="10" xmlns:xlink="http://www.w3.org/1999/xlink" xmlns="http://www.w3.org/2000/svg"><clipPath id="p.0"><path d="m0 0l960.0 0l0 720.0l-960.0 0l0 -720.0z" clip-rule="nonzero"/></clipPath><g clip-path="url(#p.0)"><path fill="#000000" fill-opacity="0.0" d="m0 0l960.0 0l0 720.0l-960.0 0z" fill-rule="evenodd"/><path fill="#000000" fill-opacity="0.0" d="m135.56955 380.76694c69.25452 -6.146332 138.98584 -1.2133789 208.48032 -1.2133789" fill-rule="evenodd"/><path stroke="#000000" stroke-width="12.0" stroke-linejoin="round" stroke-linecap="butt" d="m135.56955 380.76694c69.25452 -6.146332 138.98584 -1.2133789 208.48032 -1.2133789" fill-rule="evenodd"/><path fill="#000000" fill-opacity="0.0" d="m545.69556 377.1269c74.0517 0 148.10052 -1.2133789 222.15222 -1.2133789" fill-rule="evenodd"/><path stroke="#000000" stroke-width="12.0" stroke-linejoin="round" stroke-linecap="butt" d="m545.69556 377.1269c74.0517 0 148.10052 -1.2133789 222.15222 -1.2133789" fill-rule="evenodd"/><path fill="#000000" fill-opacity="0.0" d="m215.31758 375.91794c0 -8.338989 6.029892 -15.391815 9.112869 -23.056946c7.6913605 -19.122955 9.454681 -45.120148 26.202103 -55.82376c13.283066 -8.489471 30.234573 -7.373871 45.569534 -9.707031c24.109406 -3.6681519 47.74881 -10.299286 71.77167 -14.563324c57.433502 -10.194397 116.87125 -22.330078 174.30444 -12.133759c35.844055 6.363495 64.30975 38.15222 90.0 65.527954c11.189209 11.923309 12.732544 31.766174 23.92389 43.687195" fill-rule="evenodd"/><path stroke="#000000" stroke-width="12.0" stroke-linejoin="round" stroke-linecap="butt" d="m215.31758 375.91794c0 -8.338989 6.029892 -15.391815 9.112869 -23.056946c7.6913605 -19.122955 9.454681 -45.120148 26.202103 -55.82376c13.283066 -8.489471 30.234573 -7.373871 45.569534 -9.707031c24.109406 -3.6681519 47.74881 -10.299286 71.77167 -14.563324c57.433502 -10.194397 116.87125 -22.330078 174.30444 -12.133759c35.844055 6.363495 64.30975 38.15222 90.0 65.527954c11.189209 11.923309 12.732544 31.766174 23.92389 43.687195" fill-rule="evenodd"/><path fill="#000000" fill-opacity="0.0" d="m336.0761 335.86865c32.472046 0 6.168518 69.81958 18.228363 101.934875c18.384857 48.958923 56.584747 86.575745 83.16272 131.06152c9.617432 16.097534 15.816559 35.048523 28.48294 48.54071c12.640228 13.464355 37.530487 22.696106 52.404175 12.133789c10.872009 -7.720581 23.291687 -13.797119 31.897644 -24.270325c7.991638 -9.725647 8.696228 -24.142334 12.532837 -36.404175c11.111816 -35.51355 15.941589 -74.52533 11.393677 -111.644684c-6.003235 -48.99768 -37.35669 -90.50513 -58.102356 -134.70166" fill-rule="evenodd"/><path stroke="#000000" stroke-width="12.0" stroke-linejoin="round" stroke-linecap="butt" d="m336.0761 335.86865c32.472046 0 6.168518 69.81958 18.228363 101.934875c18.384857 48.958923 56.584747 86.575745 83.16272 131.06152c9.617432 16.097534 15.816559 35.048523 28.48294 48.54071c12.640228 13.464355 37.530487 22.696106 52.404175 12.133789c10.872009 -7.720581 23.291687 -13.797119 31.897644 -24.270325c7.991638 -9.725647 8.696228 -24.142334 12.532837 -36.404175c11.111816 -35.51355 15.941589 -74.52533 11.393677 -111.644684c-6.003235 -48.99768 -37.35669 -90.50513 -58.102356 -134.70166" fill-rule="evenodd"/><path fill="#000000" fill-opacity="0.0" d="m281.39264 334.65424c-5.776001 -2.049286 -13.007965 -4.549835 -18.228363 -1.2133789c-5.250763 3.3558655 -6.6080933 14.804626 -2.2781982 19.41684c4.168091 4.43985 11.814331 7.661499 17.086609 4.8535156c7.595093 -4.045166 11.393707 -15.225128 11.393707 -24.270355" fill-rule="evenodd"/><path stroke="#000000" stroke-width="12.0" stroke-linejoin="round" stroke-linecap="butt" d="m281.39264 334.65424c-5.776001 -2.049286 -13.007965 -4.549835 -18.228363 -1.2133789c-5.250763 3.3558655 -6.6080933 14.804626 -2.2781982 19.41684c4.168091 4.43985 11.814331 7.661499 17.086609 4.8535156c7.595093 -4.045166 11.393707 -15.225128 11.393707 -24.270355" fill-rule="evenodd"/><path fill="#000000" fill-opacity="0.0" d="m563.9236 321.3054c-4.7163086 3.7678833 -7.826599 12.9783325 -4.5563965 18.20346c4.885803 7.8065186 19.973877 10.274384 26.202087 3.6401062c6.123352 -6.5226135 -7.290344 -21.843567 -15.950134 -21.843567" fill-rule="evenodd"/><path stroke="#000000" stroke-width="12.0" stroke-linejoin="round" stroke-linecap="butt" d="m563.9236 321.3054c-4.7163086 3.7678833 -7.826599 12.9783325 -4.5563965 18.20346c4.885803 7.8065186 19.973877 10.274384 26.202087 3.6401062c6.123352 -6.5226135 -7.290344 -21.843567 -15.950134 -21.843567" fill-rule="evenodd"/><path fill="#000000" fill-opacity="0.0" d="m247.21523 229.08131c17.92604 4.7792053 39.899216 -2.1004791 54.68242 9.709824c2.3724365 1.8953552 -3.9161987 4.753113 -5.6955566 7.280258c-2.454193 3.4856262 -6.385681 8.239532 -4.556427 12.136581c1.4408875 3.0696106 8.621826 4.424713 6.834656 7.280243c-2.864746 4.5773315 -12.530182 4.20578 -12.530182 9.707031c0 10.884186 15.55957 14.147308 22.78476 21.843597" fill-rule="evenodd"/><path stroke="#000000" stroke-width="12.0" stroke-linejoin="round" stroke-linecap="butt" d="m247.21523 229.08131c17.92604 4.7792053 39.899216 -2.1004791 54.68242 9.709824c2.3724365 1.8953552 -3.9161987 4.753113 -5.6955566 7.280258c-2.454193 3.4856262 -6.385681 8.239532 -4.556427 12.136581c1.4408875 3.0696106 8.621826 4.424713 6.834656 7.280243c-2.864746 4.5773315 -12.530182 4.20578 -12.530182 9.707031c0 10.884186 15.55957 14.147308 22.78476 21.843597" fill-rule="evenodd"/><path fill="#000000" fill-opacity="0.0" d="m337.2152 197.53201c7.3478394 2.608963 1.8368835 16.54535 4.5564575 24.27034c2.1707458 6.1661377 9.767975 8.673126 12.532806 14.563324c3.0044556 6.4007416 -14.988892 8.7565 -13.671936 15.7739105c1.9864502 10.584717 6.834656 20.759277 6.834656 31.553406" fill-rule="evenodd"/><path stroke="#000000" stroke-width="12.0" stroke-linejoin="round" stroke-linecap="butt" d="m337.2152 197.53201c7.3478394 2.608963 1.8368835 16.54535 4.5564575 24.27034c2.1707458 6.1661377 9.767975 8.673126 12.532806 14.563324c3.0044556 6.4007416 -14.988892 8.7565 -13.671936 15.7739105c1.9864502 10.584717 6.834656 20.759277 6.834656 31.553406" fill-rule="evenodd"/><path fill="#000000" fill-opacity="0.0" d="m424.93713 190.25204c4.6054688 0.98114014 12.184082 -1.1060181 13.669312 3.6401367c2.6985168 8.623413 -14.876129 14.058441 -13.669312 23.056961c0.9903259 7.384201 17.651276 7.327606 15.950134 14.563324c-3.564392 15.160934 -7.9763794 30.48201 -7.9763794 46.11113" fill-rule="evenodd"/><path stroke="#000000" stroke-width="12.0" stroke-linejoin="round" stroke-linecap="butt" d="m424.93713 190.25204c4.6054688 0.98114014 12.184082 -1.1060181 13.669312 3.6401367c2.6985168 8.623413 -14.876129 14.058441 -13.669312 23.056961c0.9903259 7.384201 17.651276 7.327606 15.950134 14.563324c-3.564392 15.160934 -7.9763794 30.48201 -7.9763794 46.11113" fill-rule="evenodd"/><path fill="#000000" fill-opacity="0.0" d="m517.2152 197.53201c-11.544342 9.222778 8.658264 33.81688 0 46.113922c-5.4873962 7.7935944 -10.618652 16.439728 -18.228333 21.843597" fill-rule="evenodd"/><path stroke="#000000" stroke-width="12.0" stroke-linejoin="round" stroke-linecap="butt" d="m517.2152 197.53201c-11.544342 9.222778 8.658264 33.81688 0 46.113922c-5.4873962 7.7935944 -10.618652 16.439728 -18.228333 21.843597" fill-rule="evenodd"/><path fill="#000000" fill-opacity="0.0" d="m608.3543 231.51187c-12.092529 1.515213 -25.150879 -2.3881989 -36.456665 2.4267578c-5.6520996 2.407135 1.3325806 13.488663 -1.1390991 19.414047c-4.2871704 10.277695 -14.6474 16.63832 -19.364868 26.699875" fill-rule="evenodd"/><path stroke="#000000" stroke-width="12.0" stroke-linejoin="round" stroke-linecap="butt" d="m608.3543 231.51187c-12.092529 1.515213 -25.150879 -2.3881989 -36.456665 2.4267578c-5.6520996 2.407135 1.3325806 13.488663 -1.1390991 19.414047c-4.2871704 10.277695 -14.6474 16.63832 -19.364868 26.699875" fill-rule="evenodd"/><path fill="#000000" fill-opacity="0.0" d="m135.56908 380.76678c0 -11.498199 -15.408173 -26.985748 -25.062988 -21.843597c-5.476921 2.9170227 3.8451767 19.41684 -2.2782135 19.41684c-6.1237106 0 -4.7853622 -12.3776245 -9.115486 -16.990082c-5.5356674 -5.896576 -16.270973 -10.692535 -22.784775 -6.0668945c-5.7224884 4.063751 9.155792 21.843597 2.2782135 21.843597c-9.401588 0 -12.093925 -16.153625 -20.503937 -20.630219c-4.7315826 -2.5185852 -13.528141 0.60079956 -14.811024 6.0668945c-0.90699387 3.8645325 8.29607 10.92041 4.556431 10.92041c-7.828575 0 -16.11003 -15.603577 -21.645668 -9.707031c-2.1479225 2.2879639 0 6.471344 0 9.707031" fill-rule="evenodd"/><path stroke="#000000" stroke-width="12.0" stroke-linejoin="round" stroke-linecap="butt" d="m135.56908 380.76678c0 -11.498199 -15.408173 -26.985748 -25.062988 -21.843597c-5.476921 2.9170227 3.8451767 19.41684 -2.2782135 19.41684c-6.1237106 0 -4.7853622 -12.3776245 -9.115486 -16.990082c-5.5356674 -5.896576 -16.270973 -10.692535 -22.784775 -6.0668945c-5.7224884 4.063751 9.155792 21.843597 2.2782135 21.843597c-9.401588 0 -12.093925 -16.153625 -20.503937 -20.630219c-4.7315826 -2.5185852 -13.528141 0.60079956 -14.811024 6.0668945c-0.90699387 3.8645325 8.29607 10.92041 4.556431 10.92041c-7.828575 0 -16.11003 -15.603577 -21.645668 -9.707031c-2.1479225 2.2879639 0 6.471344 0 9.707031" fill-rule="evenodd"/><path fill="#000000" fill-opacity="0.0" d="m773.54333 383.19345c33.15863 105.90076 110.34607 190.18082 157.21521 290.0308" fill-rule="evenodd"/><path stroke="#000000" stroke-width="12.0" stroke-linejoin="round" stroke-linecap="butt" d="m773.54333 383.19345c33.15863 105.90076 110.34607 190.18082 157.21521 290.0308" fill-rule="evenodd"/><path fill="#000000" fill-opacity="0.0" d="m14.811024 380.7668c5.3584213 22.831146 18.768616 42.624603 27.341206 64.314575c19.060448 48.22592 39.60431 95.780304 60.380577 143.19534c14.196938 32.39978 37.593185 63.755615 37.593185 99.510925" fill-rule="evenodd"/><path stroke="#000000" stroke-width="12.0" stroke-linejoin="round" stroke-linecap="butt" d="m14.811024 380.7668c5.3584213 22.831146 18.768616 42.624603 27.341206 64.314575c19.060448 48.22592 39.60431 95.780304 60.380577 143.19534c14.196938 32.39978 37.593185 63.755615 37.593185 99.510925" fill-rule="evenodd"/><path fill="#000000" fill-opacity="0.0" d="m144.68242 685.345c118.49092 0 236.95262 4.8563232 355.44354 4.8563232c50.50659 0 101.35907 6.2860107 151.51971 0c24.148987 -3.0263062 46.789124 -14.337219 70.63251 -19.41681c21.597656 -4.6011963 44.05078 0 66.07611 0c43.67108 0 87.3421 0 131.01312 0" fill-rule="evenodd"/><path stroke="#000000" stroke-width="12.0" stroke-linejoin="round" stroke-linecap="butt" d="m144.68242 685.345c118.49092 0 236.95262 4.8563232 355.44354 4.8563232c50.50659 0 101.35907 6.2860107 151.51971 0c24.148987 -3.0263062 46.789124 -14.337219 70.63251 -19.41681c21.597656 -4.6011963 44.05078 0 66.07611 0c43.67108 0 87.3421 0 131.01312 0" fill-rule="evenodd"/><path fill="#000000" fill-opacity="0.0" d="m465.95013 548.2269c5.485901 -14.609009 21.45279 -21.64093 31.897644 -32.766785" fill-rule="evenodd"/><path stroke="#000000" stroke-width="12.0" stroke-linejoin="round" stroke-linecap="butt" d="m465.95013 548.2269c5.485901 -14.609009 21.45279 -21.64093 31.897644 -32.766785" fill-rule="evenodd"/><path fill="#000000" fill-opacity="0.0" d="m479.61942 562.78687c5.201172 -13.850647 15.688599 -25.70691 27.343842 -33.977356" fill-rule="evenodd"/><path stroke="#000000" stroke-width="12.0" stroke-linejoin="round" stroke-linecap="butt" d="m479.61942 562.78687c5.201172 -13.850647 15.688599 -25.70691 27.343842 -33.977356" fill-rule="evenodd"/><path fill="#000000" fill-opacity="0.0" d="m489.87402 588.2694c3.0070496 -12.812439 15.156891 -20.998657 23.92389 -30.33722" fill-rule="evenodd"/><path stroke="#000000" stroke-width="12.0" stroke-linejoin="round" stroke-linecap="butt" d="m489.87402 588.2694c3.0070496 -12.812439 15.156891 -20.998657 23.92389 -30.33722" fill-rule="evenodd"/><path fill="#000000" fill-opacity="0.0" d="m543.4173 298.24936c20.187805 0 40.045837 8.586548 58.102417 18.20346" fill-rule="evenodd"/><path stroke="#000000" stroke-width="12.0" stroke-linejoin="round" stroke-linecap="butt" d="m543.4173 298.24936c20.187805 0 40.045837 8.586548 58.102417 18.20346" fill-rule="evenodd"/><path fill="#000000" fill-opacity="0.0" d="m283.6719 304.3188c-14.746918 0 -36.45668 10.9887085 -36.45668 26.697113" fill-rule="evenodd"/><path stroke="#000000" stroke-width="12.0" stroke-linejoin="round" stroke-linecap="butt" d="m283.6719 304.3188c-14.746918 0 -36.45668 10.9887085 -36.45668 26.697113" fill-rule="evenodd"/></g></svg>