<svg width="355" height="87" viewBox="0 0 355 87" fill="none" xmlns="http://www.w3.org/2000/svg">
  <path fill-rule="evenodd" clip-rule="evenodd"
    d="M354.072 13.8231L323.138 26.2735C305.271 33.4646 293.574 50.7405 293.574 69.9381V73.3153H278.61V69.9381C278.61 44.6631 294.01 21.9181 317.533 12.4505L348.467 0L354.072 13.8231Z"
    fill="#4DDD89" />
  <path fill-rule="evenodd" clip-rule="evenodd"
    d="M353.977 34.6435L330.736 43.635C319.935 47.8132 312.82 58.1707 312.82 69.7132V73.3159H297.855V69.7132C297.855 52.0196 308.763 36.1424 325.319 29.7376L348.56 20.7461L353.977 34.6435Z"
    fill="#4DDD89" />
  <path fill-rule="evenodd" clip-rule="evenodd"
    d="M353.768 55.4875L337.871 61.0985C334.392 62.3265 332.066 65.6049 332.066 69.2821V73.3151H317.102V69.2821C317.102 59.2904 323.42 50.3825 332.874 47.0458L348.771 41.4348L353.768 55.4875Z"
    fill="#4DDD89" />
  <path
    d="M223.431 15.9015C222.558 15.0322 221.453 14.5976 220.115 14.5976C218.777 14.5976 217.672 15.0322 216.799 15.9015C215.927 16.7708 215.49 17.8718 215.49 19.2047C215.49 20.5376 215.927 21.6386 216.799 22.5079C217.672 23.3772 218.777 23.8118 220.115 23.8118C221.453 23.8118 222.558 23.3772 223.431 22.5079C224.303 21.6386 224.739 20.5376 224.739 19.2047C224.739 17.8718 224.303 16.7708 223.431 15.9015Z"
    fill="#4DDD89" />
  <path d="M216.442 28.3873H223.787V73.3159H216.442V28.3873Z" fill="#4DDD89" />
  <path
    d="M255.708 17.4901H261.112V18.7117H259.091V23.5757H257.729V18.7117H255.708V17.4901ZM261.816 17.4901H263.678L265.676 21.9242L267.652 17.4901H269.514V23.5757H268.242V18.9832L266.199 23.5757H265.086L263.088 18.9832V23.5757H261.816V17.4901Z"
    fill="#4DDD89" />
  <path d="M91.9892 12.1932H99.3562V73.3159H91.9892V12.1932Z" fill="#4DDD89" />
  <path fill-rule="evenodd" clip-rule="evenodd"
    d="M187.862 43.7332C187.862 35.275 193.533 28.4182 202.023 28.4182H211.227V35.1574H202.023C197.277 35.1574 194.98 39.1916 194.98 43.7332V73.316H187.862V43.7332Z"
    fill="#4DDD89" />
  <path
    d="M107.304 73.3161V13.6259H114.458V45.6011L119.049 45.6011C121.774 45.5693 124.239 43.8356 125.373 41.3615L131.309 28.4056H139.134L131.848 44.3064C131.587 44.8774 131.29 45.4251 130.961 45.9475C135.049 47.0431 138.505 49.9318 140.254 53.9137L148.717 73.1705H140.946L133.734 56.7578C132.612 54.2049 130.079 52.2807 127.282 52.2807L119.089 52.2807C119.048 52.2811 119.007 52.2812 118.966 52.2812H114.458V73.3161H107.304Z"
    fill="#4DDD89" />
  <path
    d="M165.418 63.7208L151.109 28.4051H143.578L161.63 73.1389L159.919 77.402C159.166 79.2539 157.362 80.4659 155.356 80.4659L148.638 80.4659V86.9999L155.036 87C159.942 87 164.357 84.5929 166.197 80.0629L187.175 28.4056H179.814L165.418 63.7208Z"
    fill="#4DDD89" />
  <path fill-rule="evenodd" clip-rule="evenodd"
    d="M245.544 73.9526C240.591 73.9526 236.368 72.5078 233.362 69.6296C230.355 66.6927 229.095 62.8218 229.095 58.0053L229.095 45.1741C229.095 40.1226 230.598 36.0697 233.605 33.0154C236.612 29.9023 240.591 28.3457 245.544 28.3457L253.408 28.3457C258.124 28.3457 261.927 29.8435 264.816 32.8392C267.705 35.8348 269.15 39.7996 269.15 44.7336V53.0988L236.055 53.093L236.055 57.1628C236.055 60.2171 236.969 62.7135 238.796 64.6518C240.683 66.5314 243.13 67.4712 246.137 67.4712L252.253 67.4712C255.2 67.4712 257.588 66.6783 259.416 65.0924C260.353 64.2489 261.05 63.2663 261.507 62.1446L262.505 59.5728L269.064 62.3573L267.925 65.1783C267.188 66.9981 266.064 68.6012 264.551 69.9878C261.603 72.631 257.712 73.9526 252.877 73.9526L245.544 73.9526ZM262.158 45.3397V46.792L236.055 46.792V45.7802C236.055 42.4321 236.969 39.7302 238.796 37.6744C240.683 35.6186 243.13 34.5906 246.137 34.5906L252.783 34.5907C255.613 34.5907 257.883 35.5892 259.593 37.5863C261.303 39.5246 262.158 42.1091 262.158 45.3397Z"
    fill="#4DDD89" />
  <path fill-rule="evenodd" clip-rule="evenodd"
    d="M60.8644 73.9525C56.4381 73.9525 52.891 72.8048 50.223 70.5093C47.6157 68.2138 46.3121 64.9531 46.3121 61.087V58.8077C46.3121 55.002 47.6764 51.9514 50.4049 49.656C53.1335 47.3605 56.7413 46.2127 61.2282 46.2127H66.6745C68.6754 46.2127 70.737 46.5148 72.8592 47.1188C74.605 47.6158 76.1457 48.2558 77.4811 49.0389V43.2799C77.4811 40.7428 76.6929 38.6889 75.1164 37.1183C73.5399 35.4873 71.448 34.6718 68.8407 34.6718H64.1815C61.5742 34.6718 59.4823 35.2759 57.9058 36.484C57.0172 37.165 56.3791 37.9707 55.9913 38.9012C55.6911 39.6215 54.8225 41.7503 54.8225 41.7503L48.4619 39.1136C48.4619 39.1136 49.1037 37.565 49.6442 36.2238C50.3315 34.5183 51.4559 33.04 53.0172 31.7889C55.8064 29.4934 59.4748 28.3456 64.0224 28.3456H69.2992C73.7862 28.3456 77.3939 29.6746 80.1225 32.3325C82.9117 34.9301 84.3063 38.3733 84.3063 42.6622V62.5102C84.3063 62.576 84.3082 62.6406 84.3125 62.7063C84.3497 63.2804 84.5565 66.2649 84.9455 68.2088C85.3529 70.2443 87.0225 73.323 87.0225 73.323H79.5509L79.3428 72.9795C78.5004 71.589 77.9601 70.038 77.7568 68.4266C76.7047 69.4388 74.6765 71.0789 72.9502 72.0497C70.4815 73.438 68.3723 73.9525 65.9469 73.9525H60.8644ZM73.7688 64.8187C71.5253 66.5705 68.9786 67.4464 66.1288 67.4464H60.8591C58.4337 67.4464 56.4934 66.8121 55.0381 65.5436C53.5829 64.275 52.8553 62.5836 52.8553 60.4693V59.4254C52.8553 57.3715 53.6132 55.7103 55.1291 54.4417C56.7056 53.1732 58.7368 52.5389 61.2229 52.5389H66.6745C68.918 52.5389 71.1008 52.9013 73.223 53.6262C74.9439 54.1501 76.3633 54.8241 77.4811 55.6483V57.9532C77.4811 59.3981 77.2171 60.861 76.3935 62.0504C75.6713 63.0935 74.7963 64.0163 73.7688 64.8187Z"
    fill="#4DDD89" />
  <path
    d="M24.896 64.5845L10.0335 28.403H2.07227L20.6579 73.3158L29.136 73.3159L47.7217 28.4031H39.7605L24.897 64.5865L24.896 64.5845Z"
    fill="#4DDD89" />
</svg>